{
	"asset":{
		"generator":"Khronos glTF Blender I/O v3.6.27",
		"version":"2.0"
	},
	"scene":0,
	"scenes":[
		{
			"name":"Scene",
			"nodes":[
				0,
				1,
				2,
				3,
				4,
				5,
				6,
				7,
				8,
				9,
				10,
				11,
				12,
				13,
				14,
				15,
				16,
				17,
				18,
				19,
				20,
				21,
				22,
				23,
				24,
				25,
				26,
				27,
				28,
				29,
				30,
				31,
				32,
				33,
				34,
				35,
				36,
				37,
				38,
				39,
				40,
				41,
				42,
				43,
				44,
				45,
				46,
				47,
				48,
				49,
				50,
				51,
				52,
				53,
				54,
				55,
				56,
				57,
				58,
				61
			]
		}
	],
	"nodes":[
		{
			"mesh":0,
			"name":"ComputerCashier_A",
			"translation":[
				-0.800000011920929,
				0.6000000238418579,
				0.7999994158744812
			]
		},
		{
			"mesh":1,
			"name":"Deco_CupcakeStand_Lid",
			"translation":[
				1.9000015258789062,
				0.6000000238418579,
				-0.6999996304512024
			]
		},
		{
			"mesh":2,
			"name":"Cupcake_Bubblegum",
			"translation":[
				2.0747780799865723,
				0.5999999642372131,
				0.39999979734420776
			]
		},
		{
			"mesh":3,
			"name":"Cup_Upright_Orange",
			"translation":[
				1.2159271240234375,
				0.6000000238418579,
				0.3000003695487976
			]
		},
		{
			"mesh":4,
			"name":"Deco_CoffeePack_Strawberry",
			"translation":[
				-3.200000762939453,
				0.5999999046325684,
				-0.6999996304512024
			]
		},
		{
			"mesh":5,
			"name":"Plant_SmallPot_A",
			"translation":[
				-3.8000001907348633,
				0.800000011920929,
				0.699999988079071
			]
		},
		{
			"mesh":6,
			"name":"Deco_Wooden_Tray_A",
			"translation":[
				-2.950000762939453,
				0.6000000238418579,
				-0.1999996304512024
			]
		},
		{
			"mesh":7,
			"name":"Food_Straw",
			"translation":[
				3.0999984741210938,
				0.831211507320404,
				0.39999979734420776
			]
		},
		{
			"mesh":8,
			"name":"PaperCup_A",
			"translation":[
				-2.450000762939453,
				0.6000000238418579,
				-0.1999996304512024
			]
		},
		{
			"mesh":9,
			"name":"PaperCup_Lid_A",
			"translation":[
				-2.450000762939453,
				0.9000000357627869,
				-0.20000725984573364
			]
		},
		{
			"mesh":10,
			"name":"Plant_Cactus_A_1",
			"translation":[
				-2.646221160888672,
				0.6000000238418579,
				0.7615243792533875
			]
		},
		{
			"mesh":11,
			"name":"Plant_Cactus_A_2",
			"translation":[
				-2.422039031982422,
				0.6000000238418579,
				0.7615243792533875
			]
		},
		{
			"mesh":12,
			"name":"Plant_Cactus_A_3",
			"translation":[
				-2.1993408203125,
				0.6000000238418579,
				0.7615243792533875
			]
		},
		{
			"mesh":13,
			"name":"Deco_CoffeePack_Matcha",
			"translation":[
				-2.8881683349609375,
				0.5999999046325684,
				-0.6999996304512024
			]
		},
		{
			"mesh":14,
			"name":"Deco_CoffeePack_Cream",
			"translation":[
				-2.289234161376953,
				0.5999999046325684,
				-0.6999996304512024
			]
		},
		{
			"mesh":15,
			"name":"Deco_CoffeePack_Cappuccino",
			"translation":[
				-2.000415802001953,
				0.5999999046325684,
				-0.6999996304512024
			]
		},
		{
			"mesh":16,
			"name":"Deco_CoffeePack_Espresso",
			"translation":[
				-1.7000007629394531,
				0.5999999046325684,
				-0.6999996304512024
			]
		},
		{
			"mesh":17,
			"name":"Cup_Plate_Blue",
			"translation":[
				1.2159271240234375,
				0.6000000238418579,
				0.3000003695487976
			]
		},
		{
			"mesh":18,
			"name":"Cup_Plate_Orange",
			"translation":[
				0.7914809584617615,
				0.6000000238418579,
				0.3000003695487976
			]
		},
		{
			"mesh":19,
			"name":"Cup_Plate_Cream",
			"translation":[
				0.3604697585105896,
				0.6000000238418579,
				0.3000003695487976
			]
		},
		{
			"mesh":20,
			"name":"Cup_Upright_Cream",
			"translation":[
				0.7943457961082458,
				0.6000000238418579,
				0.3000003695487976
			]
		},
		{
			"mesh":21,
			"name":"Cup_Upright_Blue",
			"translation":[
				0.36708444356918335,
				0.6000000238418579,
				0.3000003695487976
			]
		},
		{
			"mesh":22,
			"name":"Cup_Flipped_Cream",
			"translation":[
				0.8327903151512146,
				0.7414929270744324,
				0.7194358706474304
			]
		},
		{
			"mesh":23,
			"name":"Cup_Flipped_Blue",
			"translation":[
				0.3948439955711365,
				0.7414929270744324,
				0.7194358706474304
			]
		},
		{
			"mesh":24,
			"name":"Deco_Cups_3",
			"translation":[
				1.0999984741210938,
				0.6000000238418579,
				-0.6000002026557922
			]
		},
		{
			"mesh":25,
			"name":"Deco_Cups_2",
			"translation":[
				0.7348136305809021,
				0.5970832109451294,
				-0.6000002026557922
			]
		},
		{
			"mesh":26,
			"name":"Deco_Cups_1",
			"translation":[
				0.3989409804344177,
				0.6000000238418579,
				-0.6000002026557922
			]
		},
		{
			"mesh":27,
			"name":"Food_Whipped_Cream",
			"translation":[
				1.7999992370605469,
				0.5946168303489685,
				0.39999979734420776
			]
		},
		{
			"mesh":28,
			"name":"PaperCup_Flipped_A",
			"translation":[
				-2.1714439392089844,
				0.6000000238418579,
				-0.20000821352005005
			]
		},
		{
			"mesh":29,
			"name":"Stack_PaperCups_Flipped_A",
			"translation":[
				-2.953022003173828,
				0.6206642389297485,
				-0.2047460675239563
			]
		},
		{
			"mesh":30,
			"name":"Papercup_Lids_Stack_A",
			"translation":[
				-2.7534027099609375,
				0.6231991052627563,
				-0.20842057466506958
			]
		},
		{
			"mesh":31,
			"name":"Plant_Hanging",
			"translation":[
				-3.4000000953674316,
				0.7999998927116394,
				0.699999988079071
			]
		},
		{
			"mesh":32,
			"name":"PaperCup_Stack_A",
			"translation":[
				-3.1316795349121094,
				0.621080756187439,
				-0.18750649690628052
			]
		},
		{
			"mesh":33,
			"name":"CupCoffee_Orange",
			"translation":[
				1.2159271240234375,
				0.6000000238418579,
				-0.1190231442451477
			]
		},
		{
			"mesh":34,
			"name":"CupCoffee_White",
			"translation":[
				0.7943457961082458,
				0.6000000238418579,
				-0.1190231442451477
			]
		},
		{
			"mesh":35,
			"name":"CupCoffee_Blue",
			"translation":[
				0.36708444356918335,
				0.6000000238418579,
				-0.1190231442451477
			]
		},
		{
			"mesh":36,
			"name":"Cup_Flipped_Orange",
			"translation":[
				1.2497749328613281,
				0.7414929270744324,
				0.7194358706474304
			]
		},
		{
			"mesh":37,
			"name":"CupcakeStand",
			"translation":[
				2.5800018310546875,
				0.6000000238418579,
				-0.6999996304512024
			]
		},
		{
			"mesh":38,
			"name":"ComputerCashier_B",
			"translation":[
				-0.800000011920929,
				0.6000000238418579,
				0.39999979734420776
			]
		},
		{
			"mesh":39,
			"name":"ComputerCashier_C",
			"translation":[
				-0.800000011920929,
				0.6000000238418579,
				0
			]
		},
		{
			"mesh":40,
			"name":"ComputerCashier_D",
			"translation":[
				-0.800000011920929,
				0.6000000238418579,
				-0.4000003933906555
			]
		},
		{
			"mesh":41,
			"name":"ComputerCashier_E",
			"translation":[
				-0.800000011920929,
				0.6000000238418579,
				-0.800000011920929
			]
		},
		{
			"mesh":42,
			"name":"Food_Tray_A",
			"translation":[
				3.599998712539673,
				0.6000000238418579,
				0.39999979734420776
			]
		},
		{
			"mesh":43,
			"name":"Deco_Straw_Stack",
			"translation":[
				3.1808547973632812,
				0.6145749092102051,
				0.3928672671318054
			]
		},
		{
			"mesh":44,
			"name":"Cupcake_ChocolateOrange",
			"translation":[
				2.3148956298828125,
				0.6000000238418579,
				0.39999979734420776
			]
		},
		{
			"mesh":45,
			"name":"Cupcake_RedVelvet",
			"translation":[
				2.564739227294922,
				0.6000000238418579,
				0.39999979734420776
			]
		},
		{
			"mesh":46,
			"name":"Cupcake_LemonMatcha",
			"translation":[
				2.8041913509368896,
				0.6000000238418579,
				0.39999979734420776
			]
		},
		{
			"mesh":47,
			"name":"Cake_Table_Display_Small_A",
			"translation":[
				3.5012972354888916,
				0.6000000238418579,
				-0.6999996304512024
			]
		},
		{
			"mesh":48,
			"name":"Cake_Table_Display_Small_B",
			"translation":[
				3.5012972354888916,
				0.6000000238418579,
				-0.1999996304512024
			]
		},
		{
			"mesh":49,
			"name":"Food_Tray_B",
			"translation":[
				3.599998712539673,
				0.6000000238418579,
				0.8000003695487976
			]
		},
		{
			"mesh":50,
			"name":"Deco_TallGlass_Flipped",
			"translation":[
				2.0645675659179688,
				0.6107492446899414,
				0
			]
		},
		{
			"mesh":51,
			"name":"PaperCup_B",
			"translation":[
				-2.450000762939453,
				0.6000000238418579,
				0.08776015043258667
			]
		},
		{
			"mesh":52,
			"name":"PaperCup_B_Flipped",
			"translation":[
				-2.1714439392089844,
				0.6000000238418579,
				0.08775156736373901
			]
		},
		{
			"mesh":53,
			"name":"PaperCup_Lid_B",
			"translation":[
				-2.450000762939453,
				0.9000000357627869,
				0.08520525693893433
			]
		},
		{
			"mesh":54,
			"name":"Deco_CoffeePack_Black",
			"translation":[
				-2.5881690979003906,
				0.6000000238418579,
				-0.6999996304512024
			]
		},
		{
			"mesh":55,
			"name":"Food_Milkshake_Strawberry",
			"translation":[
				2.4186973571777344,
				0.6000000238418579,
				0
			]
		},
		{
			"mesh":56,
			"name":"Food_Milkshake_Matcha",
			"translation":[
				2.6598968505859375,
				0.6000000238418579,
				0
			]
		},
		{
			"mesh":57,
			"name":"Food_Milkshake_Chocolate",
			"translation":[
				2.8882293701171875,
				0.6000000238418579,
				0
			]
		},
		{
			"mesh":58,
			"name":"Deco_TallGlass_Empty",
			"translation":[
				1.8282394409179688,
				0.6000000238418579,
				0
			]
		},
		{
			"mesh":59,
			"name":"Coffe_M_Portafilter1",
			"translation":[
				0.14543628692626953,
				0.28453773260116577,
				0.07318568229675293
			]
		},
		{
			"mesh":60,
			"name":"Coffe_M_Portafilter2",
			"translation":[
				-0.1373271942138672,
				0.16581809520721436,
				0.07318568229675293
			]
		},
		{
			"children":[
				59,
				60
			],
			"mesh":61,
			"name":"Coffe_Machine",
			"translation":[
				-3.8943142890930176,
				0.6000000238418579,
				-0.32490041851997375
			]
		}
	],
	"meshes":[
		{
			"name":"ComputerCashier_A",
			"primitives":[
				{
					"attributes":{
						"POSITION":0,
						"NORMAL":1,
						"TEXCOORD_0":2
					},
					"indices":3
				}
			]
		},
		{
			"name":"Deco_CupcakeStand_Lid",
			"primitives":[
				{
					"attributes":{
						"POSITION":4,
						"NORMAL":5,
						"TEXCOORD_0":6
					},
					"indices":7
				},
				{
					"attributes":{
						"POSITION":8,
						"NORMAL":9,
						"TEXCOORD_0":10
					},
					"indices":11
				}
			]
		},
		{
			"name":"Cupcake_Bubblegum",
			"primitives":[
				{
					"attributes":{
						"POSITION":12,
						"NORMAL":13,
						"TEXCOORD_0":14
					},
					"indices":15
				}
			]
		},
		{
			"name":"Cup_Upright_Orange",
			"primitives":[
				{
					"attributes":{
						"POSITION":16,
						"NORMAL":17,
						"TEXCOORD_0":18
					},
					"indices":19
				}
			]
		},
		{
			"name":"Deco_CoffeePack_Strawberry",
			"primitives":[
				{
					"attributes":{
						"POSITION":20,
						"NORMAL":21,
						"TEXCOORD_0":22
					},
					"indices":23
				}
			]
		},
		{
			"name":"Plant_SmallPot_A",
			"primitives":[
				{
					"attributes":{
						"POSITION":24,
						"NORMAL":25,
						"TEXCOORD_0":26
					},
					"indices":27
				}
			]
		},
		{
			"name":"Deco_Wooden_Tray_A",
			"primitives":[
				{
					"attributes":{
						"POSITION":28,
						"NORMAL":29,
						"TEXCOORD_0":30
					},
					"indices":31
				}
			]
		},
		{
			"name":"Food_Straw",
			"primitives":[
				{
					"attributes":{
						"POSITION":32,
						"NORMAL":33,
						"TEXCOORD_0":34
					},
					"indices":35
				}
			]
		},
		{
			"name":"PaperCup_A",
			"primitives":[
				{
					"attributes":{
						"POSITION":36,
						"NORMAL":37,
						"TEXCOORD_0":38
					},
					"indices":39
				}
			]
		},
		{
			"name":"PaperCup_Lid_A",
			"primitives":[
				{
					"attributes":{
						"POSITION":40,
						"NORMAL":41,
						"TEXCOORD_0":42
					},
					"indices":43
				}
			]
		},
		{
			"name":"Plant_Cactus_A_1",
			"primitives":[
				{
					"attributes":{
						"POSITION":44,
						"NORMAL":45,
						"TEXCOORD_0":46
					},
					"indices":47
				}
			]
		},
		{
			"name":"Plant_Cactus_A_2",
			"primitives":[
				{
					"attributes":{
						"POSITION":48,
						"NORMAL":49,
						"TEXCOORD_0":50
					},
					"indices":51
				}
			]
		},
		{
			"name":"Plant_Cactus_A_3",
			"primitives":[
				{
					"attributes":{
						"POSITION":52,
						"NORMAL":53,
						"TEXCOORD_0":54
					},
					"indices":55
				}
			]
		},
		{
			"name":"Deco_CoffeePack_Matcha",
			"primitives":[
				{
					"attributes":{
						"POSITION":56,
						"NORMAL":57,
						"TEXCOORD_0":58
					},
					"indices":59
				}
			]
		},
		{
			"name":"Deco_CoffeePack_Cream",
			"primitives":[
				{
					"attributes":{
						"POSITION":60,
						"NORMAL":61,
						"TEXCOORD_0":62
					},
					"indices":63
				}
			]
		},
		{
			"name":"Deco_CoffeePack_Cappuccino",
			"primitives":[
				{
					"attributes":{
						"POSITION":64,
						"NORMAL":65,
						"TEXCOORD_0":66
					},
					"indices":67
				}
			]
		},
		{
			"name":"Deco_CoffeePack_Espresso",
			"primitives":[
				{
					"attributes":{
						"POSITION":68,
						"NORMAL":69,
						"TEXCOORD_0":70
					},
					"indices":71
				}
			]
		},
		{
			"name":"Cup_Plate_Blue",
			"primitives":[
				{
					"attributes":{
						"POSITION":72,
						"NORMAL":73,
						"TEXCOORD_0":74
					},
					"indices":75
				}
			]
		},
		{
			"name":"Cup_Plate_Orange",
			"primitives":[
				{
					"attributes":{
						"POSITION":76,
						"NORMAL":77,
						"TEXCOORD_0":78
					},
					"indices":75
				}
			]
		},
		{
			"name":"Cup_Plate_Cream",
			"primitives":[
				{
					"attributes":{
						"POSITION":79,
						"NORMAL":80,
						"TEXCOORD_0":81
					},
					"indices":75
				}
			]
		},
		{
			"name":"Cup_Upright_Cream",
			"primitives":[
				{
					"attributes":{
						"POSITION":82,
						"NORMAL":83,
						"TEXCOORD_0":84
					},
					"indices":19
				}
			]
		},
		{
			"name":"Cup_Upright_Blue",
			"primitives":[
				{
					"attributes":{
						"POSITION":85,
						"NORMAL":86,
						"TEXCOORD_0":87
					},
					"indices":19
				}
			]
		},
		{
			"name":"Cup_Flipped_Cream",
			"primitives":[
				{
					"attributes":{
						"POSITION":88,
						"NORMAL":89,
						"TEXCOORD_0":90
					},
					"indices":91
				}
			]
		},
		{
			"name":"Cup_Flipped_Blue",
			"primitives":[
				{
					"attributes":{
						"POSITION":92,
						"NORMAL":93,
						"TEXCOORD_0":94
					},
					"indices":95
				}
			]
		},
		{
			"name":"Deco_Cups_3",
			"primitives":[
				{
					"attributes":{
						"POSITION":96,
						"NORMAL":97,
						"TEXCOORD_0":98
					},
					"indices":99
				}
			]
		},
		{
			"name":"Deco_Cups_2",
			"primitives":[
				{
					"attributes":{
						"POSITION":100,
						"NORMAL":101,
						"TEXCOORD_0":102
					},
					"indices":103
				}
			]
		},
		{
			"name":"Deco_Cups_1",
			"primitives":[
				{
					"attributes":{
						"POSITION":104,
						"NORMAL":105,
						"TEXCOORD_0":106
					},
					"indices":107
				}
			]
		},
		{
			"name":"Food_Whipped_Cream",
			"primitives":[
				{
					"attributes":{
						"POSITION":108,
						"NORMAL":109,
						"TEXCOORD_0":110
					},
					"indices":111
				}
			]
		},
		{
			"name":"PaperCup_Flipped_A",
			"primitives":[
				{
					"attributes":{
						"POSITION":112,
						"NORMAL":113,
						"TEXCOORD_0":114
					},
					"indices":115
				}
			]
		},
		{
			"name":"Stack_PaperCups_Flipped_A",
			"primitives":[
				{
					"attributes":{
						"POSITION":116,
						"NORMAL":117,
						"TEXCOORD_0":118
					},
					"indices":119
				}
			]
		},
		{
			"name":"Papercup_Lids_Stack_A",
			"primitives":[
				{
					"attributes":{
						"POSITION":120,
						"NORMAL":121,
						"TEXCOORD_0":122
					},
					"indices":123
				}
			]
		},
		{
			"name":"Plant_Hanging",
			"primitives":[
				{
					"attributes":{
						"POSITION":124,
						"NORMAL":125,
						"TEXCOORD_0":126
					},
					"indices":127
				}
			]
		},
		{
			"name":"PaperCup_Stack_A",
			"primitives":[
				{
					"attributes":{
						"POSITION":128,
						"NORMAL":129,
						"TEXCOORD_0":130
					},
					"indices":131
				}
			]
		},
		{
			"name":"CupCoffee_Orange",
			"primitives":[
				{
					"attributes":{
						"POSITION":132,
						"NORMAL":133,
						"TEXCOORD_0":134
					},
					"indices":135
				}
			]
		},
		{
			"name":"CupCoffee_White",
			"primitives":[
				{
					"attributes":{
						"POSITION":136,
						"NORMAL":137,
						"TEXCOORD_0":138
					},
					"indices":135
				}
			]
		},
		{
			"name":"CupCoffee_Blue",
			"primitives":[
				{
					"attributes":{
						"POSITION":139,
						"NORMAL":140,
						"TEXCOORD_0":141
					},
					"indices":135
				}
			]
		},
		{
			"name":"Cup_Flipped_Orange",
			"primitives":[
				{
					"attributes":{
						"POSITION":142,
						"NORMAL":143,
						"TEXCOORD_0":144
					},
					"indices":95
				}
			]
		},
		{
			"name":"CupcakeStand",
			"primitives":[
				{
					"attributes":{
						"POSITION":145,
						"NORMAL":146,
						"TEXCOORD_0":147
					},
					"indices":148
				}
			]
		},
		{
			"name":"ComputerCashier_B",
			"primitives":[
				{
					"attributes":{
						"POSITION":149,
						"NORMAL":150,
						"TEXCOORD_0":151
					},
					"indices":3
				}
			]
		},
		{
			"name":"ComputerCashier_C",
			"primitives":[
				{
					"attributes":{
						"POSITION":152,
						"NORMAL":153,
						"TEXCOORD_0":154
					},
					"indices":3
				}
			]
		},
		{
			"name":"ComputerCashier_D",
			"primitives":[
				{
					"attributes":{
						"POSITION":155,
						"NORMAL":156,
						"TEXCOORD_0":157
					},
					"indices":3
				}
			]
		},
		{
			"name":"ComputerCashier_E",
			"primitives":[
				{
					"attributes":{
						"POSITION":158,
						"NORMAL":159,
						"TEXCOORD_0":160
					},
					"indices":3
				}
			]
		},
		{
			"name":"Food_Tray_A",
			"primitives":[
				{
					"attributes":{
						"POSITION":161,
						"NORMAL":162,
						"TEXCOORD_0":163
					},
					"indices":164
				}
			]
		},
		{
			"name":"Deco_Straw_Stack",
			"primitives":[
				{
					"attributes":{
						"POSITION":165,
						"NORMAL":166,
						"TEXCOORD_0":167
					},
					"indices":168
				}
			]
		},
		{
			"name":"Cupcake_ChocolateOrange",
			"primitives":[
				{
					"attributes":{
						"POSITION":169,
						"NORMAL":170,
						"TEXCOORD_0":171
					},
					"indices":172
				}
			]
		},
		{
			"name":"Cupcake_RedVelvet",
			"primitives":[
				{
					"attributes":{
						"POSITION":173,
						"NORMAL":174,
						"TEXCOORD_0":175
					},
					"indices":172
				}
			]
		},
		{
			"name":"Cupcake_LemonMatcha",
			"primitives":[
				{
					"attributes":{
						"POSITION":176,
						"NORMAL":177,
						"TEXCOORD_0":178
					},
					"indices":172
				}
			]
		},
		{
			"name":"Cake_Table_Display_Small_A",
			"primitives":[
				{
					"attributes":{
						"POSITION":179,
						"NORMAL":180,
						"TEXCOORD_0":181
					},
					"indices":182
				},
				{
					"attributes":{
						"POSITION":183,
						"NORMAL":184,
						"TEXCOORD_0":185
					},
					"indices":186
				}
			]
		},
		{
			"name":"Cake_Table_Display_Small_B",
			"primitives":[
				{
					"attributes":{
						"POSITION":187,
						"NORMAL":188,
						"TEXCOORD_0":189
					},
					"indices":182
				},
				{
					"attributes":{
						"POSITION":190,
						"NORMAL":191,
						"TEXCOORD_0":192
					},
					"indices":186
				}
			]
		},
		{
			"name":"Food_Tray_B",
			"primitives":[
				{
					"attributes":{
						"POSITION":193,
						"NORMAL":194,
						"TEXCOORD_0":195
					},
					"indices":164
				}
			]
		},
		{
			"name":"Deco_TallGlass_Flipped",
			"primitives":[
				{
					"attributes":{
						"POSITION":196,
						"NORMAL":197,
						"TEXCOORD_0":198
					},
					"indices":199
				}
			]
		},
		{
			"name":"PaperCup_B",
			"primitives":[
				{
					"attributes":{
						"POSITION":200,
						"NORMAL":201,
						"TEXCOORD_0":202
					},
					"indices":39
				}
			]
		},
		{
			"name":"PaperCup_B_Flipped",
			"primitives":[
				{
					"attributes":{
						"POSITION":203,
						"NORMAL":204,
						"TEXCOORD_0":205
					},
					"indices":115
				}
			]
		},
		{
			"name":"PaperCup_Lid_B",
			"primitives":[
				{
					"attributes":{
						"POSITION":206,
						"NORMAL":207,
						"TEXCOORD_0":208
					},
					"indices":43
				}
			]
		},
		{
			"name":"Deco_CoffeePack_Black",
			"primitives":[
				{
					"attributes":{
						"POSITION":209,
						"NORMAL":210,
						"TEXCOORD_0":211
					},
					"indices":212
				}
			]
		},
		{
			"name":"Food_Milkshake_Strawberry",
			"primitives":[
				{
					"attributes":{
						"POSITION":213,
						"NORMAL":214,
						"TEXCOORD_0":215
					},
					"indices":216
				}
			]
		},
		{
			"name":"Food_Milkshake_Matcha",
			"primitives":[
				{
					"attributes":{
						"POSITION":217,
						"NORMAL":218,
						"TEXCOORD_0":219
					},
					"indices":216
				}
			]
		},
		{
			"name":"Food_Milkshake_Chocolate",
			"primitives":[
				{
					"attributes":{
						"POSITION":220,
						"NORMAL":221,
						"TEXCOORD_0":222
					},
					"indices":216
				}
			]
		},
		{
			"name":"Deco_TallGlass_Empty",
			"primitives":[
				{
					"attributes":{
						"POSITION":223,
						"NORMAL":224,
						"TEXCOORD_0":225
					},
					"indices":226
				}
			]
		},
		{
			"name":"Coffe_Machine.002",
			"primitives":[
				{
					"attributes":{
						"POSITION":227,
						"NORMAL":228,
						"TEXCOORD_0":229
					},
					"indices":230
				}
			]
		},
		{
			"name":"Coffe_Machine.003",
			"primitives":[
				{
					"attributes":{
						"POSITION":231,
						"NORMAL":232,
						"TEXCOORD_0":233
					},
					"indices":230
				}
			]
		},
		{
			"name":"Coffe_Machine",
			"primitives":[
				{
					"attributes":{
						"POSITION":234,
						"NORMAL":235,
						"TEXCOORD_0":236
					},
					"indices":237
				}
			]
		}
	],
	"accessors":[
		{
			"bufferView":0,
			"componentType":5126,
			"count":324,
			"max":[
				0.2993052303791046,
				0.4898340702056885,
				0.10704241693019867
			],
			"min":[
				-0.2935643196105957,
				3.584022488212213e-05,
				-0.08504997938871384
			],
			"type":"VEC3"
		},
		{
			"bufferView":1,
			"componentType":5126,
			"count":324,
			"type":"VEC3"
		},
		{
			"bufferView":2,
			"componentType":5126,
			"count":324,
			"type":"VEC2"
		},
		{
			"bufferView":3,
			"componentType":5123,
			"count":846,
			"type":"SCALAR"
		},
		{
			"bufferView":4,
			"componentType":5126,
			"count":272,
			"max":[
				0.3573089838027954,
				0.16560998558998108,
				0.3573096692562103
			],
			"min":[
				-0.35731035470962524,
				1.2283054218187317e-07,
				-0.3573096692562103
			],
			"type":"VEC3"
		},
		{
			"bufferView":5,
			"componentType":5126,
			"count":272,
			"type":"VEC3"
		},
		{
			"bufferView":6,
			"componentType":5126,
			"count":272,
			"type":"VEC2"
		},
		{
			"bufferView":7,
			"componentType":5123,
			"count":756,
			"type":"SCALAR"
		},
		{
			"bufferView":8,
			"componentType":5126,
			"count":465,
			"max":[
				0.32909300923347473,
				0.5317521095275879,
				0.32909414172172546
			],
			"min":[
				-0.32909438014030457,
				0.1677466332912445,
				-0.32909348607063293
			],
			"type":"VEC3"
		},
		{
			"bufferView":9,
			"componentType":5126,
			"count":465,
			"type":"VEC3"
		},
		{
			"bufferView":10,
			"componentType":5126,
			"count":465,
			"type":"VEC2"
		},
		{
			"bufferView":11,
			"componentType":5123,
			"count":1920,
			"type":"SCALAR"
		},
		{
			"bufferView":12,
			"componentType":5126,
			"count":463,
			"max":[
				0.10694620758295059,
				0.29542428255081177,
				0.10694058984518051
			],
			"min":[
				-0.10694672167301178,
				-2.14201250514634e-07,
				-0.10694961994886398
			],
			"type":"VEC3"
		},
		{
			"bufferView":13,
			"componentType":5126,
			"count":463,
			"type":"VEC3"
		},
		{
			"bufferView":14,
			"componentType":5126,
			"count":463,
			"type":"VEC2"
		},
		{
			"bufferView":15,
			"componentType":5123,
			"count":1896,
			"type":"SCALAR"
		},
		{
			"bufferView":16,
			"componentType":5126,
			"count":503,
			"max":[
				0.12104655057191849,
				0.1591583639383316,
				0.11572321504354477
			],
			"min":[
				-0.11985281854867935,
				0.017934707924723625,
				-0.17547276616096497
			],
			"type":"VEC3"
		},
		{
			"bufferView":17,
			"componentType":5126,
			"count":503,
			"type":"VEC3"
		},
		{
			"bufferView":18,
			"componentType":5126,
			"count":503,
			"type":"VEC2"
		},
		{
			"bufferView":19,
			"componentType":5123,
			"count":1704,
			"type":"SCALAR"
		},
		{
			"bufferView":20,
			"componentType":5126,
			"count":164,
			"max":[
				0.11696035414934158,
				0.3934886157512665,
				0.07027240097522736
			],
			"min":[
				-0.11696036159992218,
				0,
				-0.06982716172933578
			],
			"type":"VEC3"
		},
		{
			"bufferView":21,
			"componentType":5126,
			"count":164,
			"type":"VEC3"
		},
		{
			"bufferView":22,
			"componentType":5126,
			"count":164,
			"type":"VEC2"
		},
		{
			"bufferView":23,
			"componentType":5123,
			"count":348,
			"type":"SCALAR"
		},
		{
			"bufferView":24,
			"componentType":5126,
			"count":180,
			"max":[
				0.12776194512844086,
				0.1905696988105774,
				0.12776170670986176
			],
			"min":[
				-0.12776194512844086,
				4.0708800952415913e-07,
				-0.12776218354701996
			],
			"type":"VEC3"
		},
		{
			"bufferView":25,
			"componentType":5126,
			"count":180,
			"type":"VEC3"
		},
		{
			"bufferView":26,
			"componentType":5126,
			"count":180,
			"type":"VEC2"
		},
		{
			"bufferView":27,
			"componentType":5123,
			"count":492,
			"type":"SCALAR"
		},
		{
			"bufferView":28,
			"componentType":5126,
			"count":48,
			"max":[
				0.3198941648006439,
				0.04638653248548508,
				0.11440114676952362
			],
			"min":[
				-0.3198944628238678,
				-1.289110329594223e-08,
				-0.11440220475196838
			],
			"type":"VEC3"
		},
		{
			"bufferView":29,
			"componentType":5126,
			"count":48,
			"type":"VEC3"
		},
		{
			"bufferView":30,
			"componentType":5126,
			"count":48,
			"type":"VEC2"
		},
		{
			"bufferView":31,
			"componentType":5123,
			"count":84,
			"type":"SCALAR"
		},
		{
			"bufferView":32,
			"componentType":5126,
			"count":192,
			"max":[
				0.013273138552904129,
				0.2579318881034851,
				0.013273138552904129
			],
			"min":[
				-0.013273138552904129,
				-0.2579318583011627,
				-0.013273138552904129
			],
			"type":"VEC3"
		},
		{
			"bufferView":33,
			"componentType":5126,
			"count":192,
			"type":"VEC3"
		},
		{
			"bufferView":34,
			"componentType":5126,
			"count":192,
			"type":"VEC2"
		},
		{
			"bufferView":35,
			"componentType":5123,
			"count":498,
			"type":"SCALAR"
		},
		{
			"bufferView":36,
			"componentType":5126,
			"count":198,
			"max":[
				0.10235149413347244,
				0.27442535758018494,
				0.10234091430902481
			],
			"min":[
				-0.1023515835404396,
				2.0983021542519964e-08,
				-0.10236215591430664
			],
			"type":"VEC3"
		},
		{
			"bufferView":37,
			"componentType":5126,
			"count":198,
			"type":"VEC3"
		},
		{
			"bufferView":38,
			"componentType":5126,
			"count":198,
			"type":"VEC2"
		},
		{
			"bufferView":39,
			"componentType":5123,
			"count":564,
			"type":"SCALAR"
		},
		{
			"bufferView":40,
			"componentType":5126,
			"count":174,
			"max":[
				0.10894016921520233,
				0.03479798510670662,
				0.10894016921520233
			],
			"min":[
				-0.10894016921520233,
				-0.030334599316120148,
				-0.10894016921520233
			],
			"type":"VEC3"
		},
		{
			"bufferView":41,
			"componentType":5126,
			"count":174,
			"type":"VEC3"
		},
		{
			"bufferView":42,
			"componentType":5126,
			"count":174,
			"type":"VEC2"
		},
		{
			"bufferView":43,
			"componentType":5123,
			"count":420,
			"type":"SCALAR"
		},
		{
			"bufferView":44,
			"componentType":5126,
			"count":422,
			"max":[
				0.08926552534103394,
				0.3331386148929596,
				0.0892653539776802
			],
			"min":[
				-0.08926519006490707,
				2.844263065071573e-07,
				-0.0892653539776802
			],
			"type":"VEC3"
		},
		{
			"bufferView":45,
			"componentType":5126,
			"count":422,
			"type":"VEC3"
		},
		{
			"bufferView":46,
			"componentType":5126,
			"count":422,
			"type":"VEC2"
		},
		{
			"bufferView":47,
			"componentType":5123,
			"count":1416,
			"type":"SCALAR"
		},
		{
			"bufferView":48,
			"componentType":5126,
			"count":492,
			"max":[
				0.09083715826272964,
				0.34047120809555054,
				0.0892653539776802
			],
			"min":[
				-0.13077040016651154,
				2.844263065071573e-07,
				-0.0892653539776802
			],
			"type":"VEC3"
		},
		{
			"bufferView":49,
			"componentType":5126,
			"count":492,
			"type":"VEC3"
		},
		{
			"bufferView":50,
			"componentType":5126,
			"count":492,
			"type":"VEC2"
		},
		{
			"bufferView":51,
			"componentType":5123,
			"count":1308,
			"type":"SCALAR"
		},
		{
			"bufferView":52,
			"componentType":5126,
			"count":322,
			"max":[
				0.08926552534103394,
				0.3354049026966095,
				0.0892653539776802
			],
			"min":[
				-0.08926519006490707,
				2.844263065071573e-07,
				-0.0892653539776802
			],
			"type":"VEC3"
		},
		{
			"bufferView":53,
			"componentType":5126,
			"count":322,
			"type":"VEC3"
		},
		{
			"bufferView":54,
			"componentType":5126,
			"count":322,
			"type":"VEC2"
		},
		{
			"bufferView":55,
			"componentType":5123,
			"count":924,
			"type":"SCALAR"
		},
		{
			"bufferView":56,
			"componentType":5126,
			"count":164,
			"max":[
				0.11696086823940277,
				0.3934886157512665,
				0.07027298957109451
			],
			"min":[
				-0.11696086823940277,
				0,
				-0.06982801854610443
			],
			"type":"VEC3"
		},
		{
			"bufferView":57,
			"componentType":5126,
			"count":164,
			"type":"VEC3"
		},
		{
			"bufferView":58,
			"componentType":5126,
			"count":164,
			"type":"VEC2"
		},
		{
			"bufferView":59,
			"componentType":5123,
			"count":348,
			"type":"SCALAR"
		},
		{
			"bufferView":60,
			"componentType":5126,
			"count":164,
			"max":[
				0.11696087568998337,
				0.3934886157512665,
				0.07027298957109451
			],
			"min":[
				-0.11696087568998337,
				0,
				-0.06982802599668503
			],
			"type":"VEC3"
		},
		{
			"bufferView":61,
			"componentType":5126,
			"count":164,
			"type":"VEC3"
		},
		{
			"bufferView":62,
			"componentType":5126,
			"count":164,
			"type":"VEC2"
		},
		{
			"bufferView":63,
			"componentType":5123,
			"count":348,
			"type":"SCALAR"
		},
		{
			"bufferView":64,
			"componentType":5126,
			"count":164,
			"max":[
				0.1169612780213356,
				0.39348840713500977,
				0.07027298957109451
			],
			"min":[
				-0.11696047335863113,
				-2.1661932692040864e-07,
				-0.06982802599668503
			],
			"type":"VEC3"
		},
		{
			"bufferView":65,
			"componentType":5126,
			"count":164,
			"type":"VEC3"
		},
		{
			"bufferView":66,
			"componentType":5126,
			"count":164,
			"type":"VEC2"
		},
		{
			"bufferView":67,
			"componentType":5123,
			"count":348,
			"type":"SCALAR"
		},
		{
			"bufferView":68,
			"componentType":5126,
			"count":164,
			"max":[
				0.11696087568998337,
				0.39348840713500977,
				0.07027298957109451
			],
			"min":[
				-0.11696087568998337,
				-2.1661932692040864e-07,
				-0.06982802599668503
			],
			"type":"VEC3"
		},
		{
			"bufferView":69,
			"componentType":5126,
			"count":164,
			"type":"VEC3"
		},
		{
			"bufferView":70,
			"componentType":5126,
			"count":164,
			"type":"VEC2"
		},
		{
			"bufferView":71,
			"componentType":5123,
			"count":348,
			"type":"SCALAR"
		},
		{
			"bufferView":72,
			"componentType":5126,
			"count":246,
			"max":[
				0.1952124834060669,
				0.04663892090320587,
				0.1952124834060669
			],
			"min":[
				-0.1952124834060669,
				-9.04224535247522e-08,
				-0.1952124834060669
			],
			"type":"VEC3"
		},
		{
			"bufferView":73,
			"componentType":5126,
			"count":246,
			"type":"VEC3"
		},
		{
			"bufferView":74,
			"componentType":5126,
			"count":246,
			"type":"VEC2"
		},
		{
			"bufferView":75,
			"componentType":5123,
			"count":762,
			"type":"SCALAR"
		},
		{
			"bufferView":76,
			"componentType":5126,
			"count":246,
			"max":[
				0.1952124834060669,
				0.04663892090320587,
				0.1952124834060669
			],
			"min":[
				-0.1952124834060669,
				-9.04224535247522e-08,
				-0.1952124834060669
			],
			"type":"VEC3"
		},
		{
			"bufferView":77,
			"componentType":5126,
			"count":246,
			"type":"VEC3"
		},
		{
			"bufferView":78,
			"componentType":5126,
			"count":246,
			"type":"VEC2"
		},
		{
			"bufferView":79,
			"componentType":5126,
			"count":246,
			"max":[
				0.1952124834060669,
				0.04663892090320587,
				0.1952124834060669
			],
			"min":[
				-0.1952124834060669,
				-9.04224535247522e-08,
				-0.1952124834060669
			],
			"type":"VEC3"
		},
		{
			"bufferView":80,
			"componentType":5126,
			"count":246,
			"type":"VEC3"
		},
		{
			"bufferView":81,
			"componentType":5126,
			"count":246,
			"type":"VEC2"
		},
		{
			"bufferView":82,
			"componentType":5126,
			"count":503,
			"max":[
				0.12104655057191849,
				0.1591583639383316,
				0.11572321504354477
			],
			"min":[
				-0.11985281854867935,
				0.017934707924723625,
				-0.17547276616096497
			],
			"type":"VEC3"
		},
		{
			"bufferView":83,
			"componentType":5126,
			"count":503,
			"type":"VEC3"
		},
		{
			"bufferView":84,
			"componentType":5126,
			"count":503,
			"type":"VEC2"
		},
		{
			"bufferView":85,
			"componentType":5126,
			"count":503,
			"max":[
				0.12104655057191849,
				0.1591583639383316,
				0.11572321504354477
			],
			"min":[
				-0.11985281854867935,
				0.017934707924723625,
				-0.17547276616096497
			],
			"type":"VEC3"
		},
		{
			"bufferView":86,
			"componentType":5126,
			"count":503,
			"type":"VEC3"
		},
		{
			"bufferView":87,
			"componentType":5126,
			"count":503,
			"type":"VEC2"
		},
		{
			"bufferView":88,
			"componentType":5126,
			"count":520,
			"max":[
				0.1204499900341034,
				0.0026477857027202845,
				0.1707543283700943
			],
			"min":[
				-0.12044937908649445,
				-0.138575941324234,
				-0.12044163793325424
			],
			"type":"VEC3"
		},
		{
			"bufferView":89,
			"componentType":5126,
			"count":520,
			"type":"VEC3"
		},
		{
			"bufferView":90,
			"componentType":5126,
			"count":520,
			"type":"VEC2"
		},
		{
			"bufferView":91,
			"componentType":5123,
			"count":1704,
			"type":"SCALAR"
		},
		{
			"bufferView":92,
			"componentType":5126,
			"count":522,
			"max":[
				0.1204499900341034,
				0.0026477857027202845,
				0.1707543283700943
			],
			"min":[
				-0.12044937908649445,
				-0.138575941324234,
				-0.12044163793325424
			],
			"type":"VEC3"
		},
		{
			"bufferView":93,
			"componentType":5126,
			"count":522,
			"type":"VEC3"
		},
		{
			"bufferView":94,
			"componentType":5126,
			"count":522,
			"type":"VEC2"
		},
		{
			"bufferView":95,
			"componentType":5123,
			"count":1704,
			"type":"SCALAR"
		},
		{
			"bufferView":96,
			"componentType":5126,
			"count":1566,
			"max":[
				0.1354520171880722,
				0.3008880913257599,
				0.1670837253332138
			],
			"min":[
				-0.12044984847307205,
				-5.186599238982126e-08,
				-0.1707531064748764
			],
			"type":"VEC3"
		},
		{
			"bufferView":97,
			"componentType":5126,
			"count":1566,
			"type":"VEC3"
		},
		{
			"bufferView":98,
			"componentType":5126,
			"count":1566,
			"type":"VEC2"
		},
		{
			"bufferView":99,
			"componentType":5123,
			"count":5112,
			"type":"SCALAR"
		},
		{
			"bufferView":100,
			"componentType":5126,
			"count":1566,
			"max":[
				0.13545279204845428,
				0.30088821053504944,
				0.16708354651927948
			],
			"min":[
				-0.12044931203126907,
				1.5366822481155396e-08,
				-0.17075315117835999
			],
			"type":"VEC3"
		},
		{
			"bufferView":101,
			"componentType":5126,
			"count":1566,
			"type":"VEC3"
		},
		{
			"bufferView":102,
			"componentType":5126,
			"count":1566,
			"type":"VEC2"
		},
		{
			"bufferView":103,
			"componentType":5123,
			"count":5112,
			"type":"SCALAR"
		},
		{
			"bufferView":104,
			"componentType":5126,
			"count":1566,
			"max":[
				0.13545216619968414,
				0.3008880913257599,
				0.16708405315876007
			],
			"min":[
				-0.12044969201087952,
				-3.768217027300125e-08,
				-0.17075276374816895
			],
			"type":"VEC3"
		},
		{
			"bufferView":105,
			"componentType":5126,
			"count":1566,
			"type":"VEC3"
		},
		{
			"bufferView":106,
			"componentType":5126,
			"count":1566,
			"type":"VEC2"
		},
		{
			"bufferView":107,
			"componentType":5123,
			"count":5112,
			"type":"SCALAR"
		},
		{
			"bufferView":108,
			"componentType":5126,
			"count":200,
			"max":[
				0.12473933398723602,
				0.18931695818901062,
				0.11832476407289505
			],
			"min":[
				-0.12473965436220169,
				-0.0003453196841292083,
				-0.11819449067115784
			],
			"type":"VEC3"
		},
		{
			"bufferView":109,
			"componentType":5126,
			"count":200,
			"type":"VEC3"
		},
		{
			"bufferView":110,
			"componentType":5126,
			"count":200,
			"type":"VEC2"
		},
		{
			"bufferView":111,
			"componentType":5123,
			"count":990,
			"type":"SCALAR"
		},
		{
			"bufferView":112,
			"componentType":5126,
			"count":198,
			"max":[
				0.10235219448804855,
				0.2744251489639282,
				0.1023513525724411
			],
			"min":[
				-0.1023508831858635,
				-2.0527234312339715e-07,
				-0.10235171020030975
			],
			"type":"VEC3"
		},
		{
			"bufferView":113,
			"componentType":5126,
			"count":198,
			"type":"VEC3"
		},
		{
			"bufferView":114,
			"componentType":5126,
			"count":198,
			"type":"VEC2"
		},
		{
			"bufferView":115,
			"componentType":5123,
			"count":564,
			"type":"SCALAR"
		},
		{
			"bufferView":116,
			"componentType":5126,
			"count":594,
			"max":[
				0.10235129296779633,
				0.4149230718612671,
				0.10661038756370544
			],
			"min":[
				-0.10585734993219376,
				-0.0015356752555817366,
				-0.10235162824392319
			],
			"type":"VEC3"
		},
		{
			"bufferView":117,
			"componentType":5126,
			"count":594,
			"type":"VEC3"
		},
		{
			"bufferView":118,
			"componentType":5126,
			"count":594,
			"type":"VEC2"
		},
		{
			"bufferView":119,
			"componentType":5123,
			"count":1692,
			"type":"SCALAR"
		},
		{
			"bufferView":120,
			"componentType":5126,
			"count":672,
			"max":[
				0.11153433471918106,
				0.2177271693944931,
				0.11219717562198639
			],
			"min":[
				-0.11796288937330246,
				1.543853471730472e-07,
				-0.10903525352478027
			],
			"type":"VEC3"
		},
		{
			"bufferView":121,
			"componentType":5126,
			"count":672,
			"type":"VEC3"
		},
		{
			"bufferView":122,
			"componentType":5126,
			"count":672,
			"type":"VEC2"
		},
		{
			"bufferView":123,
			"componentType":5123,
			"count":1680,
			"type":"SCALAR"
		},
		{
			"bufferView":124,
			"componentType":5126,
			"count":2483,
			"max":[
				0.2975049614906311,
				0.5601783990859985,
				0.4610127806663513
			],
			"min":[
				-0.2491990476846695,
				-0.5309165716171265,
				-0.17348778247833252
			],
			"type":"VEC3"
		},
		{
			"bufferView":125,
			"componentType":5126,
			"count":2483,
			"type":"VEC3"
		},
		{
			"bufferView":126,
			"componentType":5126,
			"count":2483,
			"type":"VEC2"
		},
		{
			"bufferView":127,
			"componentType":5123,
			"count":6348,
			"type":"SCALAR"
		},
		{
			"bufferView":128,
			"componentType":5126,
			"count":594,
			"max":[
				0.10235149413347244,
				0.40544822812080383,
				0.10234091430902481
			],
			"min":[
				-0.10740069299936295,
				2.0983021542519964e-08,
				-0.10542590916156769
			],
			"type":"VEC3"
		},
		{
			"bufferView":129,
			"componentType":5126,
			"count":594,
			"type":"VEC3"
		},
		{
			"bufferView":130,
			"componentType":5126,
			"count":594,
			"type":"VEC2"
		},
		{
			"bufferView":131,
			"componentType":5123,
			"count":1692,
			"type":"SCALAR"
		},
		{
			"bufferView":132,
			"componentType":5126,
			"count":519,
			"max":[
				0.12104655057191849,
				0.1591583639383316,
				0.11572321504354477
			],
			"min":[
				-0.11985281854867935,
				0.017934707924723625,
				-0.17547276616096497
			],
			"type":"VEC3"
		},
		{
			"bufferView":133,
			"componentType":5126,
			"count":519,
			"type":"VEC3"
		},
		{
			"bufferView":134,
			"componentType":5126,
			"count":519,
			"type":"VEC2"
		},
		{
			"bufferView":135,
			"componentType":5123,
			"count":1746,
			"type":"SCALAR"
		},
		{
			"bufferView":136,
			"componentType":5126,
			"count":519,
			"max":[
				0.12104655057191849,
				0.1591583639383316,
				0.11572321504354477
			],
			"min":[
				-0.11985281854867935,
				0.017934707924723625,
				-0.17547276616096497
			],
			"type":"VEC3"
		},
		{
			"bufferView":137,
			"componentType":5126,
			"count":519,
			"type":"VEC3"
		},
		{
			"bufferView":138,
			"componentType":5126,
			"count":519,
			"type":"VEC2"
		},
		{
			"bufferView":139,
			"componentType":5126,
			"count":519,
			"max":[
				0.12104655057191849,
				0.1591583639383316,
				0.11572321504354477
			],
			"min":[
				-0.11985281854867935,
				0.017934707924723625,
				-0.17547276616096497
			],
			"type":"VEC3"
		},
		{
			"bufferView":140,
			"componentType":5126,
			"count":519,
			"type":"VEC3"
		},
		{
			"bufferView":141,
			"componentType":5126,
			"count":519,
			"type":"VEC2"
		},
		{
			"bufferView":142,
			"componentType":5126,
			"count":522,
			"max":[
				0.1204499900341034,
				0.0026477857027202845,
				0.1707543283700943
			],
			"min":[
				-0.12044937908649445,
				-0.138575941324234,
				-0.12044163793325424
			],
			"type":"VEC3"
		},
		{
			"bufferView":143,
			"componentType":5126,
			"count":522,
			"type":"VEC3"
		},
		{
			"bufferView":144,
			"componentType":5126,
			"count":522,
			"type":"VEC2"
		},
		{
			"bufferView":145,
			"componentType":5126,
			"count":272,
			"max":[
				0.29529666900634766,
				0.13686774671077728,
				0.295297235250473
			],
			"min":[
				-0.2952978014945984,
				1.0151283902359864e-07,
				-0.295297235250473
			],
			"type":"VEC3"
		},
		{
			"bufferView":146,
			"componentType":5126,
			"count":272,
			"type":"VEC3"
		},
		{
			"bufferView":147,
			"componentType":5126,
			"count":272,
			"type":"VEC2"
		},
		{
			"bufferView":148,
			"componentType":5123,
			"count":756,
			"type":"SCALAR"
		},
		{
			"bufferView":149,
			"componentType":5126,
			"count":324,
			"max":[
				0.2993052303791046,
				0.4898340702056885,
				0.10704241693019867
			],
			"min":[
				-0.2935643196105957,
				3.584022488212213e-05,
				-0.08504997938871384
			],
			"type":"VEC3"
		},
		{
			"bufferView":150,
			"componentType":5126,
			"count":324,
			"type":"VEC3"
		},
		{
			"bufferView":151,
			"componentType":5126,
			"count":324,
			"type":"VEC2"
		},
		{
			"bufferView":152,
			"componentType":5126,
			"count":324,
			"max":[
				0.2993052303791046,
				0.4898340702056885,
				0.10704241693019867
			],
			"min":[
				-0.2935643196105957,
				3.584022488212213e-05,
				-0.08504997938871384
			],
			"type":"VEC3"
		},
		{
			"bufferView":153,
			"componentType":5126,
			"count":324,
			"type":"VEC3"
		},
		{
			"bufferView":154,
			"componentType":5126,
			"count":324,
			"type":"VEC2"
		},
		{
			"bufferView":155,
			"componentType":5126,
			"count":324,
			"max":[
				0.2993052303791046,
				0.4898340702056885,
				0.10704241693019867
			],
			"min":[
				-0.2935643196105957,
				3.584022488212213e-05,
				-0.08504997938871384
			],
			"type":"VEC3"
		},
		{
			"bufferView":156,
			"componentType":5126,
			"count":324,
			"type":"VEC3"
		},
		{
			"bufferView":157,
			"componentType":5126,
			"count":324,
			"type":"VEC2"
		},
		{
			"bufferView":158,
			"componentType":5126,
			"count":324,
			"max":[
				0.2993052303791046,
				0.4898340702056885,
				0.10704241693019867
			],
			"min":[
				-0.2935643196105957,
				3.584022488212213e-05,
				-0.08504997938871384
			],
			"type":"VEC3"
		},
		{
			"bufferView":159,
			"componentType":5126,
			"count":324,
			"type":"VEC3"
		},
		{
			"bufferView":160,
			"componentType":5126,
			"count":324,
			"type":"VEC2"
		},
		{
			"bufferView":161,
			"componentType":5126,
			"count":48,
			"max":[
				0.21627680957317352,
				0.046386510133743286,
				0.16098922491073608
			],
			"min":[
				-0.21627680957317352,
				-3.166496753692627e-08,
				-0.1609892100095749
			],
			"type":"VEC3"
		},
		{
			"bufferView":162,
			"componentType":5126,
			"count":48,
			"type":"VEC3"
		},
		{
			"bufferView":163,
			"componentType":5126,
			"count":48,
			"type":"VEC2"
		},
		{
			"bufferView":164,
			"componentType":5123,
			"count":84,
			"type":"SCALAR"
		},
		{
			"bufferView":165,
			"componentType":5126,
			"count":2804,
			"max":[
				0.06472703814506531,
				0.08589205145835876,
				0.27378740906715393
			],
			"min":[
				-0.054580897092819214,
				-1.2020742623519709e-08,
				-0.263480007648468
			],
			"type":"VEC3"
		},
		{
			"bufferView":166,
			"componentType":5126,
			"count":2804,
			"type":"VEC3"
		},
		{
			"bufferView":167,
			"componentType":5126,
			"count":2804,
			"type":"VEC2"
		},
		{
			"bufferView":168,
			"componentType":5123,
			"count":5160,
			"type":"SCALAR"
		},
		{
			"bufferView":169,
			"componentType":5126,
			"count":448,
			"max":[
				0.10694620758295059,
				0.29542428255081177,
				0.10694058984518051
			],
			"min":[
				-0.10694672167301178,
				-2.14201250514634e-07,
				-0.10694961994886398
			],
			"type":"VEC3"
		},
		{
			"bufferView":170,
			"componentType":5126,
			"count":448,
			"type":"VEC3"
		},
		{
			"bufferView":171,
			"componentType":5126,
			"count":448,
			"type":"VEC2"
		},
		{
			"bufferView":172,
			"componentType":5123,
			"count":1896,
			"type":"SCALAR"
		},
		{
			"bufferView":173,
			"componentType":5126,
			"count":448,
			"max":[
				0.10694620758295059,
				0.29542428255081177,
				0.10694058984518051
			],
			"min":[
				-0.10694672167301178,
				-2.14201250514634e-07,
				-0.10694961994886398
			],
			"type":"VEC3"
		},
		{
			"bufferView":174,
			"componentType":5126,
			"count":448,
			"type":"VEC3"
		},
		{
			"bufferView":175,
			"componentType":5126,
			"count":448,
			"type":"VEC2"
		},
		{
			"bufferView":176,
			"componentType":5126,
			"count":448,
			"max":[
				0.10694620758295059,
				0.29542428255081177,
				0.10694058984518051
			],
			"min":[
				-0.10694672167301178,
				-2.14201250514634e-07,
				-0.10694961994886398
			],
			"type":"VEC3"
		},
		{
			"bufferView":177,
			"componentType":5126,
			"count":448,
			"type":"VEC3"
		},
		{
			"bufferView":178,
			"componentType":5126,
			"count":448,
			"type":"VEC2"
		},
		{
			"bufferView":179,
			"componentType":5126,
			"count":202,
			"max":[
				0.363964706659317,
				0.384472519159317,
				0.21004877984523773
			],
			"min":[
				-0.3639647960662842,
				0,
				-0.21004898846149445
			],
			"type":"VEC3"
		},
		{
			"bufferView":180,
			"componentType":5126,
			"count":202,
			"type":"VEC3"
		},
		{
			"bufferView":181,
			"componentType":5126,
			"count":202,
			"type":"VEC2"
		},
		{
			"bufferView":182,
			"componentType":5123,
			"count":510,
			"type":"SCALAR"
		},
		{
			"bufferView":183,
			"componentType":5126,
			"count":132,
			"max":[
				0.35491979122161865,
				0.38120442628860474,
				0.20698300004005432
			],
			"min":[
				-0.3532693684101105,
				0.016371363773941994,
				-0.19892537593841553
			],
			"type":"VEC3"
		},
		{
			"bufferView":184,
			"componentType":5126,
			"count":132,
			"type":"VEC3"
		},
		{
			"bufferView":185,
			"componentType":5126,
			"count":132,
			"type":"VEC2"
		},
		{
			"bufferView":186,
			"componentType":5123,
			"count":318,
			"type":"SCALAR"
		},
		{
			"bufferView":187,
			"componentType":5126,
			"count":202,
			"max":[
				0.363964706659317,
				0.384472519159317,
				0.21004877984523773
			],
			"min":[
				-0.3639647960662842,
				0,
				-0.21004898846149445
			],
			"type":"VEC3"
		},
		{
			"bufferView":188,
			"componentType":5126,
			"count":202,
			"type":"VEC3"
		},
		{
			"bufferView":189,
			"componentType":5126,
			"count":202,
			"type":"VEC2"
		},
		{
			"bufferView":190,
			"componentType":5126,
			"count":132,
			"max":[
				0.35491979122161865,
				0.38120442628860474,
				0.20698300004005432
			],
			"min":[
				-0.3532693684101105,
				0.016371363773941994,
				-0.19892537593841553
			],
			"type":"VEC3"
		},
		{
			"bufferView":191,
			"componentType":5126,
			"count":132,
			"type":"VEC3"
		},
		{
			"bufferView":192,
			"componentType":5126,
			"count":132,
			"type":"VEC2"
		},
		{
			"bufferView":193,
			"componentType":5126,
			"count":48,
			"max":[
				0.21627680957317352,
				0.046386510133743286,
				0.16098922491073608
			],
			"min":[
				-0.21627680957317352,
				-3.166496753692627e-08,
				-0.1609892100095749
			],
			"type":"VEC3"
		},
		{
			"bufferView":194,
			"componentType":5126,
			"count":48,
			"type":"VEC3"
		},
		{
			"bufferView":195,
			"componentType":5126,
			"count":48,
			"type":"VEC2"
		},
		{
			"bufferView":196,
			"componentType":5126,
			"count":599,
			"max":[
				0.10649014264345169,
				0.37748900055885315,
				0.10649030655622482
			],
			"min":[
				-0.10648959875106812,
				-0.0012798572424799204,
				-0.10648943483829498
			],
			"type":"VEC3"
		},
		{
			"bufferView":197,
			"componentType":5126,
			"count":599,
			"type":"VEC3"
		},
		{
			"bufferView":198,
			"componentType":5126,
			"count":599,
			"type":"VEC2"
		},
		{
			"bufferView":199,
			"componentType":5123,
			"count":1404,
			"type":"SCALAR"
		},
		{
			"bufferView":200,
			"componentType":5126,
			"count":198,
			"max":[
				0.10235149413347244,
				0.27442535758018494,
				0.10234091430902481
			],
			"min":[
				-0.1023515835404396,
				2.0983021542519964e-08,
				-0.10236215591430664
			],
			"type":"VEC3"
		},
		{
			"bufferView":201,
			"componentType":5126,
			"count":198,
			"type":"VEC3"
		},
		{
			"bufferView":202,
			"componentType":5126,
			"count":198,
			"type":"VEC2"
		},
		{
			"bufferView":203,
			"componentType":5126,
			"count":198,
			"max":[
				0.10235219448804855,
				0.2744251489639282,
				0.1023513525724411
			],
			"min":[
				-0.1023508831858635,
				-2.0527234312339715e-07,
				-0.10235171020030975
			],
			"type":"VEC3"
		},
		{
			"bufferView":204,
			"componentType":5126,
			"count":198,
			"type":"VEC3"
		},
		{
			"bufferView":205,
			"componentType":5126,
			"count":198,
			"type":"VEC2"
		},
		{
			"bufferView":206,
			"componentType":5126,
			"count":174,
			"max":[
				0.10894016921520233,
				0.03479798510670662,
				0.10894016921520233
			],
			"min":[
				-0.10894016921520233,
				-0.030334599316120148,
				-0.10894016921520233
			],
			"type":"VEC3"
		},
		{
			"bufferView":207,
			"componentType":5126,
			"count":174,
			"type":"VEC3"
		},
		{
			"bufferView":208,
			"componentType":5126,
			"count":174,
			"type":"VEC2"
		},
		{
			"bufferView":209,
			"componentType":5126,
			"count":164,
			"max":[
				0.11696086823940277,
				0.3934886157512665,
				0.07027298957109451
			],
			"min":[
				-0.11696086823940277,
				0,
				-0.06982801854610443
			],
			"type":"VEC3"
		},
		{
			"bufferView":210,
			"componentType":5126,
			"count":164,
			"type":"VEC3"
		},
		{
			"bufferView":211,
			"componentType":5126,
			"count":164,
			"type":"VEC2"
		},
		{
			"bufferView":212,
			"componentType":5123,
			"count":348,
			"type":"SCALAR"
		},
		{
			"bufferView":213,
			"componentType":5126,
			"count":968,
			"max":[
				0.13471849262714386,
				0.5975421071052551,
				0.12779076397418976
			],
			"min":[
				-0.13471883535385132,
				4.4699966395000956e-08,
				-0.12765006721019745
			],
			"type":"VEC3"
		},
		{
			"bufferView":214,
			"componentType":5126,
			"count":968,
			"type":"VEC3"
		},
		{
			"bufferView":215,
			"componentType":5126,
			"count":968,
			"type":"VEC2"
		},
		{
			"bufferView":216,
			"componentType":5123,
			"count":2892,
			"type":"SCALAR"
		},
		{
			"bufferView":217,
			"componentType":5126,
			"count":968,
			"max":[
				0.13471849262714386,
				0.5975421071052551,
				0.12779076397418976
			],
			"min":[
				-0.13471883535385132,
				4.4699966395000956e-08,
				-0.12765006721019745
			],
			"type":"VEC3"
		},
		{
			"bufferView":218,
			"componentType":5126,
			"count":968,
			"type":"VEC3"
		},
		{
			"bufferView":219,
			"componentType":5126,
			"count":968,
			"type":"VEC2"
		},
		{
			"bufferView":220,
			"componentType":5126,
			"count":968,
			"max":[
				0.13471849262714386,
				0.5975421071052551,
				0.12779076397418976
			],
			"min":[
				-0.13471883535385132,
				4.4699966395000956e-08,
				-0.12765006721019745
			],
			"type":"VEC3"
		},
		{
			"bufferView":221,
			"componentType":5126,
			"count":968,
			"type":"VEC3"
		},
		{
			"bufferView":222,
			"componentType":5126,
			"count":968,
			"type":"VEC2"
		},
		{
			"bufferView":223,
			"componentType":5126,
			"count":599,
			"max":[
				0.10648972541093826,
				0.3787689208984375,
				0.10649030655622482
			],
			"min":[
				-0.10649001598358154,
				-4.937805719862354e-09,
				-0.10648943483829498
			],
			"type":"VEC3"
		},
		{
			"bufferView":224,
			"componentType":5126,
			"count":599,
			"type":"VEC3"
		},
		{
			"bufferView":225,
			"componentType":5126,
			"count":599,
			"type":"VEC2"
		},
		{
			"bufferView":226,
			"componentType":5123,
			"count":1404,
			"type":"SCALAR"
		},
		{
			"bufferView":227,
			"componentType":5126,
			"count":345,
			"max":[
				0.07409129291772842,
				5.593763674482943e-09,
				0.23769891262054443
			],
			"min":[
				-0.07409128546714783,
				-0.07225780934095383,
				-0.07409095019102097
			],
			"type":"VEC3"
		},
		{
			"bufferView":228,
			"componentType":5126,
			"count":345,
			"type":"VEC3"
		},
		{
			"bufferView":229,
			"componentType":5126,
			"count":345,
			"type":"VEC2"
		},
		{
			"bufferView":230,
			"componentType":5123,
			"count":1098,
			"type":"SCALAR"
		},
		{
			"bufferView":231,
			"componentType":5126,
			"count":345,
			"max":[
				0.07409129291772842,
				5.593763674482943e-09,
				0.23769891262054443
			],
			"min":[
				-0.07409128546714783,
				-0.07225780934095383,
				-0.07409095019102097
			],
			"type":"VEC3"
		},
		{
			"bufferView":232,
			"componentType":5126,
			"count":345,
			"type":"VEC3"
		},
		{
			"bufferView":233,
			"componentType":5126,
			"count":345,
			"type":"VEC2"
		},
		{
			"bufferView":234,
			"componentType":5126,
			"count":696,
			"max":[
				0.36898666620254517,
				0.4808419644832611,
				0.22488896548748016
			],
			"min":[
				-0.36898666620254517,
				-0.001466807909309864,
				-0.18564797937870026
			],
			"type":"VEC3"
		},
		{
			"bufferView":235,
			"componentType":5126,
			"count":696,
			"type":"VEC3"
		},
		{
			"bufferView":236,
			"componentType":5126,
			"count":696,
			"type":"VEC2"
		},
		{
			"bufferView":237,
			"componentType":5123,
			"count":1500,
			"type":"SCALAR"
		}
	],
	"bufferViews":[
		{
			"buffer":0,
			"byteLength":3888,
			"byteOffset":0,
			"target":34962
		},
		{
			"buffer":0,
			"byteLength":3888,
			"byteOffset":3888,
			"target":34962
		},
		{
			"buffer":0,
			"byteLength":2592,
			"byteOffset":7776,
			"target":34962
		},
		{
			"buffer":0,
			"byteLength":1692,
			"byteOffset":10368,
			"target":34963
		},
		{
			"buffer":0,
			"byteLength":3264,
			"byteOffset":12060,
			"target":34962
		},
		{
			"buffer":0,
			"byteLength":3264,
			"byteOffset":15324,
			"target":34962
		},
		{
			"buffer":0,
			"byteLength":2176,
			"byteOffset":18588,
			"target":34962
		},
		{
			"buffer":0,
			"byteLength":1512,
			"byteOffset":20764,
			"target":34963
		},
		{
			"buffer":0,
			"byteLength":5580,
			"byteOffset":22276,
			"target":34962
		},
		{
			"buffer":0,
			"byteLength":5580,
			"byteOffset":27856,
			"target":34962
		},
		{
			"buffer":0,
			"byteLength":3720,
			"byteOffset":33436,
			"target":34962
		},
		{
			"buffer":0,
			"byteLength":3840,
			"byteOffset":37156,
			"target":34963
		},
		{
			"buffer":0,
			"byteLength":5556,
			"byteOffset":40996,
			"target":34962
		},
		{
			"buffer":0,
			"byteLength":5556,
			"byteOffset":46552,
			"target":34962
		},
		{
			"buffer":0,
			"byteLength":3704,
			"byteOffset":52108,
			"target":34962
		},
		{
			"buffer":0,
			"byteLength":3792,
			"byteOffset":55812,
			"target":34963
		},
		{
			"buffer":0,
			"byteLength":6036,
			"byteOffset":59604,
			"target":34962
		},
		{
			"buffer":0,
			"byteLength":6036,
			"byteOffset":65640,
			"target":34962
		},
		{
			"buffer":0,
			"byteLength":4024,
			"byteOffset":71676,
			"target":34962
		},
		{
			"buffer":0,
			"byteLength":3408,
			"byteOffset":75700,
			"target":34963
		},
		{
			"buffer":0,
			"byteLength":1968,
			"byteOffset":79108,
			"target":34962
		},
		{
			"buffer":0,
			"byteLength":1968,
			"byteOffset":81076,
			"target":34962
		},
		{
			"buffer":0,
			"byteLength":1312,
			"byteOffset":83044,
			"target":34962
		},
		{
			"buffer":0,
			"byteLength":696,
			"byteOffset":84356,
			"target":34963
		},
		{
			"buffer":0,
			"byteLength":2160,
			"byteOffset":85052,
			"target":34962
		},
		{
			"buffer":0,
			"byteLength":2160,
			"byteOffset":87212,
			"target":34962
		},
		{
			"buffer":0,
			"byteLength":1440,
			"byteOffset":89372,
			"target":34962
		},
		{
			"buffer":0,
			"byteLength":984,
			"byteOffset":90812,
			"target":34963
		},
		{
			"buffer":0,
			"byteLength":576,
			"byteOffset":91796,
			"target":34962
		},
		{
			"buffer":0,
			"byteLength":576,
			"byteOffset":92372,
			"target":34962
		},
		{
			"buffer":0,
			"byteLength":384,
			"byteOffset":92948,
			"target":34962
		},
		{
			"buffer":0,
			"byteLength":168,
			"byteOffset":93332,
			"target":34963
		},
		{
			"buffer":0,
			"byteLength":2304,
			"byteOffset":93500,
			"target":34962
		},
		{
			"buffer":0,
			"byteLength":2304,
			"byteOffset":95804,
			"target":34962
		},
		{
			"buffer":0,
			"byteLength":1536,
			"byteOffset":98108,
			"target":34962
		},
		{
			"buffer":0,
			"byteLength":996,
			"byteOffset":99644,
			"target":34963
		},
		{
			"buffer":0,
			"byteLength":2376,
			"byteOffset":100640,
			"target":34962
		},
		{
			"buffer":0,
			"byteLength":2376,
			"byteOffset":103016,
			"target":34962
		},
		{
			"buffer":0,
			"byteLength":1584,
			"byteOffset":105392,
			"target":34962
		},
		{
			"buffer":0,
			"byteLength":1128,
			"byteOffset":106976,
			"target":34963
		},
		{
			"buffer":0,
			"byteLength":2088,
			"byteOffset":108104,
			"target":34962
		},
		{
			"buffer":0,
			"byteLength":2088,
			"byteOffset":110192,
			"target":34962
		},
		{
			"buffer":0,
			"byteLength":1392,
			"byteOffset":112280,
			"target":34962
		},
		{
			"buffer":0,
			"byteLength":840,
			"byteOffset":113672,
			"target":34963
		},
		{
			"buffer":0,
			"byteLength":5064,
			"byteOffset":114512,
			"target":34962
		},
		{
			"buffer":0,
			"byteLength":5064,
			"byteOffset":119576,
			"target":34962
		},
		{
			"buffer":0,
			"byteLength":3376,
			"byteOffset":124640,
			"target":34962
		},
		{
			"buffer":0,
			"byteLength":2832,
			"byteOffset":128016,
			"target":34963
		},
		{
			"buffer":0,
			"byteLength":5904,
			"byteOffset":130848,
			"target":34962
		},
		{
			"buffer":0,
			"byteLength":5904,
			"byteOffset":136752,
			"target":34962
		},
		{
			"buffer":0,
			"byteLength":3936,
			"byteOffset":142656,
			"target":34962
		},
		{
			"buffer":0,
			"byteLength":2616,
			"byteOffset":146592,
			"target":34963
		},
		{
			"buffer":0,
			"byteLength":3864,
			"byteOffset":149208,
			"target":34962
		},
		{
			"buffer":0,
			"byteLength":3864,
			"byteOffset":153072,
			"target":34962
		},
		{
			"buffer":0,
			"byteLength":2576,
			"byteOffset":156936,
			"target":34962
		},
		{
			"buffer":0,
			"byteLength":1848,
			"byteOffset":159512,
			"target":34963
		},
		{
			"buffer":0,
			"byteLength":1968,
			"byteOffset":161360,
			"target":34962
		},
		{
			"buffer":0,
			"byteLength":1968,
			"byteOffset":163328,
			"target":34962
		},
		{
			"buffer":0,
			"byteLength":1312,
			"byteOffset":165296,
			"target":34962
		},
		{
			"buffer":0,
			"byteLength":696,
			"byteOffset":166608,
			"target":34963
		},
		{
			"buffer":0,
			"byteLength":1968,
			"byteOffset":167304,
			"target":34962
		},
		{
			"buffer":0,
			"byteLength":1968,
			"byteOffset":169272,
			"target":34962
		},
		{
			"buffer":0,
			"byteLength":1312,
			"byteOffset":171240,
			"target":34962
		},
		{
			"buffer":0,
			"byteLength":696,
			"byteOffset":172552,
			"target":34963
		},
		{
			"buffer":0,
			"byteLength":1968,
			"byteOffset":173248,
			"target":34962
		},
		{
			"buffer":0,
			"byteLength":1968,
			"byteOffset":175216,
			"target":34962
		},
		{
			"buffer":0,
			"byteLength":1312,
			"byteOffset":177184,
			"target":34962
		},
		{
			"buffer":0,
			"byteLength":696,
			"byteOffset":178496,
			"target":34963
		},
		{
			"buffer":0,
			"byteLength":1968,
			"byteOffset":179192,
			"target":34962
		},
		{
			"buffer":0,
			"byteLength":1968,
			"byteOffset":181160,
			"target":34962
		},
		{
			"buffer":0,
			"byteLength":1312,
			"byteOffset":183128,
			"target":34962
		},
		{
			"buffer":0,
			"byteLength":696,
			"byteOffset":184440,
			"target":34963
		},
		{
			"buffer":0,
			"byteLength":2952,
			"byteOffset":185136,
			"target":34962
		},
		{
			"buffer":0,
			"byteLength":2952,
			"byteOffset":188088,
			"target":34962
		},
		{
			"buffer":0,
			"byteLength":1968,
			"byteOffset":191040,
			"target":34962
		},
		{
			"buffer":0,
			"byteLength":1524,
			"byteOffset":193008,
			"target":34963
		},
		{
			"buffer":0,
			"byteLength":2952,
			"byteOffset":194532,
			"target":34962
		},
		{
			"buffer":0,
			"byteLength":2952,
			"byteOffset":197484,
			"target":34962
		},
		{
			"buffer":0,
			"byteLength":1968,
			"byteOffset":200436,
			"target":34962
		},
		{
			"buffer":0,
			"byteLength":2952,
			"byteOffset":202404,
			"target":34962
		},
		{
			"buffer":0,
			"byteLength":2952,
			"byteOffset":205356,
			"target":34962
		},
		{
			"buffer":0,
			"byteLength":1968,
			"byteOffset":208308,
			"target":34962
		},
		{
			"buffer":0,
			"byteLength":6036,
			"byteOffset":210276,
			"target":34962
		},
		{
			"buffer":0,
			"byteLength":6036,
			"byteOffset":216312,
			"target":34962
		},
		{
			"buffer":0,
			"byteLength":4024,
			"byteOffset":222348,
			"target":34962
		},
		{
			"buffer":0,
			"byteLength":6036,
			"byteOffset":226372,
			"target":34962
		},
		{
			"buffer":0,
			"byteLength":6036,
			"byteOffset":232408,
			"target":34962
		},
		{
			"buffer":0,
			"byteLength":4024,
			"byteOffset":238444,
			"target":34962
		},
		{
			"buffer":0,
			"byteLength":6240,
			"byteOffset":242468,
			"target":34962
		},
		{
			"buffer":0,
			"byteLength":6240,
			"byteOffset":248708,
			"target":34962
		},
		{
			"buffer":0,
			"byteLength":4160,
			"byteOffset":254948,
			"target":34962
		},
		{
			"buffer":0,
			"byteLength":3408,
			"byteOffset":259108,
			"target":34963
		},
		{
			"buffer":0,
			"byteLength":6264,
			"byteOffset":262516,
			"target":34962
		},
		{
			"buffer":0,
			"byteLength":6264,
			"byteOffset":268780,
			"target":34962
		},
		{
			"buffer":0,
			"byteLength":4176,
			"byteOffset":275044,
			"target":34962
		},
		{
			"buffer":0,
			"byteLength":3408,
			"byteOffset":279220,
			"target":34963
		},
		{
			"buffer":0,
			"byteLength":18792,
			"byteOffset":282628,
			"target":34962
		},
		{
			"buffer":0,
			"byteLength":18792,
			"byteOffset":301420,
			"target":34962
		},
		{
			"buffer":0,
			"byteLength":12528,
			"byteOffset":320212,
			"target":34962
		},
		{
			"buffer":0,
			"byteLength":10224,
			"byteOffset":332740,
			"target":34963
		},
		{
			"buffer":0,
			"byteLength":18792,
			"byteOffset":342964,
			"target":34962
		},
		{
			"buffer":0,
			"byteLength":18792,
			"byteOffset":361756,
			"target":34962
		},
		{
			"buffer":0,
			"byteLength":12528,
			"byteOffset":380548,
			"target":34962
		},
		{
			"buffer":0,
			"byteLength":10224,
			"byteOffset":393076,
			"target":34963
		},
		{
			"buffer":0,
			"byteLength":18792,
			"byteOffset":403300,
			"target":34962
		},
		{
			"buffer":0,
			"byteLength":18792,
			"byteOffset":422092,
			"target":34962
		},
		{
			"buffer":0,
			"byteLength":12528,
			"byteOffset":440884,
			"target":34962
		},
		{
			"buffer":0,
			"byteLength":10224,
			"byteOffset":453412,
			"target":34963
		},
		{
			"buffer":0,
			"byteLength":2400,
			"byteOffset":463636,
			"target":34962
		},
		{
			"buffer":0,
			"byteLength":2400,
			"byteOffset":466036,
			"target":34962
		},
		{
			"buffer":0,
			"byteLength":1600,
			"byteOffset":468436,
			"target":34962
		},
		{
			"buffer":0,
			"byteLength":1980,
			"byteOffset":470036,
			"target":34963
		},
		{
			"buffer":0,
			"byteLength":2376,
			"byteOffset":472016,
			"target":34962
		},
		{
			"buffer":0,
			"byteLength":2376,
			"byteOffset":474392,
			"target":34962
		},
		{
			"buffer":0,
			"byteLength":1584,
			"byteOffset":476768,
			"target":34962
		},
		{
			"buffer":0,
			"byteLength":1128,
			"byteOffset":478352,
			"target":34963
		},
		{
			"buffer":0,
			"byteLength":7128,
			"byteOffset":479480,
			"target":34962
		},
		{
			"buffer":0,
			"byteLength":7128,
			"byteOffset":486608,
			"target":34962
		},
		{
			"buffer":0,
			"byteLength":4752,
			"byteOffset":493736,
			"target":34962
		},
		{
			"buffer":0,
			"byteLength":3384,
			"byteOffset":498488,
			"target":34963
		},
		{
			"buffer":0,
			"byteLength":8064,
			"byteOffset":501872,
			"target":34962
		},
		{
			"buffer":0,
			"byteLength":8064,
			"byteOffset":509936,
			"target":34962
		},
		{
			"buffer":0,
			"byteLength":5376,
			"byteOffset":518000,
			"target":34962
		},
		{
			"buffer":0,
			"byteLength":3360,
			"byteOffset":523376,
			"target":34963
		},
		{
			"buffer":0,
			"byteLength":29796,
			"byteOffset":526736,
			"target":34962
		},
		{
			"buffer":0,
			"byteLength":29796,
			"byteOffset":556532,
			"target":34962
		},
		{
			"buffer":0,
			"byteLength":19864,
			"byteOffset":586328,
			"target":34962
		},
		{
			"buffer":0,
			"byteLength":12696,
			"byteOffset":606192,
			"target":34963
		},
		{
			"buffer":0,
			"byteLength":7128,
			"byteOffset":618888,
			"target":34962
		},
		{
			"buffer":0,
			"byteLength":7128,
			"byteOffset":626016,
			"target":34962
		},
		{
			"buffer":0,
			"byteLength":4752,
			"byteOffset":633144,
			"target":34962
		},
		{
			"buffer":0,
			"byteLength":3384,
			"byteOffset":637896,
			"target":34963
		},
		{
			"buffer":0,
			"byteLength":6228,
			"byteOffset":641280,
			"target":34962
		},
		{
			"buffer":0,
			"byteLength":6228,
			"byteOffset":647508,
			"target":34962
		},
		{
			"buffer":0,
			"byteLength":4152,
			"byteOffset":653736,
			"target":34962
		},
		{
			"buffer":0,
			"byteLength":3492,
			"byteOffset":657888,
			"target":34963
		},
		{
			"buffer":0,
			"byteLength":6228,
			"byteOffset":661380,
			"target":34962
		},
		{
			"buffer":0,
			"byteLength":6228,
			"byteOffset":667608,
			"target":34962
		},
		{
			"buffer":0,
			"byteLength":4152,
			"byteOffset":673836,
			"target":34962
		},
		{
			"buffer":0,
			"byteLength":6228,
			"byteOffset":677988,
			"target":34962
		},
		{
			"buffer":0,
			"byteLength":6228,
			"byteOffset":684216,
			"target":34962
		},
		{
			"buffer":0,
			"byteLength":4152,
			"byteOffset":690444,
			"target":34962
		},
		{
			"buffer":0,
			"byteLength":6264,
			"byteOffset":694596,
			"target":34962
		},
		{
			"buffer":0,
			"byteLength":6264,
			"byteOffset":700860,
			"target":34962
		},
		{
			"buffer":0,
			"byteLength":4176,
			"byteOffset":707124,
			"target":34962
		},
		{
			"buffer":0,
			"byteLength":3264,
			"byteOffset":711300,
			"target":34962
		},
		{
			"buffer":0,
			"byteLength":3264,
			"byteOffset":714564,
			"target":34962
		},
		{
			"buffer":0,
			"byteLength":2176,
			"byteOffset":717828,
			"target":34962
		},
		{
			"buffer":0,
			"byteLength":1512,
			"byteOffset":720004,
			"target":34963
		},
		{
			"buffer":0,
			"byteLength":3888,
			"byteOffset":721516,
			"target":34962
		},
		{
			"buffer":0,
			"byteLength":3888,
			"byteOffset":725404,
			"target":34962
		},
		{
			"buffer":0,
			"byteLength":2592,
			"byteOffset":729292,
			"target":34962
		},
		{
			"buffer":0,
			"byteLength":3888,
			"byteOffset":731884,
			"target":34962
		},
		{
			"buffer":0,
			"byteLength":3888,
			"byteOffset":735772,
			"target":34962
		},
		{
			"buffer":0,
			"byteLength":2592,
			"byteOffset":739660,
			"target":34962
		},
		{
			"buffer":0,
			"byteLength":3888,
			"byteOffset":742252,
			"target":34962
		},
		{
			"buffer":0,
			"byteLength":3888,
			"byteOffset":746140,
			"target":34962
		},
		{
			"buffer":0,
			"byteLength":2592,
			"byteOffset":750028,
			"target":34962
		},
		{
			"buffer":0,
			"byteLength":3888,
			"byteOffset":752620,
			"target":34962
		},
		{
			"buffer":0,
			"byteLength":3888,
			"byteOffset":756508,
			"target":34962
		},
		{
			"buffer":0,
			"byteLength":2592,
			"byteOffset":760396,
			"target":34962
		},
		{
			"buffer":0,
			"byteLength":576,
			"byteOffset":762988,
			"target":34962
		},
		{
			"buffer":0,
			"byteLength":576,
			"byteOffset":763564,
			"target":34962
		},
		{
			"buffer":0,
			"byteLength":384,
			"byteOffset":764140,
			"target":34962
		},
		{
			"buffer":0,
			"byteLength":168,
			"byteOffset":764524,
			"target":34963
		},
		{
			"buffer":0,
			"byteLength":33648,
			"byteOffset":764692,
			"target":34962
		},
		{
			"buffer":0,
			"byteLength":33648,
			"byteOffset":798340,
			"target":34962
		},
		{
			"buffer":0,
			"byteLength":22432,
			"byteOffset":831988,
			"target":34962
		},
		{
			"buffer":0,
			"byteLength":10320,
			"byteOffset":854420,
			"target":34963
		},
		{
			"buffer":0,
			"byteLength":5376,
			"byteOffset":864740,
			"target":34962
		},
		{
			"buffer":0,
			"byteLength":5376,
			"byteOffset":870116,
			"target":34962
		},
		{
			"buffer":0,
			"byteLength":3584,
			"byteOffset":875492,
			"target":34962
		},
		{
			"buffer":0,
			"byteLength":3792,
			"byteOffset":879076,
			"target":34963
		},
		{
			"buffer":0,
			"byteLength":5376,
			"byteOffset":882868,
			"target":34962
		},
		{
			"buffer":0,
			"byteLength":5376,
			"byteOffset":888244,
			"target":34962
		},
		{
			"buffer":0,
			"byteLength":3584,
			"byteOffset":893620,
			"target":34962
		},
		{
			"buffer":0,
			"byteLength":5376,
			"byteOffset":897204,
			"target":34962
		},
		{
			"buffer":0,
			"byteLength":5376,
			"byteOffset":902580,
			"target":34962
		},
		{
			"buffer":0,
			"byteLength":3584,
			"byteOffset":907956,
			"target":34962
		},
		{
			"buffer":0,
			"byteLength":2424,
			"byteOffset":911540,
			"target":34962
		},
		{
			"buffer":0,
			"byteLength":2424,
			"byteOffset":913964,
			"target":34962
		},
		{
			"buffer":0,
			"byteLength":1616,
			"byteOffset":916388,
			"target":34962
		},
		{
			"buffer":0,
			"byteLength":1020,
			"byteOffset":918004,
			"target":34963
		},
		{
			"buffer":0,
			"byteLength":1584,
			"byteOffset":919024,
			"target":34962
		},
		{
			"buffer":0,
			"byteLength":1584,
			"byteOffset":920608,
			"target":34962
		},
		{
			"buffer":0,
			"byteLength":1056,
			"byteOffset":922192,
			"target":34962
		},
		{
			"buffer":0,
			"byteLength":636,
			"byteOffset":923248,
			"target":34963
		},
		{
			"buffer":0,
			"byteLength":2424,
			"byteOffset":923884,
			"target":34962
		},
		{
			"buffer":0,
			"byteLength":2424,
			"byteOffset":926308,
			"target":34962
		},
		{
			"buffer":0,
			"byteLength":1616,
			"byteOffset":928732,
			"target":34962
		},
		{
			"buffer":0,
			"byteLength":1584,
			"byteOffset":930348,
			"target":34962
		},
		{
			"buffer":0,
			"byteLength":1584,
			"byteOffset":931932,
			"target":34962
		},
		{
			"buffer":0,
			"byteLength":1056,
			"byteOffset":933516,
			"target":34962
		},
		{
			"buffer":0,
			"byteLength":576,
			"byteOffset":934572,
			"target":34962
		},
		{
			"buffer":0,
			"byteLength":576,
			"byteOffset":935148,
			"target":34962
		},
		{
			"buffer":0,
			"byteLength":384,
			"byteOffset":935724,
			"target":34962
		},
		{
			"buffer":0,
			"byteLength":7188,
			"byteOffset":936108,
			"target":34962
		},
		{
			"buffer":0,
			"byteLength":7188,
			"byteOffset":943296,
			"target":34962
		},
		{
			"buffer":0,
			"byteLength":4792,
			"byteOffset":950484,
			"target":34962
		},
		{
			"buffer":0,
			"byteLength":2808,
			"byteOffset":955276,
			"target":34963
		},
		{
			"buffer":0,
			"byteLength":2376,
			"byteOffset":958084,
			"target":34962
		},
		{
			"buffer":0,
			"byteLength":2376,
			"byteOffset":960460,
			"target":34962
		},
		{
			"buffer":0,
			"byteLength":1584,
			"byteOffset":962836,
			"target":34962
		},
		{
			"buffer":0,
			"byteLength":2376,
			"byteOffset":964420,
			"target":34962
		},
		{
			"buffer":0,
			"byteLength":2376,
			"byteOffset":966796,
			"target":34962
		},
		{
			"buffer":0,
			"byteLength":1584,
			"byteOffset":969172,
			"target":34962
		},
		{
			"buffer":0,
			"byteLength":2088,
			"byteOffset":970756,
			"target":34962
		},
		{
			"buffer":0,
			"byteLength":2088,
			"byteOffset":972844,
			"target":34962
		},
		{
			"buffer":0,
			"byteLength":1392,
			"byteOffset":974932,
			"target":34962
		},
		{
			"buffer":0,
			"byteLength":1968,
			"byteOffset":976324,
			"target":34962
		},
		{
			"buffer":0,
			"byteLength":1968,
			"byteOffset":978292,
			"target":34962
		},
		{
			"buffer":0,
			"byteLength":1312,
			"byteOffset":980260,
			"target":34962
		},
		{
			"buffer":0,
			"byteLength":696,
			"byteOffset":981572,
			"target":34963
		},
		{
			"buffer":0,
			"byteLength":11616,
			"byteOffset":982268,
			"target":34962
		},
		{
			"buffer":0,
			"byteLength":11616,
			"byteOffset":993884,
			"target":34962
		},
		{
			"buffer":0,
			"byteLength":7744,
			"byteOffset":1005500,
			"target":34962
		},
		{
			"buffer":0,
			"byteLength":5784,
			"byteOffset":1013244,
			"target":34963
		},
		{
			"buffer":0,
			"byteLength":11616,
			"byteOffset":1019028,
			"target":34962
		},
		{
			"buffer":0,
			"byteLength":11616,
			"byteOffset":1030644,
			"target":34962
		},
		{
			"buffer":0,
			"byteLength":7744,
			"byteOffset":1042260,
			"target":34962
		},
		{
			"buffer":0,
			"byteLength":11616,
			"byteOffset":1050004,
			"target":34962
		},
		{
			"buffer":0,
			"byteLength":11616,
			"byteOffset":1061620,
			"target":34962
		},
		{
			"buffer":0,
			"byteLength":7744,
			"byteOffset":1073236,
			"target":34962
		},
		{
			"buffer":0,
			"byteLength":7188,
			"byteOffset":1080980,
			"target":34962
		},
		{
			"buffer":0,
			"byteLength":7188,
			"byteOffset":1088168,
			"target":34962
		},
		{
			"buffer":0,
			"byteLength":4792,
			"byteOffset":1095356,
			"target":34962
		},
		{
			"buffer":0,
			"byteLength":2808,
			"byteOffset":1100148,
			"target":34963
		},
		{
			"buffer":0,
			"byteLength":4140,
			"byteOffset":1102956,
			"target":34962
		},
		{
			"buffer":0,
			"byteLength":4140,
			"byteOffset":1107096,
			"target":34962
		},
		{
			"buffer":0,
			"byteLength":2760,
			"byteOffset":1111236,
			"target":34962
		},
		{
			"buffer":0,
			"byteLength":2196,
			"byteOffset":1113996,
			"target":34963
		},
		{
			"buffer":0,
			"byteLength":4140,
			"byteOffset":1116192,
			"target":34962
		},
		{
			"buffer":0,
			"byteLength":4140,
			"byteOffset":1120332,
			"target":34962
		},
		{
			"buffer":0,
			"byteLength":2760,
			"byteOffset":1124472,
			"target":34962
		},
		{
			"buffer":0,
			"byteLength":8352,
			"byteOffset":1127232,
			"target":34962
		},
		{
			"buffer":0,
			"byteLength":8352,
			"byteOffset":1135584,
			"target":34962
		},
		{
			"buffer":0,
			"byteLength":5568,
			"byteOffset":1143936,
			"target":34962
		},
		{
			"buffer":0,
			"byteLength":3000,
			"byteOffset":1149504,
			"target":34963
		}
	],
	"buffers":[
		{
			"byteLength":1152504,
			"uri":"Food_and_Deco.bin"
		}
	]
}
