{
	"asset":{
		"generator":"Khronos glTF Blender I/O v3.6.27",
		"version":"2.0"
	},
	"scene":0,
	"scenes":[
		{
			"name":"Scene",
			"nodes":[
				0,
				1,
				2,
				3,
				4,
				5,
				6,
				7,
				8,
				9,
				10,
				11,
				12,
				13,
				14,
				15,
				16,
				17,
				18,
				19,
				20,
				21,
				22,
				23,
				24,
				25,
				26,
				27,
				28,
				29,
				30,
				31,
				32,
				33,
				34,
				35,
				36,
				37,
				38,
				39,
				40,
				41,
				42,
				43,
				44,
				45,
				46,
				47,
				48,
				49,
				50
			]
		}
	],
	"nodes":[
		{
			"mesh":0,
			"name":"Wall_A_Light_Mid_End_XL",
			"translation":[
				-20,
				0,
				13
			]
		},
		{
			"mesh":1,
			"name":"Wall_A_Light_Mid_End_X",
			"translation":[
				-20,
				0,
				8
			]
		},
		{
			"mesh":2,
			"name":"Wall_A_Light_Mid",
			"translation":[
				-20,
				0,
				4
			]
		},
		{
			"mesh":3,
			"name":"Wall_A_Light_Corner_Mid",
			"translation":[
				-20,
				0,
				0
			]
		},
		{
			"mesh":4,
			"name":"Wall_A_Light_Corner_End_XL",
			"translation":[
				-10,
				0,
				6
			]
		},
		{
			"mesh":5,
			"name":"Wall_A_Light_Corner_End_X",
			"translation":[
				-16,
				0,
				6
			]
		},
		{
			"mesh":6,
			"name":"Wall_A_Dark_Mid_End_XL",
			"translation":[
				-7,
				0,
				0
			]
		},
		{
			"mesh":7,
			"name":"Wall_A_Dark_Mid_End_X",
			"translation":[
				-12,
				0,
				0
			]
		},
		{
			"mesh":8,
			"name":"Wall_A_Dark_Mid",
			"translation":[
				-16,
				0,
				0
			]
		},
		{
			"mesh":9,
			"name":"Wall_A_Dark_Corner_Mid",
			"translation":[
				-20,
				0,
				0
			]
		},
		{
			"mesh":10,
			"name":"Wall_A_Dark_Corner_End_XL",
			"translation":[
				-10,
				0,
				6
			]
		},
		{
			"mesh":11,
			"name":"Wall_A_Dark_Corner_End_X",
			"translation":[
				-16,
				0,
				6
			]
		},
		{
			"mesh":12,
			"name":"Wall_A_Enclosed_Corner_W",
			"translation":[
				-14,
				0,
				14
			]
		},
		{
			"mesh":13,
			"name":"Wall_A_Enclosed_Corner_S",
			"translation":[
				-14,
				0,
				14
			]
		},
		{
			"mesh":14,
			"name":"Wall_A_Enclosed_Corner_N",
			"translation":[
				-14,
				0,
				14
			]
		},
		{
			"mesh":15,
			"name":"Wall_A_Enclosed_Corner_E",
			"translation":[
				-14,
				0,
				14
			]
		},
		{
			"mesh":16,
			"name":"Flooring_A_Tiling"
		},
		{
			"mesh":17,
			"name":"Flooring_A_Entrance",
			"translation":[
				-1,
				0,
				2
			]
		},
		{
			"mesh":18,
			"name":"Wall_A_Window_Light_Mid_End_XL",
			"translation":[
				9,
				0,
				13
			]
		},
		{
			"mesh":19,
			"name":"Wall_A_Window_Light_Mid_End_X",
			"translation":[
				9,
				0,
				8
			]
		},
		{
			"mesh":20,
			"name":"Wall_A_Window_Light_Mid",
			"translation":[
				9,
				0,
				4
			]
		},
		{
			"mesh":21,
			"name":"Wall_A_Window_Light_Corner_Mid",
			"translation":[
				9,
				0,
				0
			]
		},
		{
			"mesh":22,
			"name":"Wall_A_Window_Light_Corner_End_XL",
			"translation":[
				19,
				0,
				6
			]
		},
		{
			"mesh":23,
			"name":"Wall_A_Window_Light_Corner_End_X",
			"translation":[
				13,
				0,
				6
			]
		},
		{
			"mesh":24,
			"name":"Wall_A_Window_Dark_Mid_End_XL",
			"translation":[
				22,
				0,
				0
			]
		},
		{
			"mesh":25,
			"name":"Wall_A_Window_Dark_Mid_End_X",
			"translation":[
				17,
				0,
				0
			]
		},
		{
			"mesh":26,
			"name":"Wall_A_Window_Dark_Mid",
			"translation":[
				13,
				0,
				0
			]
		},
		{
			"mesh":27,
			"name":"Wall_A_Window_Dark_Corner_Mid",
			"translation":[
				9,
				0,
				0
			]
		},
		{
			"mesh":28,
			"name":"Wall_A_Window_Dark_Corner_End_XL",
			"translation":[
				19,
				0,
				6
			]
		},
		{
			"mesh":29,
			"name":"Wall_A_Window_Dark_Corner_End_X",
			"translation":[
				13,
				0,
				6
			]
		},
		{
			"mesh":30,
			"name":"Wall_Door_A_Light_Mid_End_XL",
			"translation":[
				-20,
				0,
				36
			]
		},
		{
			"mesh":31,
			"name":"Wall_Door_A_Light_Mid_End_X",
			"translation":[
				-20,
				0,
				31
			]
		},
		{
			"mesh":32,
			"name":"Wall_Door_A_Light_Mid",
			"translation":[
				-20,
				0,
				27
			]
		},
		{
			"mesh":33,
			"name":"Wall_Door_A_Light_Corner_Mid",
			"translation":[
				-20,
				0,
				23
			]
		},
		{
			"mesh":34,
			"name":"Wall_Door_A_Light_Corner_End_XL",
			"translation":[
				-10,
				0,
				26
			]
		},
		{
			"mesh":35,
			"name":"Wall_Door_A_Light_Corner_End_X",
			"translation":[
				-16,
				0,
				26
			]
		},
		{
			"mesh":36,
			"name":"Wall_Door_A_Enclosed_Corner_W",
			"translation":[
				-14,
				0,
				37
			]
		},
		{
			"mesh":37,
			"name":"Wall_Door_A_Enclosed_Corner_S",
			"translation":[
				-14,
				0,
				37
			]
		},
		{
			"mesh":38,
			"name":"Wall_Door_A_Enclosed_Corner_N",
			"translation":[
				-14,
				0,
				37
			]
		},
		{
			"mesh":39,
			"name":"Wall_Door_A_Enclosed_Corner_E",
			"translation":[
				-14,
				0,
				37
			]
		},
		{
			"mesh":40,
			"name":"Wall_Door_A_Dark_Mid_End_XL",
			"translation":[
				-7,
				0,
				23
			]
		},
		{
			"mesh":41,
			"name":"Wall_Door_A_Dark_Mid_End_X",
			"translation":[
				-12,
				0,
				23
			]
		},
		{
			"mesh":42,
			"name":"Wall_Door_A_Dark_Mid",
			"translation":[
				-16,
				0,
				23
			]
		},
		{
			"mesh":43,
			"name":"Wall_Door_A_Dark_Corner_Mid",
			"translation":[
				-20,
				0,
				23
			]
		},
		{
			"mesh":44,
			"name":"Wall_Door_A_Dark_Corner_End_XL",
			"translation":[
				-10,
				0,
				26
			]
		},
		{
			"mesh":45,
			"name":"Wall_Door_A_Dark_Corner_End_X",
			"translation":[
				-16,
				0,
				26
			]
		},
		{
			"mesh":46,
			"name":"Door_Style_A",
			"translation":[
				-15,
				0,
				41
			]
		},
		{
			"mesh":47,
			"name":"Wall_Pillar_A_Light",
			"translation":[
				-20,
				0,
				0
			]
		},
		{
			"mesh":48,
			"name":"Wall_Pillar_A_Dark",
			"translation":[
				-20,
				0,
				0
			]
		},
		{
			"mesh":49,
			"name":"Wall_Arc_A_Light_Mid",
			"translation":[
				-16,
				0,
				6
			]
		},
		{
			"mesh":50,
			"name":"Wall_Arc_A_Dark_Mid",
			"translation":[
				-10,
				0,
				6
			]
		}
	],
	"meshes":[
		{
			"name":"Wall_A_Light_Mid_End_XL",
			"primitives":[
				{
					"attributes":{
						"POSITION":0,
						"NORMAL":1,
						"TEXCOORD_0":2
					},
					"indices":3
				}
			]
		},
		{
			"name":"Wall_A_Light_Mid_End_X",
			"primitives":[
				{
					"attributes":{
						"POSITION":4,
						"NORMAL":5,
						"TEXCOORD_0":6
					},
					"indices":7
				}
			]
		},
		{
			"name":"Wall_A_Light_Mid",
			"primitives":[
				{
					"attributes":{
						"POSITION":8,
						"NORMAL":9,
						"TEXCOORD_0":10
					},
					"indices":11
				}
			]
		},
		{
			"name":"Wall_A_Light_Corner_Mid",
			"primitives":[
				{
					"attributes":{
						"POSITION":12,
						"NORMAL":13,
						"TEXCOORD_0":14
					},
					"indices":15
				}
			]
		},
		{
			"name":"Wall_A_Light_Corner_End_XL",
			"primitives":[
				{
					"attributes":{
						"POSITION":16,
						"NORMAL":17,
						"TEXCOORD_0":18
					},
					"indices":19
				}
			]
		},
		{
			"name":"Wall_A_Light_Corner_End_X",
			"primitives":[
				{
					"attributes":{
						"POSITION":20,
						"NORMAL":21,
						"TEXCOORD_0":22
					},
					"indices":23
				}
			]
		},
		{
			"name":"Wall_A_Dark_Mid_End_XL",
			"primitives":[
				{
					"attributes":{
						"POSITION":24,
						"NORMAL":25,
						"TEXCOORD_0":26
					},
					"indices":27
				}
			]
		},
		{
			"name":"Wall_A_Dark_Mid_End_X",
			"primitives":[
				{
					"attributes":{
						"POSITION":28,
						"NORMAL":29,
						"TEXCOORD_0":30
					},
					"indices":31
				}
			]
		},
		{
			"name":"Wall_A_Dark_Mid",
			"primitives":[
				{
					"attributes":{
						"POSITION":32,
						"NORMAL":33,
						"TEXCOORD_0":34
					},
					"indices":35
				}
			]
		},
		{
			"name":"Wall_A_Dark_Corner_Mid",
			"primitives":[
				{
					"attributes":{
						"POSITION":36,
						"NORMAL":37,
						"TEXCOORD_0":38
					},
					"indices":39
				}
			]
		},
		{
			"name":"Wall_A_Dark_Corner_End_XL",
			"primitives":[
				{
					"attributes":{
						"POSITION":40,
						"NORMAL":41,
						"TEXCOORD_0":42
					},
					"indices":43
				}
			]
		},
		{
			"name":"Wall_A_Dark_Corner_End_X",
			"primitives":[
				{
					"attributes":{
						"POSITION":44,
						"NORMAL":45,
						"TEXCOORD_0":46
					},
					"indices":47
				}
			]
		},
		{
			"name":"Wall_A_Enclosed_Corner_W",
			"primitives":[
				{
					"attributes":{
						"POSITION":48,
						"NORMAL":49,
						"TEXCOORD_0":50
					},
					"indices":51
				}
			]
		},
		{
			"name":"Wall_A_Enclosed_Corner_S",
			"primitives":[
				{
					"attributes":{
						"POSITION":52,
						"NORMAL":53,
						"TEXCOORD_0":54
					},
					"indices":55
				}
			]
		},
		{
			"name":"Wall_A_Enclosed_Corner_N",
			"primitives":[
				{
					"attributes":{
						"POSITION":56,
						"NORMAL":57,
						"TEXCOORD_0":58
					},
					"indices":59
				}
			]
		},
		{
			"name":"Wall_A_Enclosed_Corner_E",
			"primitives":[
				{
					"attributes":{
						"POSITION":60,
						"NORMAL":61,
						"TEXCOORD_0":62
					},
					"indices":63
				}
			]
		},
		{
			"name":"Flooring_A_Tiling",
			"primitives":[
				{
					"attributes":{
						"POSITION":64,
						"NORMAL":65,
						"TEXCOORD_0":66
					},
					"indices":67
				}
			]
		},
		{
			"name":"Flooring_A_Entrance",
			"primitives":[
				{
					"attributes":{
						"POSITION":68,
						"NORMAL":69,
						"TEXCOORD_0":70
					},
					"indices":71
				}
			]
		},
		{
			"name":"Wall_A_Window_Light_Mid_End_XL",
			"primitives":[
				{
					"attributes":{
						"POSITION":72,
						"NORMAL":73,
						"TEXCOORD_0":74
					},
					"indices":75
				},
				{
					"attributes":{
						"POSITION":76,
						"NORMAL":77,
						"TEXCOORD_0":78
					},
					"indices":79
				}
			]
		},
		{
			"name":"Wall_A_Window_Light_Mid_End_X",
			"primitives":[
				{
					"attributes":{
						"POSITION":80,
						"NORMAL":81,
						"TEXCOORD_0":82
					},
					"indices":83
				},
				{
					"attributes":{
						"POSITION":84,
						"NORMAL":85,
						"TEXCOORD_0":86
					},
					"indices":79
				}
			]
		},
		{
			"name":"Wall_A_Window_Light_Mid",
			"primitives":[
				{
					"attributes":{
						"POSITION":87,
						"NORMAL":88,
						"TEXCOORD_0":89
					},
					"indices":90
				},
				{
					"attributes":{
						"POSITION":91,
						"NORMAL":92,
						"TEXCOORD_0":93
					},
					"indices":94
				}
			]
		},
		{
			"name":"Wall_A_Window_Light_Corner_Mid",
			"primitives":[
				{
					"attributes":{
						"POSITION":95,
						"NORMAL":96,
						"TEXCOORD_0":97
					},
					"indices":98
				},
				{
					"attributes":{
						"POSITION":99,
						"NORMAL":100,
						"TEXCOORD_0":101
					},
					"indices":102
				}
			]
		},
		{
			"name":"Wall_A_Window_Light_Corner_End_XL",
			"primitives":[
				{
					"attributes":{
						"POSITION":103,
						"NORMAL":104,
						"TEXCOORD_0":105
					},
					"indices":106
				},
				{
					"attributes":{
						"POSITION":107,
						"NORMAL":108,
						"TEXCOORD_0":109
					},
					"indices":110
				}
			]
		},
		{
			"name":"Wall_A_Window_Light_Corner_End_X",
			"primitives":[
				{
					"attributes":{
						"POSITION":111,
						"NORMAL":112,
						"TEXCOORD_0":113
					},
					"indices":114
				},
				{
					"attributes":{
						"POSITION":115,
						"NORMAL":116,
						"TEXCOORD_0":117
					},
					"indices":94
				}
			]
		},
		{
			"name":"Wall_A_Window_Dark_Mid_End_XL",
			"primitives":[
				{
					"attributes":{
						"POSITION":118,
						"NORMAL":119,
						"TEXCOORD_0":120
					},
					"indices":121
				},
				{
					"attributes":{
						"POSITION":122,
						"NORMAL":123,
						"TEXCOORD_0":124
					},
					"indices":125
				}
			]
		},
		{
			"name":"Wall_A_Window_Dark_Mid_End_X",
			"primitives":[
				{
					"attributes":{
						"POSITION":126,
						"NORMAL":127,
						"TEXCOORD_0":128
					},
					"indices":129
				},
				{
					"attributes":{
						"POSITION":130,
						"NORMAL":131,
						"TEXCOORD_0":132
					},
					"indices":133
				}
			]
		},
		{
			"name":"Wall_A_Window_Dark_Mid",
			"primitives":[
				{
					"attributes":{
						"POSITION":134,
						"NORMAL":135,
						"TEXCOORD_0":136
					},
					"indices":137
				},
				{
					"attributes":{
						"POSITION":138,
						"NORMAL":139,
						"TEXCOORD_0":140
					},
					"indices":133
				}
			]
		},
		{
			"name":"Wall_A_Window_Dark_Corner_Mid",
			"primitives":[
				{
					"attributes":{
						"POSITION":141,
						"NORMAL":142,
						"TEXCOORD_0":143
					},
					"indices":144
				},
				{
					"attributes":{
						"POSITION":145,
						"NORMAL":146,
						"TEXCOORD_0":147
					},
					"indices":148
				}
			]
		},
		{
			"name":"Wall_A_Window_Dark_Corner_End_XL",
			"primitives":[
				{
					"attributes":{
						"POSITION":149,
						"NORMAL":150,
						"TEXCOORD_0":151
					},
					"indices":152
				},
				{
					"attributes":{
						"POSITION":153,
						"NORMAL":154,
						"TEXCOORD_0":155
					},
					"indices":156
				}
			]
		},
		{
			"name":"Wall_A_Window_Dark_Corner_End_X",
			"primitives":[
				{
					"attributes":{
						"POSITION":157,
						"NORMAL":158,
						"TEXCOORD_0":159
					},
					"indices":160
				},
				{
					"attributes":{
						"POSITION":161,
						"NORMAL":162,
						"TEXCOORD_0":163
					},
					"indices":94
				}
			]
		},
		{
			"name":"Wall_Door_A_Light_Mid_End_XL",
			"primitives":[
				{
					"attributes":{
						"POSITION":164,
						"NORMAL":165,
						"TEXCOORD_0":166
					},
					"indices":167
				}
			]
		},
		{
			"name":"Wall_Door_A_Light_Mid_End_X",
			"primitives":[
				{
					"attributes":{
						"POSITION":168,
						"NORMAL":169,
						"TEXCOORD_0":170
					},
					"indices":171
				}
			]
		},
		{
			"name":"Wall_Door_A_Light_Mid",
			"primitives":[
				{
					"attributes":{
						"POSITION":172,
						"NORMAL":173,
						"TEXCOORD_0":174
					},
					"indices":175
				}
			]
		},
		{
			"name":"Wall_Door_A_Light_Corner_Mid",
			"primitives":[
				{
					"attributes":{
						"POSITION":176,
						"NORMAL":177,
						"TEXCOORD_0":178
					},
					"indices":179
				}
			]
		},
		{
			"name":"Wall_Door_A_Light_Corner_End_XL",
			"primitives":[
				{
					"attributes":{
						"POSITION":180,
						"NORMAL":181,
						"TEXCOORD_0":182
					},
					"indices":183
				}
			]
		},
		{
			"name":"Wall_Door_A_Light_Corner_End_X",
			"primitives":[
				{
					"attributes":{
						"POSITION":184,
						"NORMAL":185,
						"TEXCOORD_0":186
					},
					"indices":187
				}
			]
		},
		{
			"name":"Wall_Door_A_Enclosed_Corner_W",
			"primitives":[
				{
					"attributes":{
						"POSITION":188,
						"NORMAL":189,
						"TEXCOORD_0":190
					},
					"indices":191
				}
			]
		},
		{
			"name":"Wall_Door_A_Enclosed_Corner_S",
			"primitives":[
				{
					"attributes":{
						"POSITION":192,
						"NORMAL":193,
						"TEXCOORD_0":194
					},
					"indices":195
				}
			]
		},
		{
			"name":"Wall_Door_A_Enclosed_Corner_N",
			"primitives":[
				{
					"attributes":{
						"POSITION":196,
						"NORMAL":197,
						"TEXCOORD_0":198
					},
					"indices":199
				}
			]
		},
		{
			"name":"Wall_Door_A_Enclosed_Corner_E",
			"primitives":[
				{
					"attributes":{
						"POSITION":200,
						"NORMAL":201,
						"TEXCOORD_0":202
					},
					"indices":203
				}
			]
		},
		{
			"name":"Wall_Door_A_Dark_Mid_End_XL",
			"primitives":[
				{
					"attributes":{
						"POSITION":204,
						"NORMAL":205,
						"TEXCOORD_0":206
					},
					"indices":207
				}
			]
		},
		{
			"name":"Wall_Door_A_Dark_Mid_End_X",
			"primitives":[
				{
					"attributes":{
						"POSITION":208,
						"NORMAL":209,
						"TEXCOORD_0":210
					},
					"indices":211
				}
			]
		},
		{
			"name":"Wall_Door_A_Dark_Mid",
			"primitives":[
				{
					"attributes":{
						"POSITION":212,
						"NORMAL":213,
						"TEXCOORD_0":214
					},
					"indices":215
				}
			]
		},
		{
			"name":"Wall_Door_A_Dark_Corner_Mid",
			"primitives":[
				{
					"attributes":{
						"POSITION":216,
						"NORMAL":217,
						"TEXCOORD_0":218
					},
					"indices":219
				}
			]
		},
		{
			"name":"Wall_Door_A_Dark_Corner_End_XL",
			"primitives":[
				{
					"attributes":{
						"POSITION":220,
						"NORMAL":221,
						"TEXCOORD_0":222
					},
					"indices":223
				}
			]
		},
		{
			"name":"Wall_Door_A_Dark_Corner_End_X",
			"primitives":[
				{
					"attributes":{
						"POSITION":224,
						"NORMAL":225,
						"TEXCOORD_0":226
					},
					"indices":227
				}
			]
		},
		{
			"name":"Door_Style_A",
			"primitives":[
				{
					"attributes":{
						"POSITION":228,
						"NORMAL":229,
						"TEXCOORD_0":230
					},
					"indices":231
				},
				{
					"attributes":{
						"POSITION":232,
						"NORMAL":233,
						"TEXCOORD_0":234
					},
					"indices":235
				}
			]
		},
		{
			"name":"Wall_Pillar_A_Light",
			"primitives":[
				{
					"attributes":{
						"POSITION":236,
						"NORMAL":237,
						"TEXCOORD_0":238
					},
					"indices":239
				}
			]
		},
		{
			"name":"Wall_Pillar_A_Dark",
			"primitives":[
				{
					"attributes":{
						"POSITION":240,
						"NORMAL":241,
						"TEXCOORD_0":242
					},
					"indices":243
				}
			]
		},
		{
			"name":"Wall_Arc_A_Light_Mid",
			"primitives":[
				{
					"attributes":{
						"POSITION":244,
						"NORMAL":245,
						"TEXCOORD_0":246
					},
					"indices":247
				}
			]
		},
		{
			"name":"Wall_Arc_A_Dark_Mid",
			"primitives":[
				{
					"attributes":{
						"POSITION":248,
						"NORMAL":249,
						"TEXCOORD_0":250
					},
					"indices":251
				}
			]
		}
	],
	"accessors":[
		{
			"bufferView":0,
			"componentType":5126,
			"count":136,
			"max":[
				-1.9499998092651367,
				4,
				2.049997329711914
			],
			"min":[
				-2.250000476837158,
				1.3969838619232178e-07,
				-2.000000238418579
			],
			"type":"VEC3"
		},
		{
			"bufferView":1,
			"componentType":5126,
			"count":136,
			"type":"VEC3"
		},
		{
			"bufferView":2,
			"componentType":5126,
			"count":136,
			"type":"VEC2"
		},
		{
			"bufferView":3,
			"componentType":5123,
			"count":300,
			"type":"SCALAR"
		},
		{
			"bufferView":4,
			"componentType":5126,
			"count":125,
			"max":[
				-1.9499952793121338,
				4,
				2.0500001907348633
			],
			"min":[
				-2.2500007152557373,
				2.384185791015625e-07,
				-2
			],
			"type":"VEC3"
		},
		{
			"bufferView":5,
			"componentType":5126,
			"count":125,
			"type":"VEC3"
		},
		{
			"bufferView":6,
			"componentType":5126,
			"count":125,
			"type":"VEC2"
		},
		{
			"bufferView":7,
			"componentType":5123,
			"count":228,
			"type":"SCALAR"
		},
		{
			"bufferView":8,
			"componentType":5126,
			"count":72,
			"max":[
				-1.9499965906143188,
				4,
				2.000000238418579
			],
			"min":[
				-2.2500007152557373,
				-7.450580596923828e-09,
				-2.000000238418579
			],
			"type":"VEC3"
		},
		{
			"bufferView":9,
			"componentType":5126,
			"count":72,
			"type":"VEC3"
		},
		{
			"bufferView":10,
			"componentType":5126,
			"count":72,
			"type":"VEC2"
		},
		{
			"bufferView":11,
			"componentType":5123,
			"count":114,
			"type":"SCALAR"
		},
		{
			"bufferView":12,
			"componentType":5126,
			"count":94,
			"max":[
				-1.949995994567871,
				4,
				2
			],
			"min":[
				-2.2500007152557373,
				1.3969838619232178e-07,
				-2.212745189666748
			],
			"type":"VEC3"
		},
		{
			"bufferView":13,
			"componentType":5126,
			"count":94,
			"type":"VEC3"
		},
		{
			"bufferView":14,
			"componentType":5126,
			"count":94,
			"type":"VEC2"
		},
		{
			"bufferView":15,
			"componentType":5123,
			"count":162,
			"type":"SCALAR"
		},
		{
			"bufferView":16,
			"componentType":5126,
			"count":173,
			"max":[
				-1.9499998092651367,
				4,
				2.049997568130493
			],
			"min":[
				-2.250000238418579,
				1.3969838619232178e-07,
				-2.212745189666748
			],
			"type":"VEC3"
		},
		{
			"bufferView":17,
			"componentType":5126,
			"count":173,
			"type":"VEC3"
		},
		{
			"bufferView":18,
			"componentType":5126,
			"count":173,
			"type":"VEC2"
		},
		{
			"bufferView":19,
			"componentType":5123,
			"count":384,
			"type":"SCALAR"
		},
		{
			"bufferView":20,
			"componentType":5126,
			"count":152,
			"max":[
				-1.9499998092651367,
				4,
				2.049997329711914
			],
			"min":[
				-2.250000476837158,
				1.3969838619232178e-07,
				-2.212745428085327
			],
			"type":"VEC3"
		},
		{
			"bufferView":21,
			"componentType":5126,
			"count":152,
			"type":"VEC3"
		},
		{
			"bufferView":22,
			"componentType":5126,
			"count":152,
			"type":"VEC2"
		},
		{
			"bufferView":23,
			"componentType":5123,
			"count":312,
			"type":"SCALAR"
		},
		{
			"bufferView":24,
			"componentType":5126,
			"count":136,
			"max":[
				2.049997568130493,
				4,
				-1.9499999284744263
			],
			"min":[
				-2,
				1.3969838619232178e-07,
				-2.250000238418579
			],
			"type":"VEC3"
		},
		{
			"bufferView":25,
			"componentType":5126,
			"count":136,
			"type":"VEC3"
		},
		{
			"bufferView":26,
			"componentType":5126,
			"count":136,
			"type":"VEC2"
		},
		{
			"bufferView":27,
			"componentType":5123,
			"count":300,
			"type":"SCALAR"
		},
		{
			"bufferView":28,
			"componentType":5126,
			"count":125,
			"max":[
				2.049999952316284,
				4,
				-1.9499953985214233
			],
			"min":[
				-2.000000238418579,
				2.3841856489070778e-07,
				-2.2500009536743164
			],
			"type":"VEC3"
		},
		{
			"bufferView":29,
			"componentType":5126,
			"count":125,
			"type":"VEC3"
		},
		{
			"bufferView":30,
			"componentType":5126,
			"count":125,
			"type":"VEC2"
		},
		{
			"bufferView":31,
			"componentType":5123,
			"count":228,
			"type":"SCALAR"
		},
		{
			"bufferView":32,
			"componentType":5126,
			"count":72,
			"max":[
				2,
				4,
				-1.9499967098236084
			],
			"min":[
				-2.000000476837158,
				-7.450580596923828e-09,
				-2.2500009536743164
			],
			"type":"VEC3"
		},
		{
			"bufferView":33,
			"componentType":5126,
			"count":72,
			"type":"VEC3"
		},
		{
			"bufferView":34,
			"componentType":5126,
			"count":72,
			"type":"VEC2"
		},
		{
			"bufferView":35,
			"componentType":5123,
			"count":114,
			"type":"SCALAR"
		},
		{
			"bufferView":36,
			"componentType":5126,
			"count":94,
			"max":[
				1.9999998807907104,
				4,
				-1.9499961137771606
			],
			"min":[
				-2.212745428085327,
				1.3969838619232178e-07,
				-2.2500009536743164
			],
			"type":"VEC3"
		},
		{
			"bufferView":37,
			"componentType":5126,
			"count":94,
			"type":"VEC3"
		},
		{
			"bufferView":38,
			"componentType":5126,
			"count":94,
			"type":"VEC2"
		},
		{
			"bufferView":39,
			"componentType":5123,
			"count":162,
			"type":"SCALAR"
		},
		{
			"bufferView":40,
			"componentType":5126,
			"count":158,
			"max":[
				2.049997568130493,
				4,
				-1.9499999284744263
			],
			"min":[
				-2.212745189666748,
				1.3969838619232178e-07,
				-2.250000238418579
			],
			"type":"VEC3"
		},
		{
			"bufferView":41,
			"componentType":5126,
			"count":158,
			"type":"VEC3"
		},
		{
			"bufferView":42,
			"componentType":5126,
			"count":158,
			"type":"VEC2"
		},
		{
			"bufferView":43,
			"componentType":5123,
			"count":348,
			"type":"SCALAR"
		},
		{
			"bufferView":44,
			"componentType":5126,
			"count":152,
			"max":[
				2.049997329711914,
				4,
				-1.9499999284744263
			],
			"min":[
				-2.212745428085327,
				1.3969838619232178e-07,
				-2.250000476837158
			],
			"type":"VEC3"
		},
		{
			"bufferView":45,
			"componentType":5126,
			"count":152,
			"type":"VEC3"
		},
		{
			"bufferView":46,
			"componentType":5126,
			"count":152,
			"type":"VEC2"
		},
		{
			"bufferView":47,
			"componentType":5123,
			"count":312,
			"type":"SCALAR"
		},
		{
			"bufferView":48,
			"componentType":5126,
			"count":116,
			"max":[
				-1.950002670288086,
				4,
				2.212745189666748
			],
			"min":[
				-2.2500007152557373,
				1.3969838619232178e-07,
				-2.212745189666748
			],
			"type":"VEC3"
		},
		{
			"bufferView":49,
			"componentType":5126,
			"count":116,
			"type":"VEC3"
		},
		{
			"bufferView":50,
			"componentType":5126,
			"count":116,
			"type":"VEC2"
		},
		{
			"bufferView":51,
			"componentType":5123,
			"count":210,
			"type":"SCALAR"
		},
		{
			"bufferView":52,
			"componentType":5126,
			"count":112,
			"max":[
				2.212745428085327,
				4,
				2.250000476837158
			],
			"min":[
				-2.212745428085327,
				1.3969838619232178e-07,
				1.9500025510787964
			],
			"type":"VEC3"
		},
		{
			"bufferView":53,
			"componentType":5126,
			"count":112,
			"type":"VEC3"
		},
		{
			"bufferView":54,
			"componentType":5126,
			"count":112,
			"type":"VEC2"
		},
		{
			"bufferView":55,
			"componentType":5123,
			"count":210,
			"type":"SCALAR"
		},
		{
			"bufferView":56,
			"componentType":5126,
			"count":112,
			"max":[
				2.212745428085327,
				4,
				-1.9500025510787964
			],
			"min":[
				-2.212745428085327,
				1.3969838619232178e-07,
				-2.250000476837158
			],
			"type":"VEC3"
		},
		{
			"bufferView":57,
			"componentType":5126,
			"count":112,
			"type":"VEC3"
		},
		{
			"bufferView":58,
			"componentType":5126,
			"count":112,
			"type":"VEC2"
		},
		{
			"bufferView":59,
			"componentType":5123,
			"count":210,
			"type":"SCALAR"
		},
		{
			"bufferView":60,
			"componentType":5126,
			"count":116,
			"max":[
				2.2500007152557373,
				4,
				2.212745189666748
			],
			"min":[
				1.950002670288086,
				1.3969838619232178e-07,
				-2.212745189666748
			],
			"type":"VEC3"
		},
		{
			"bufferView":61,
			"componentType":5126,
			"count":116,
			"type":"VEC3"
		},
		{
			"bufferView":62,
			"componentType":5126,
			"count":116,
			"type":"VEC2"
		},
		{
			"bufferView":63,
			"componentType":5123,
			"count":210,
			"type":"SCALAR"
		},
		{
			"bufferView":64,
			"componentType":5126,
			"count":3384,
			"max":[
				2,
				0.26000261306762695,
				2.000000238418579
			],
			"min":[
				-2,
				0,
				-2
			],
			"type":"VEC3"
		},
		{
			"bufferView":65,
			"componentType":5126,
			"count":3384,
			"type":"VEC3"
		},
		{
			"bufferView":66,
			"componentType":5126,
			"count":3384,
			"type":"VEC2"
		},
		{
			"bufferView":67,
			"componentType":5123,
			"count":5274,
			"type":"SCALAR"
		},
		{
			"bufferView":68,
			"componentType":5126,
			"count":498,
			"max":[
				0.8666667938232422,
				0.26000261306762695,
				0.7000000476837158
			],
			"min":[
				-1,
				0,
				0
			],
			"type":"VEC3"
		},
		{
			"bufferView":69,
			"componentType":5126,
			"count":498,
			"type":"VEC3"
		},
		{
			"bufferView":70,
			"componentType":5126,
			"count":498,
			"type":"VEC2"
		},
		{
			"bufferView":71,
			"componentType":5123,
			"count":822,
			"type":"SCALAR"
		},
		{
			"bufferView":72,
			"componentType":5126,
			"count":999,
			"max":[
				-1.6086643934249878,
				4,
				2.049997329711914
			],
			"min":[
				-2.2861247062683105,
				1.3969838619232178e-07,
				-2.000000238418579
			],
			"type":"VEC3"
		},
		{
			"bufferView":73,
			"componentType":5126,
			"count":999,
			"type":"VEC3"
		},
		{
			"bufferView":74,
			"componentType":5126,
			"count":999,
			"type":"VEC2"
		},
		{
			"bufferView":75,
			"componentType":5123,
			"count":2529,
			"type":"SCALAR"
		},
		{
			"bufferView":76,
			"componentType":5126,
			"count":58,
			"max":[
				-2.1529579162597656,
				2.765779495239258,
				1.122088074684143
			],
			"min":[
				-2.1678390502929688,
				0.9338728785514832,
				-1.122087836265564
			],
			"type":"VEC3"
		},
		{
			"bufferView":77,
			"componentType":5126,
			"count":58,
			"type":"VEC3"
		},
		{
			"bufferView":78,
			"componentType":5126,
			"count":58,
			"type":"VEC2"
		},
		{
			"bufferView":79,
			"componentType":5123,
			"count":162,
			"type":"SCALAR"
		},
		{
			"bufferView":80,
			"componentType":5126,
			"count":989,
			"max":[
				-1.6086643934249878,
				4,
				2.0500001907348633
			],
			"min":[
				-2.2861247062683105,
				2.384185791015625e-07,
				-2
			],
			"type":"VEC3"
		},
		{
			"bufferView":81,
			"componentType":5126,
			"count":989,
			"type":"VEC3"
		},
		{
			"bufferView":82,
			"componentType":5126,
			"count":989,
			"type":"VEC2"
		},
		{
			"bufferView":83,
			"componentType":5123,
			"count":2454,
			"type":"SCALAR"
		},
		{
			"bufferView":84,
			"componentType":5126,
			"count":58,
			"max":[
				-2.1529579162597656,
				2.765779495239258,
				1.122088074684143
			],
			"min":[
				-2.1678390502929688,
				0.9338728785514832,
				-1.122087836265564
			],
			"type":"VEC3"
		},
		{
			"bufferView":85,
			"componentType":5126,
			"count":58,
			"type":"VEC3"
		},
		{
			"bufferView":86,
			"componentType":5126,
			"count":58,
			"type":"VEC2"
		},
		{
			"bufferView":87,
			"componentType":5126,
			"count":934,
			"max":[
				-1.6086643934249878,
				4,
				2.000000238418579
			],
			"min":[
				-2.2861247062683105,
				-7.450580596923828e-09,
				-2.000000238418579
			],
			"type":"VEC3"
		},
		{
			"bufferView":88,
			"componentType":5126,
			"count":934,
			"type":"VEC3"
		},
		{
			"bufferView":89,
			"componentType":5126,
			"count":934,
			"type":"VEC2"
		},
		{
			"bufferView":90,
			"componentType":5123,
			"count":2340,
			"type":"SCALAR"
		},
		{
			"bufferView":91,
			"componentType":5126,
			"count":58,
			"max":[
				-2.1529579162597656,
				2.765779495239258,
				1.122088074684143
			],
			"min":[
				-2.1678390502929688,
				0.9338728785514832,
				-1.122087836265564
			],
			"type":"VEC3"
		},
		{
			"bufferView":92,
			"componentType":5126,
			"count":58,
			"type":"VEC3"
		},
		{
			"bufferView":93,
			"componentType":5126,
			"count":58,
			"type":"VEC2"
		},
		{
			"bufferView":94,
			"componentType":5123,
			"count":162,
			"type":"SCALAR"
		},
		{
			"bufferView":95,
			"componentType":5126,
			"count":959,
			"max":[
				-1.6086643934249878,
				4,
				2
			],
			"min":[
				-2.2861247062683105,
				1.3969838619232178e-07,
				-2.212745189666748
			],
			"type":"VEC3"
		},
		{
			"bufferView":96,
			"componentType":5126,
			"count":959,
			"type":"VEC3"
		},
		{
			"bufferView":97,
			"componentType":5126,
			"count":959,
			"type":"VEC2"
		},
		{
			"bufferView":98,
			"componentType":5123,
			"count":2388,
			"type":"SCALAR"
		},
		{
			"bufferView":99,
			"componentType":5126,
			"count":58,
			"max":[
				-2.1529579162597656,
				2.765779495239258,
				1.122088074684143
			],
			"min":[
				-2.1678390502929688,
				0.9338728785514832,
				-1.122087836265564
			],
			"type":"VEC3"
		},
		{
			"bufferView":100,
			"componentType":5126,
			"count":58,
			"type":"VEC3"
		},
		{
			"bufferView":101,
			"componentType":5126,
			"count":58,
			"type":"VEC2"
		},
		{
			"bufferView":102,
			"componentType":5123,
			"count":162,
			"type":"SCALAR"
		},
		{
			"bufferView":103,
			"componentType":5126,
			"count":1020,
			"max":[
				-1.6086643934249878,
				4,
				2.049997568130493
			],
			"min":[
				-2.2861247062683105,
				1.3969838619232178e-07,
				-2.212745189666748
			],
			"type":"VEC3"
		},
		{
			"bufferView":104,
			"componentType":5126,
			"count":1020,
			"type":"VEC3"
		},
		{
			"bufferView":105,
			"componentType":5126,
			"count":1020,
			"type":"VEC2"
		},
		{
			"bufferView":106,
			"componentType":5123,
			"count":2574,
			"type":"SCALAR"
		},
		{
			"bufferView":107,
			"componentType":5126,
			"count":58,
			"max":[
				-2.1529579162597656,
				2.765779495239258,
				1.122088074684143
			],
			"min":[
				-2.1678390502929688,
				0.9338728785514832,
				-1.122087836265564
			],
			"type":"VEC3"
		},
		{
			"bufferView":108,
			"componentType":5126,
			"count":58,
			"type":"VEC3"
		},
		{
			"bufferView":109,
			"componentType":5126,
			"count":58,
			"type":"VEC2"
		},
		{
			"bufferView":110,
			"componentType":5123,
			"count":162,
			"type":"SCALAR"
		},
		{
			"bufferView":111,
			"componentType":5126,
			"count":1001,
			"max":[
				-1.6086643934249878,
				4,
				2.049997329711914
			],
			"min":[
				-2.2861247062683105,
				1.3969838619232178e-07,
				-2.212745428085327
			],
			"type":"VEC3"
		},
		{
			"bufferView":112,
			"componentType":5126,
			"count":1001,
			"type":"VEC3"
		},
		{
			"bufferView":113,
			"componentType":5126,
			"count":1001,
			"type":"VEC2"
		},
		{
			"bufferView":114,
			"componentType":5123,
			"count":2505,
			"type":"SCALAR"
		},
		{
			"bufferView":115,
			"componentType":5126,
			"count":58,
			"max":[
				-2.1529579162597656,
				2.765779495239258,
				1.122088074684143
			],
			"min":[
				-2.1678390502929688,
				0.9338728785514832,
				-1.122087836265564
			],
			"type":"VEC3"
		},
		{
			"bufferView":116,
			"componentType":5126,
			"count":58,
			"type":"VEC3"
		},
		{
			"bufferView":117,
			"componentType":5126,
			"count":58,
			"type":"VEC2"
		},
		{
			"bufferView":118,
			"componentType":5126,
			"count":1002,
			"max":[
				2.049997568130493,
				4,
				-1.6086643934249878
			],
			"min":[
				-2,
				1.3969838619232178e-07,
				-2.2861247062683105
			],
			"type":"VEC3"
		},
		{
			"bufferView":119,
			"componentType":5126,
			"count":1002,
			"type":"VEC3"
		},
		{
			"bufferView":120,
			"componentType":5126,
			"count":1002,
			"type":"VEC2"
		},
		{
			"bufferView":121,
			"componentType":5123,
			"count":2526,
			"type":"SCALAR"
		},
		{
			"bufferView":122,
			"componentType":5126,
			"count":58,
			"max":[
				1.1220879554748535,
				2.765779495239258,
				-2.1529579162597656
			],
			"min":[
				-1.1220879554748535,
				0.9338728785514832,
				-2.1678390502929688
			],
			"type":"VEC3"
		},
		{
			"bufferView":123,
			"componentType":5126,
			"count":58,
			"type":"VEC3"
		},
		{
			"bufferView":124,
			"componentType":5126,
			"count":58,
			"type":"VEC2"
		},
		{
			"bufferView":125,
			"componentType":5123,
			"count":162,
			"type":"SCALAR"
		},
		{
			"bufferView":126,
			"componentType":5126,
			"count":987,
			"max":[
				2.049999952316284,
				4,
				-1.6086643934249878
			],
			"min":[
				-2.000000238418579,
				2.3841856489070778e-07,
				-2.2861247062683105
			],
			"type":"VEC3"
		},
		{
			"bufferView":127,
			"componentType":5126,
			"count":987,
			"type":"VEC3"
		},
		{
			"bufferView":128,
			"componentType":5126,
			"count":987,
			"type":"VEC2"
		},
		{
			"bufferView":129,
			"componentType":5123,
			"count":2454,
			"type":"SCALAR"
		},
		{
			"bufferView":130,
			"componentType":5126,
			"count":58,
			"max":[
				1.1220879554748535,
				2.765779495239258,
				-2.1529579162597656
			],
			"min":[
				-1.1220879554748535,
				0.9338728785514832,
				-2.1678390502929688
			],
			"type":"VEC3"
		},
		{
			"bufferView":131,
			"componentType":5126,
			"count":58,
			"type":"VEC3"
		},
		{
			"bufferView":132,
			"componentType":5126,
			"count":58,
			"type":"VEC2"
		},
		{
			"bufferView":133,
			"componentType":5123,
			"count":162,
			"type":"SCALAR"
		},
		{
			"bufferView":134,
			"componentType":5126,
			"count":932,
			"max":[
				2,
				4,
				-1.6086643934249878
			],
			"min":[
				-2.000000476837158,
				-7.450580596923828e-09,
				-2.2861247062683105
			],
			"type":"VEC3"
		},
		{
			"bufferView":135,
			"componentType":5126,
			"count":932,
			"type":"VEC3"
		},
		{
			"bufferView":136,
			"componentType":5126,
			"count":932,
			"type":"VEC2"
		},
		{
			"bufferView":137,
			"componentType":5123,
			"count":2334,
			"type":"SCALAR"
		},
		{
			"bufferView":138,
			"componentType":5126,
			"count":58,
			"max":[
				1.1220879554748535,
				2.765779495239258,
				-2.1529579162597656
			],
			"min":[
				-1.1220879554748535,
				0.9338728785514832,
				-2.1678390502929688
			],
			"type":"VEC3"
		},
		{
			"bufferView":139,
			"componentType":5126,
			"count":58,
			"type":"VEC3"
		},
		{
			"bufferView":140,
			"componentType":5126,
			"count":58,
			"type":"VEC2"
		},
		{
			"bufferView":141,
			"componentType":5126,
			"count":959,
			"max":[
				1.9999998807907104,
				4,
				-1.6086643934249878
			],
			"min":[
				-2.212745428085327,
				1.3969838619232178e-07,
				-2.2861247062683105
			],
			"type":"VEC3"
		},
		{
			"bufferView":142,
			"componentType":5126,
			"count":959,
			"type":"VEC3"
		},
		{
			"bufferView":143,
			"componentType":5126,
			"count":959,
			"type":"VEC2"
		},
		{
			"bufferView":144,
			"componentType":5123,
			"count":2388,
			"type":"SCALAR"
		},
		{
			"bufferView":145,
			"componentType":5126,
			"count":58,
			"max":[
				1.1220879554748535,
				2.765779495239258,
				-2.1529579162597656
			],
			"min":[
				-1.1220879554748535,
				0.9338728785514832,
				-2.1678390502929688
			],
			"type":"VEC3"
		},
		{
			"bufferView":146,
			"componentType":5126,
			"count":58,
			"type":"VEC3"
		},
		{
			"bufferView":147,
			"componentType":5126,
			"count":58,
			"type":"VEC2"
		},
		{
			"bufferView":148,
			"componentType":5123,
			"count":162,
			"type":"SCALAR"
		},
		{
			"bufferView":149,
			"componentType":5126,
			"count":1016,
			"max":[
				2.049997568130493,
				4,
				-1.6086643934249878
			],
			"min":[
				-2.212745189666748,
				1.3969838619232178e-07,
				-2.2861247062683105
			],
			"type":"VEC3"
		},
		{
			"bufferView":150,
			"componentType":5126,
			"count":1016,
			"type":"VEC3"
		},
		{
			"bufferView":151,
			"componentType":5126,
			"count":1016,
			"type":"VEC2"
		},
		{
			"bufferView":152,
			"componentType":5123,
			"count":2574,
			"type":"SCALAR"
		},
		{
			"bufferView":153,
			"componentType":5126,
			"count":58,
			"max":[
				1.1220879554748535,
				2.765779495239258,
				-2.1529579162597656
			],
			"min":[
				-1.1220879554748535,
				0.9338728785514832,
				-2.1678390502929688
			],
			"type":"VEC3"
		},
		{
			"bufferView":154,
			"componentType":5126,
			"count":58,
			"type":"VEC3"
		},
		{
			"bufferView":155,
			"componentType":5126,
			"count":58,
			"type":"VEC2"
		},
		{
			"bufferView":156,
			"componentType":5123,
			"count":162,
			"type":"SCALAR"
		},
		{
			"bufferView":157,
			"componentType":5126,
			"count":1005,
			"max":[
				2.049997091293335,
				4,
				-1.6086643934249878
			],
			"min":[
				-2.2127456665039062,
				1.3969838619232178e-07,
				-2.2861247062683105
			],
			"type":"VEC3"
		},
		{
			"bufferView":158,
			"componentType":5126,
			"count":1005,
			"type":"VEC3"
		},
		{
			"bufferView":159,
			"componentType":5126,
			"count":1005,
			"type":"VEC2"
		},
		{
			"bufferView":160,
			"componentType":5123,
			"count":2517,
			"type":"SCALAR"
		},
		{
			"bufferView":161,
			"componentType":5126,
			"count":58,
			"max":[
				1.1220879554748535,
				2.765779495239258,
				-2.1529579162597656
			],
			"min":[
				-1.1220879554748535,
				0.9338728785514832,
				-2.1678390502929688
			],
			"type":"VEC3"
		},
		{
			"bufferView":162,
			"componentType":5126,
			"count":58,
			"type":"VEC3"
		},
		{
			"bufferView":163,
			"componentType":5126,
			"count":58,
			"type":"VEC2"
		},
		{
			"bufferView":164,
			"componentType":5126,
			"count":421,
			"max":[
				-1.9360909461975098,
				4,
				2.049997329711914
			],
			"min":[
				-2.263908863067627,
				0,
				-2.000000238418579
			],
			"type":"VEC3"
		},
		{
			"bufferView":165,
			"componentType":5126,
			"count":421,
			"type":"VEC3"
		},
		{
			"bufferView":166,
			"componentType":5126,
			"count":421,
			"type":"VEC2"
		},
		{
			"bufferView":167,
			"componentType":5123,
			"count":840,
			"type":"SCALAR"
		},
		{
			"bufferView":168,
			"componentType":5126,
			"count":431,
			"max":[
				-1.9360909461975098,
				4,
				2.0500001907348633
			],
			"min":[
				-2.263908863067627,
				0,
				-2
			],
			"type":"VEC3"
		},
		{
			"bufferView":169,
			"componentType":5126,
			"count":431,
			"type":"VEC3"
		},
		{
			"bufferView":170,
			"componentType":5126,
			"count":431,
			"type":"VEC2"
		},
		{
			"bufferView":171,
			"componentType":5123,
			"count":768,
			"type":"SCALAR"
		},
		{
			"bufferView":172,
			"componentType":5126,
			"count":380,
			"max":[
				-1.9360909461975098,
				4,
				2.000000238418579
			],
			"min":[
				-2.263908863067627,
				-7.450580596923828e-09,
				-2.000000238418579
			],
			"type":"VEC3"
		},
		{
			"bufferView":173,
			"componentType":5126,
			"count":380,
			"type":"VEC3"
		},
		{
			"bufferView":174,
			"componentType":5126,
			"count":380,
			"type":"VEC2"
		},
		{
			"bufferView":175,
			"componentType":5123,
			"count":660,
			"type":"SCALAR"
		},
		{
			"bufferView":176,
			"componentType":5126,
			"count":405,
			"max":[
				-1.9360909461975098,
				4,
				2
			],
			"min":[
				-2.263908863067627,
				0,
				-2.212745189666748
			],
			"type":"VEC3"
		},
		{
			"bufferView":177,
			"componentType":5126,
			"count":405,
			"type":"VEC3"
		},
		{
			"bufferView":178,
			"componentType":5126,
			"count":405,
			"type":"VEC2"
		},
		{
			"bufferView":179,
			"componentType":5123,
			"count":720,
			"type":"SCALAR"
		},
		{
			"bufferView":180,
			"componentType":5126,
			"count":483,
			"max":[
				-1.9360909461975098,
				4,
				2.049997568130493
			],
			"min":[
				-2.263908863067627,
				0,
				-2.212745189666748
			],
			"type":"VEC3"
		},
		{
			"bufferView":181,
			"componentType":5126,
			"count":483,
			"type":"VEC3"
		},
		{
			"bufferView":182,
			"componentType":5126,
			"count":483,
			"type":"VEC2"
		},
		{
			"bufferView":183,
			"componentType":5123,
			"count":930,
			"type":"SCALAR"
		},
		{
			"bufferView":184,
			"componentType":5126,
			"count":460,
			"max":[
				-1.9360909461975098,
				4,
				2.049997329711914
			],
			"min":[
				-2.263908863067627,
				0,
				-2.212745428085327
			],
			"type":"VEC3"
		},
		{
			"bufferView":185,
			"componentType":5126,
			"count":460,
			"type":"VEC3"
		},
		{
			"bufferView":186,
			"componentType":5126,
			"count":460,
			"type":"VEC2"
		},
		{
			"bufferView":187,
			"componentType":5123,
			"count":858,
			"type":"SCALAR"
		},
		{
			"bufferView":188,
			"componentType":5126,
			"count":430,
			"max":[
				-1.9360909461975098,
				4,
				2.212745189666748
			],
			"min":[
				-2.263908863067627,
				0,
				-2.212745189666748
			],
			"type":"VEC3"
		},
		{
			"bufferView":189,
			"componentType":5126,
			"count":430,
			"type":"VEC3"
		},
		{
			"bufferView":190,
			"componentType":5126,
			"count":430,
			"type":"VEC2"
		},
		{
			"bufferView":191,
			"componentType":5123,
			"count":780,
			"type":"SCALAR"
		},
		{
			"bufferView":192,
			"componentType":5126,
			"count":410,
			"max":[
				2.212745428085327,
				4,
				2.2639102935791016
			],
			"min":[
				-2.212745428085327,
				0,
				1.936092495918274
			],
			"type":"VEC3"
		},
		{
			"bufferView":193,
			"componentType":5126,
			"count":410,
			"type":"VEC3"
		},
		{
			"bufferView":194,
			"componentType":5126,
			"count":410,
			"type":"VEC2"
		},
		{
			"bufferView":195,
			"componentType":5123,
			"count":780,
			"type":"SCALAR"
		},
		{
			"bufferView":196,
			"componentType":5126,
			"count":426,
			"max":[
				2.212745428085327,
				4,
				-1.936089038848877
			],
			"min":[
				-2.212745428085327,
				0,
				-2.263906955718994
			],
			"type":"VEC3"
		},
		{
			"bufferView":197,
			"componentType":5126,
			"count":426,
			"type":"VEC3"
		},
		{
			"bufferView":198,
			"componentType":5126,
			"count":426,
			"type":"VEC2"
		},
		{
			"bufferView":199,
			"componentType":5123,
			"count":780,
			"type":"SCALAR"
		},
		{
			"bufferView":200,
			"componentType":5126,
			"count":430,
			"max":[
				2.2639098167419434,
				4,
				2.212745189666748
			],
			"min":[
				1.9360918998718262,
				0,
				-2.212745189666748
			],
			"type":"VEC3"
		},
		{
			"bufferView":201,
			"componentType":5126,
			"count":430,
			"type":"VEC3"
		},
		{
			"bufferView":202,
			"componentType":5126,
			"count":430,
			"type":"VEC2"
		},
		{
			"bufferView":203,
			"componentType":5123,
			"count":780,
			"type":"SCALAR"
		},
		{
			"bufferView":204,
			"componentType":5126,
			"count":419,
			"max":[
				2.049997568130493,
				4,
				-1.936089038848877
			],
			"min":[
				-2,
				0,
				-2.263906955718994
			],
			"type":"VEC3"
		},
		{
			"bufferView":205,
			"componentType":5126,
			"count":419,
			"type":"VEC3"
		},
		{
			"bufferView":206,
			"componentType":5126,
			"count":419,
			"type":"VEC2"
		},
		{
			"bufferView":207,
			"componentType":5123,
			"count":834,
			"type":"SCALAR"
		},
		{
			"bufferView":208,
			"componentType":5126,
			"count":429,
			"max":[
				2.049999952316284,
				4,
				-1.936089038848877
			],
			"min":[
				-2.000000238418579,
				0,
				-2.263906955718994
			],
			"type":"VEC3"
		},
		{
			"bufferView":209,
			"componentType":5126,
			"count":429,
			"type":"VEC3"
		},
		{
			"bufferView":210,
			"componentType":5126,
			"count":429,
			"type":"VEC2"
		},
		{
			"bufferView":211,
			"componentType":5123,
			"count":762,
			"type":"SCALAR"
		},
		{
			"bufferView":212,
			"componentType":5126,
			"count":380,
			"max":[
				2,
				4,
				-1.936089038848877
			],
			"min":[
				-2.000000476837158,
				-7.450580596923828e-09,
				-2.263906955718994
			],
			"type":"VEC3"
		},
		{
			"bufferView":213,
			"componentType":5126,
			"count":380,
			"type":"VEC3"
		},
		{
			"bufferView":214,
			"componentType":5126,
			"count":380,
			"type":"VEC2"
		},
		{
			"bufferView":215,
			"componentType":5123,
			"count":660,
			"type":"SCALAR"
		},
		{
			"bufferView":216,
			"componentType":5126,
			"count":405,
			"max":[
				1.9999998807907104,
				4,
				-1.936089038848877
			],
			"min":[
				-2.212745428085327,
				0,
				-2.263906955718994
			],
			"type":"VEC3"
		},
		{
			"bufferView":217,
			"componentType":5126,
			"count":405,
			"type":"VEC3"
		},
		{
			"bufferView":218,
			"componentType":5126,
			"count":405,
			"type":"VEC2"
		},
		{
			"bufferView":219,
			"componentType":5123,
			"count":720,
			"type":"SCALAR"
		},
		{
			"bufferView":220,
			"componentType":5126,
			"count":465,
			"max":[
				2.049997568130493,
				4,
				-1.9360899925231934
			],
			"min":[
				-2.212745189666748,
				0,
				-2.2639079093933105
			],
			"type":"VEC3"
		},
		{
			"bufferView":221,
			"componentType":5126,
			"count":465,
			"type":"VEC3"
		},
		{
			"bufferView":222,
			"componentType":5126,
			"count":465,
			"type":"VEC2"
		},
		{
			"bufferView":223,
			"componentType":5123,
			"count":894,
			"type":"SCALAR"
		},
		{
			"bufferView":224,
			"componentType":5126,
			"count":460,
			"max":[
				2.049997329711914,
				4,
				-1.9360899925231934
			],
			"min":[
				-2.212745428085327,
				0,
				-2.2639079093933105
			],
			"type":"VEC3"
		},
		{
			"bufferView":225,
			"componentType":5126,
			"count":460,
			"type":"VEC3"
		},
		{
			"bufferView":226,
			"componentType":5126,
			"count":460,
			"type":"VEC2"
		},
		{
			"bufferView":227,
			"componentType":5123,
			"count":858,
			"type":"SCALAR"
		},
		{
			"bufferView":228,
			"componentType":5126,
			"count":1052,
			"max":[
				0.7592284679412842,
				2.668513774871826,
				0.15765950083732605
			],
			"min":[
				-0.7592284083366394,
				0.26000261306762695,
				-0.16766926646232605
			],
			"type":"VEC3"
		},
		{
			"bufferView":229,
			"componentType":5126,
			"count":1052,
			"type":"VEC3"
		},
		{
			"bufferView":230,
			"componentType":5126,
			"count":1052,
			"type":"VEC2"
		},
		{
			"bufferView":231,
			"componentType":5123,
			"count":1572,
			"type":"SCALAR"
		},
		{
			"bufferView":232,
			"componentType":5126,
			"count":123,
			"max":[
				0.6550202369689941,
				2.5705761909484863,
				0.010246127843856812
			],
			"min":[
				-0.6550200581550598,
				0.3450498580932617,
				-0.010242071002721786
			],
			"type":"VEC3"
		},
		{
			"bufferView":233,
			"componentType":5126,
			"count":123,
			"type":"VEC3"
		},
		{
			"bufferView":234,
			"componentType":5126,
			"count":123,
			"type":"VEC2"
		},
		{
			"bufferView":235,
			"componentType":5123,
			"count":210,
			"type":"SCALAR"
		},
		{
			"bufferView":236,
			"componentType":5126,
			"count":107,
			"max":[
				-1.7808865308761597,
				4,
				0.14998739957809448
			],
			"min":[
				-2.0000014305114746,
				-7.450580596923828e-09,
				-0.15001608431339264
			],
			"type":"VEC3"
		},
		{
			"bufferView":237,
			"componentType":5126,
			"count":107,
			"type":"VEC3"
		},
		{
			"bufferView":238,
			"componentType":5126,
			"count":107,
			"type":"VEC2"
		},
		{
			"bufferView":239,
			"componentType":5123,
			"count":174,
			"type":"SCALAR"
		},
		{
			"bufferView":240,
			"componentType":5126,
			"count":107,
			"max":[
				0.1500028371810913,
				4,
				-1.7808871269226074
			],
			"min":[
				-0.15000128746032715,
				0,
				-2.000000238418579
			],
			"type":"VEC3"
		},
		{
			"bufferView":241,
			"componentType":5126,
			"count":107,
			"type":"VEC3"
		},
		{
			"bufferView":242,
			"componentType":5126,
			"count":107,
			"type":"VEC2"
		},
		{
			"bufferView":243,
			"componentType":5123,
			"count":174,
			"type":"SCALAR"
		},
		{
			"bufferView":244,
			"componentType":5126,
			"count":292,
			"max":[
				2.0000007152557373,
				4,
				0.15000255405902863
			],
			"min":[
				-2.000000238418579,
				-7.450580152834618e-09,
				-0.15000168979167938
			],
			"type":"VEC3"
		},
		{
			"bufferView":245,
			"componentType":5126,
			"count":292,
			"type":"VEC3"
		},
		{
			"bufferView":246,
			"componentType":5126,
			"count":292,
			"type":"VEC2"
		},
		{
			"bufferView":247,
			"componentType":5123,
			"count":624,
			"type":"SCALAR"
		},
		{
			"bufferView":248,
			"componentType":5126,
			"count":292,
			"max":[
				0.1500028371810913,
				4,
				2.0000007152557373
			],
			"min":[
				-0.15000128746032715,
				-7.450580596923828e-09,
				-2.000000238418579
			],
			"type":"VEC3"
		},
		{
			"bufferView":249,
			"componentType":5126,
			"count":292,
			"type":"VEC3"
		},
		{
			"bufferView":250,
			"componentType":5126,
			"count":292,
			"type":"VEC2"
		},
		{
			"bufferView":251,
			"componentType":5123,
			"count":624,
			"type":"SCALAR"
		}
	],
	"bufferViews":[
		{
			"buffer":0,
			"byteLength":1632,
			"byteOffset":0,
			"target":34962
		},
		{
			"buffer":0,
			"byteLength":1632,
			"byteOffset":1632,
			"target":34962
		},
		{
			"buffer":0,
			"byteLength":1088,
			"byteOffset":3264,
			"target":34962
		},
		{
			"buffer":0,
			"byteLength":600,
			"byteOffset":4352,
			"target":34963
		},
		{
			"buffer":0,
			"byteLength":1500,
			"byteOffset":4952,
			"target":34962
		},
		{
			"buffer":0,
			"byteLength":1500,
			"byteOffset":6452,
			"target":34962
		},
		{
			"buffer":0,
			"byteLength":1000,
			"byteOffset":7952,
			"target":34962
		},
		{
			"buffer":0,
			"byteLength":456,
			"byteOffset":8952,
			"target":34963
		},
		{
			"buffer":0,
			"byteLength":864,
			"byteOffset":9408,
			"target":34962
		},
		{
			"buffer":0,
			"byteLength":864,
			"byteOffset":10272,
			"target":34962
		},
		{
			"buffer":0,
			"byteLength":576,
			"byteOffset":11136,
			"target":34962
		},
		{
			"buffer":0,
			"byteLength":228,
			"byteOffset":11712,
			"target":34963
		},
		{
			"buffer":0,
			"byteLength":1128,
			"byteOffset":11940,
			"target":34962
		},
		{
			"buffer":0,
			"byteLength":1128,
			"byteOffset":13068,
			"target":34962
		},
		{
			"buffer":0,
			"byteLength":752,
			"byteOffset":14196,
			"target":34962
		},
		{
			"buffer":0,
			"byteLength":324,
			"byteOffset":14948,
			"target":34963
		},
		{
			"buffer":0,
			"byteLength":2076,
			"byteOffset":15272,
			"target":34962
		},
		{
			"buffer":0,
			"byteLength":2076,
			"byteOffset":17348,
			"target":34962
		},
		{
			"buffer":0,
			"byteLength":1384,
			"byteOffset":19424,
			"target":34962
		},
		{
			"buffer":0,
			"byteLength":768,
			"byteOffset":20808,
			"target":34963
		},
		{
			"buffer":0,
			"byteLength":1824,
			"byteOffset":21576,
			"target":34962
		},
		{
			"buffer":0,
			"byteLength":1824,
			"byteOffset":23400,
			"target":34962
		},
		{
			"buffer":0,
			"byteLength":1216,
			"byteOffset":25224,
			"target":34962
		},
		{
			"buffer":0,
			"byteLength":624,
			"byteOffset":26440,
			"target":34963
		},
		{
			"buffer":0,
			"byteLength":1632,
			"byteOffset":27064,
			"target":34962
		},
		{
			"buffer":0,
			"byteLength":1632,
			"byteOffset":28696,
			"target":34962
		},
		{
			"buffer":0,
			"byteLength":1088,
			"byteOffset":30328,
			"target":34962
		},
		{
			"buffer":0,
			"byteLength":600,
			"byteOffset":31416,
			"target":34963
		},
		{
			"buffer":0,
			"byteLength":1500,
			"byteOffset":32016,
			"target":34962
		},
		{
			"buffer":0,
			"byteLength":1500,
			"byteOffset":33516,
			"target":34962
		},
		{
			"buffer":0,
			"byteLength":1000,
			"byteOffset":35016,
			"target":34962
		},
		{
			"buffer":0,
			"byteLength":456,
			"byteOffset":36016,
			"target":34963
		},
		{
			"buffer":0,
			"byteLength":864,
			"byteOffset":36472,
			"target":34962
		},
		{
			"buffer":0,
			"byteLength":864,
			"byteOffset":37336,
			"target":34962
		},
		{
			"buffer":0,
			"byteLength":576,
			"byteOffset":38200,
			"target":34962
		},
		{
			"buffer":0,
			"byteLength":228,
			"byteOffset":38776,
			"target":34963
		},
		{
			"buffer":0,
			"byteLength":1128,
			"byteOffset":39004,
			"target":34962
		},
		{
			"buffer":0,
			"byteLength":1128,
			"byteOffset":40132,
			"target":34962
		},
		{
			"buffer":0,
			"byteLength":752,
			"byteOffset":41260,
			"target":34962
		},
		{
			"buffer":0,
			"byteLength":324,
			"byteOffset":42012,
			"target":34963
		},
		{
			"buffer":0,
			"byteLength":1896,
			"byteOffset":42336,
			"target":34962
		},
		{
			"buffer":0,
			"byteLength":1896,
			"byteOffset":44232,
			"target":34962
		},
		{
			"buffer":0,
			"byteLength":1264,
			"byteOffset":46128,
			"target":34962
		},
		{
			"buffer":0,
			"byteLength":696,
			"byteOffset":47392,
			"target":34963
		},
		{
			"buffer":0,
			"byteLength":1824,
			"byteOffset":48088,
			"target":34962
		},
		{
			"buffer":0,
			"byteLength":1824,
			"byteOffset":49912,
			"target":34962
		},
		{
			"buffer":0,
			"byteLength":1216,
			"byteOffset":51736,
			"target":34962
		},
		{
			"buffer":0,
			"byteLength":624,
			"byteOffset":52952,
			"target":34963
		},
		{
			"buffer":0,
			"byteLength":1392,
			"byteOffset":53576,
			"target":34962
		},
		{
			"buffer":0,
			"byteLength":1392,
			"byteOffset":54968,
			"target":34962
		},
		{
			"buffer":0,
			"byteLength":928,
			"byteOffset":56360,
			"target":34962
		},
		{
			"buffer":0,
			"byteLength":420,
			"byteOffset":57288,
			"target":34963
		},
		{
			"buffer":0,
			"byteLength":1344,
			"byteOffset":57708,
			"target":34962
		},
		{
			"buffer":0,
			"byteLength":1344,
			"byteOffset":59052,
			"target":34962
		},
		{
			"buffer":0,
			"byteLength":896,
			"byteOffset":60396,
			"target":34962
		},
		{
			"buffer":0,
			"byteLength":420,
			"byteOffset":61292,
			"target":34963
		},
		{
			"buffer":0,
			"byteLength":1344,
			"byteOffset":61712,
			"target":34962
		},
		{
			"buffer":0,
			"byteLength":1344,
			"byteOffset":63056,
			"target":34962
		},
		{
			"buffer":0,
			"byteLength":896,
			"byteOffset":64400,
			"target":34962
		},
		{
			"buffer":0,
			"byteLength":420,
			"byteOffset":65296,
			"target":34963
		},
		{
			"buffer":0,
			"byteLength":1392,
			"byteOffset":65716,
			"target":34962
		},
		{
			"buffer":0,
			"byteLength":1392,
			"byteOffset":67108,
			"target":34962
		},
		{
			"buffer":0,
			"byteLength":928,
			"byteOffset":68500,
			"target":34962
		},
		{
			"buffer":0,
			"byteLength":420,
			"byteOffset":69428,
			"target":34963
		},
		{
			"buffer":0,
			"byteLength":40608,
			"byteOffset":69848,
			"target":34962
		},
		{
			"buffer":0,
			"byteLength":40608,
			"byteOffset":110456,
			"target":34962
		},
		{
			"buffer":0,
			"byteLength":27072,
			"byteOffset":151064,
			"target":34962
		},
		{
			"buffer":0,
			"byteLength":10548,
			"byteOffset":178136,
			"target":34963
		},
		{
			"buffer":0,
			"byteLength":5976,
			"byteOffset":188684,
			"target":34962
		},
		{
			"buffer":0,
			"byteLength":5976,
			"byteOffset":194660,
			"target":34962
		},
		{
			"buffer":0,
			"byteLength":3984,
			"byteOffset":200636,
			"target":34962
		},
		{
			"buffer":0,
			"byteLength":1644,
			"byteOffset":204620,
			"target":34963
		},
		{
			"buffer":0,
			"byteLength":11988,
			"byteOffset":206264,
			"target":34962
		},
		{
			"buffer":0,
			"byteLength":11988,
			"byteOffset":218252,
			"target":34962
		},
		{
			"buffer":0,
			"byteLength":7992,
			"byteOffset":230240,
			"target":34962
		},
		{
			"buffer":0,
			"byteLength":5058,
			"byteOffset":238232,
			"target":34963
		},
		{
			"buffer":0,
			"byteLength":696,
			"byteOffset":243292,
			"target":34962
		},
		{
			"buffer":0,
			"byteLength":696,
			"byteOffset":243988,
			"target":34962
		},
		{
			"buffer":0,
			"byteLength":464,
			"byteOffset":244684,
			"target":34962
		},
		{
			"buffer":0,
			"byteLength":324,
			"byteOffset":245148,
			"target":34963
		},
		{
			"buffer":0,
			"byteLength":11868,
			"byteOffset":245472,
			"target":34962
		},
		{
			"buffer":0,
			"byteLength":11868,
			"byteOffset":257340,
			"target":34962
		},
		{
			"buffer":0,
			"byteLength":7912,
			"byteOffset":269208,
			"target":34962
		},
		{
			"buffer":0,
			"byteLength":4908,
			"byteOffset":277120,
			"target":34963
		},
		{
			"buffer":0,
			"byteLength":696,
			"byteOffset":282028,
			"target":34962
		},
		{
			"buffer":0,
			"byteLength":696,
			"byteOffset":282724,
			"target":34962
		},
		{
			"buffer":0,
			"byteLength":464,
			"byteOffset":283420,
			"target":34962
		},
		{
			"buffer":0,
			"byteLength":11208,
			"byteOffset":283884,
			"target":34962
		},
		{
			"buffer":0,
			"byteLength":11208,
			"byteOffset":295092,
			"target":34962
		},
		{
			"buffer":0,
			"byteLength":7472,
			"byteOffset":306300,
			"target":34962
		},
		{
			"buffer":0,
			"byteLength":4680,
			"byteOffset":313772,
			"target":34963
		},
		{
			"buffer":0,
			"byteLength":696,
			"byteOffset":318452,
			"target":34962
		},
		{
			"buffer":0,
			"byteLength":696,
			"byteOffset":319148,
			"target":34962
		},
		{
			"buffer":0,
			"byteLength":464,
			"byteOffset":319844,
			"target":34962
		},
		{
			"buffer":0,
			"byteLength":324,
			"byteOffset":320308,
			"target":34963
		},
		{
			"buffer":0,
			"byteLength":11508,
			"byteOffset":320632,
			"target":34962
		},
		{
			"buffer":0,
			"byteLength":11508,
			"byteOffset":332140,
			"target":34962
		},
		{
			"buffer":0,
			"byteLength":7672,
			"byteOffset":343648,
			"target":34962
		},
		{
			"buffer":0,
			"byteLength":4776,
			"byteOffset":351320,
			"target":34963
		},
		{
			"buffer":0,
			"byteLength":696,
			"byteOffset":356096,
			"target":34962
		},
		{
			"buffer":0,
			"byteLength":696,
			"byteOffset":356792,
			"target":34962
		},
		{
			"buffer":0,
			"byteLength":464,
			"byteOffset":357488,
			"target":34962
		},
		{
			"buffer":0,
			"byteLength":324,
			"byteOffset":357952,
			"target":34963
		},
		{
			"buffer":0,
			"byteLength":12240,
			"byteOffset":358276,
			"target":34962
		},
		{
			"buffer":0,
			"byteLength":12240,
			"byteOffset":370516,
			"target":34962
		},
		{
			"buffer":0,
			"byteLength":8160,
			"byteOffset":382756,
			"target":34962
		},
		{
			"buffer":0,
			"byteLength":5148,
			"byteOffset":390916,
			"target":34963
		},
		{
			"buffer":0,
			"byteLength":696,
			"byteOffset":396064,
			"target":34962
		},
		{
			"buffer":0,
			"byteLength":696,
			"byteOffset":396760,
			"target":34962
		},
		{
			"buffer":0,
			"byteLength":464,
			"byteOffset":397456,
			"target":34962
		},
		{
			"buffer":0,
			"byteLength":324,
			"byteOffset":397920,
			"target":34963
		},
		{
			"buffer":0,
			"byteLength":12012,
			"byteOffset":398244,
			"target":34962
		},
		{
			"buffer":0,
			"byteLength":12012,
			"byteOffset":410256,
			"target":34962
		},
		{
			"buffer":0,
			"byteLength":8008,
			"byteOffset":422268,
			"target":34962
		},
		{
			"buffer":0,
			"byteLength":5010,
			"byteOffset":430276,
			"target":34963
		},
		{
			"buffer":0,
			"byteLength":696,
			"byteOffset":435288,
			"target":34962
		},
		{
			"buffer":0,
			"byteLength":696,
			"byteOffset":435984,
			"target":34962
		},
		{
			"buffer":0,
			"byteLength":464,
			"byteOffset":436680,
			"target":34962
		},
		{
			"buffer":0,
			"byteLength":12024,
			"byteOffset":437144,
			"target":34962
		},
		{
			"buffer":0,
			"byteLength":12024,
			"byteOffset":449168,
			"target":34962
		},
		{
			"buffer":0,
			"byteLength":8016,
			"byteOffset":461192,
			"target":34962
		},
		{
			"buffer":0,
			"byteLength":5052,
			"byteOffset":469208,
			"target":34963
		},
		{
			"buffer":0,
			"byteLength":696,
			"byteOffset":474260,
			"target":34962
		},
		{
			"buffer":0,
			"byteLength":696,
			"byteOffset":474956,
			"target":34962
		},
		{
			"buffer":0,
			"byteLength":464,
			"byteOffset":475652,
			"target":34962
		},
		{
			"buffer":0,
			"byteLength":324,
			"byteOffset":476116,
			"target":34963
		},
		{
			"buffer":0,
			"byteLength":11844,
			"byteOffset":476440,
			"target":34962
		},
		{
			"buffer":0,
			"byteLength":11844,
			"byteOffset":488284,
			"target":34962
		},
		{
			"buffer":0,
			"byteLength":7896,
			"byteOffset":500128,
			"target":34962
		},
		{
			"buffer":0,
			"byteLength":4908,
			"byteOffset":508024,
			"target":34963
		},
		{
			"buffer":0,
			"byteLength":696,
			"byteOffset":512932,
			"target":34962
		},
		{
			"buffer":0,
			"byteLength":696,
			"byteOffset":513628,
			"target":34962
		},
		{
			"buffer":0,
			"byteLength":464,
			"byteOffset":514324,
			"target":34962
		},
		{
			"buffer":0,
			"byteLength":324,
			"byteOffset":514788,
			"target":34963
		},
		{
			"buffer":0,
			"byteLength":11184,
			"byteOffset":515112,
			"target":34962
		},
		{
			"buffer":0,
			"byteLength":11184,
			"byteOffset":526296,
			"target":34962
		},
		{
			"buffer":0,
			"byteLength":7456,
			"byteOffset":537480,
			"target":34962
		},
		{
			"buffer":0,
			"byteLength":4668,
			"byteOffset":544936,
			"target":34963
		},
		{
			"buffer":0,
			"byteLength":696,
			"byteOffset":549604,
			"target":34962
		},
		{
			"buffer":0,
			"byteLength":696,
			"byteOffset":550300,
			"target":34962
		},
		{
			"buffer":0,
			"byteLength":464,
			"byteOffset":550996,
			"target":34962
		},
		{
			"buffer":0,
			"byteLength":11508,
			"byteOffset":551460,
			"target":34962
		},
		{
			"buffer":0,
			"byteLength":11508,
			"byteOffset":562968,
			"target":34962
		},
		{
			"buffer":0,
			"byteLength":7672,
			"byteOffset":574476,
			"target":34962
		},
		{
			"buffer":0,
			"byteLength":4776,
			"byteOffset":582148,
			"target":34963
		},
		{
			"buffer":0,
			"byteLength":696,
			"byteOffset":586924,
			"target":34962
		},
		{
			"buffer":0,
			"byteLength":696,
			"byteOffset":587620,
			"target":34962
		},
		{
			"buffer":0,
			"byteLength":464,
			"byteOffset":588316,
			"target":34962
		},
		{
			"buffer":0,
			"byteLength":324,
			"byteOffset":588780,
			"target":34963
		},
		{
			"buffer":0,
			"byteLength":12192,
			"byteOffset":589104,
			"target":34962
		},
		{
			"buffer":0,
			"byteLength":12192,
			"byteOffset":601296,
			"target":34962
		},
		{
			"buffer":0,
			"byteLength":8128,
			"byteOffset":613488,
			"target":34962
		},
		{
			"buffer":0,
			"byteLength":5148,
			"byteOffset":621616,
			"target":34963
		},
		{
			"buffer":0,
			"byteLength":696,
			"byteOffset":626764,
			"target":34962
		},
		{
			"buffer":0,
			"byteLength":696,
			"byteOffset":627460,
			"target":34962
		},
		{
			"buffer":0,
			"byteLength":464,
			"byteOffset":628156,
			"target":34962
		},
		{
			"buffer":0,
			"byteLength":324,
			"byteOffset":628620,
			"target":34963
		},
		{
			"buffer":0,
			"byteLength":12060,
			"byteOffset":628944,
			"target":34962
		},
		{
			"buffer":0,
			"byteLength":12060,
			"byteOffset":641004,
			"target":34962
		},
		{
			"buffer":0,
			"byteLength":8040,
			"byteOffset":653064,
			"target":34962
		},
		{
			"buffer":0,
			"byteLength":5034,
			"byteOffset":661104,
			"target":34963
		},
		{
			"buffer":0,
			"byteLength":696,
			"byteOffset":666140,
			"target":34962
		},
		{
			"buffer":0,
			"byteLength":696,
			"byteOffset":666836,
			"target":34962
		},
		{
			"buffer":0,
			"byteLength":464,
			"byteOffset":667532,
			"target":34962
		},
		{
			"buffer":0,
			"byteLength":5052,
			"byteOffset":667996,
			"target":34962
		},
		{
			"buffer":0,
			"byteLength":5052,
			"byteOffset":673048,
			"target":34962
		},
		{
			"buffer":0,
			"byteLength":3368,
			"byteOffset":678100,
			"target":34962
		},
		{
			"buffer":0,
			"byteLength":1680,
			"byteOffset":681468,
			"target":34963
		},
		{
			"buffer":0,
			"byteLength":5172,
			"byteOffset":683148,
			"target":34962
		},
		{
			"buffer":0,
			"byteLength":5172,
			"byteOffset":688320,
			"target":34962
		},
		{
			"buffer":0,
			"byteLength":3448,
			"byteOffset":693492,
			"target":34962
		},
		{
			"buffer":0,
			"byteLength":1536,
			"byteOffset":696940,
			"target":34963
		},
		{
			"buffer":0,
			"byteLength":4560,
			"byteOffset":698476,
			"target":34962
		},
		{
			"buffer":0,
			"byteLength":4560,
			"byteOffset":703036,
			"target":34962
		},
		{
			"buffer":0,
			"byteLength":3040,
			"byteOffset":707596,
			"target":34962
		},
		{
			"buffer":0,
			"byteLength":1320,
			"byteOffset":710636,
			"target":34963
		},
		{
			"buffer":0,
			"byteLength":4860,
			"byteOffset":711956,
			"target":34962
		},
		{
			"buffer":0,
			"byteLength":4860,
			"byteOffset":716816,
			"target":34962
		},
		{
			"buffer":0,
			"byteLength":3240,
			"byteOffset":721676,
			"target":34962
		},
		{
			"buffer":0,
			"byteLength":1440,
			"byteOffset":724916,
			"target":34963
		},
		{
			"buffer":0,
			"byteLength":5796,
			"byteOffset":726356,
			"target":34962
		},
		{
			"buffer":0,
			"byteLength":5796,
			"byteOffset":732152,
			"target":34962
		},
		{
			"buffer":0,
			"byteLength":3864,
			"byteOffset":737948,
			"target":34962
		},
		{
			"buffer":0,
			"byteLength":1860,
			"byteOffset":741812,
			"target":34963
		},
		{
			"buffer":0,
			"byteLength":5520,
			"byteOffset":743672,
			"target":34962
		},
		{
			"buffer":0,
			"byteLength":5520,
			"byteOffset":749192,
			"target":34962
		},
		{
			"buffer":0,
			"byteLength":3680,
			"byteOffset":754712,
			"target":34962
		},
		{
			"buffer":0,
			"byteLength":1716,
			"byteOffset":758392,
			"target":34963
		},
		{
			"buffer":0,
			"byteLength":5160,
			"byteOffset":760108,
			"target":34962
		},
		{
			"buffer":0,
			"byteLength":5160,
			"byteOffset":765268,
			"target":34962
		},
		{
			"buffer":0,
			"byteLength":3440,
			"byteOffset":770428,
			"target":34962
		},
		{
			"buffer":0,
			"byteLength":1560,
			"byteOffset":773868,
			"target":34963
		},
		{
			"buffer":0,
			"byteLength":4920,
			"byteOffset":775428,
			"target":34962
		},
		{
			"buffer":0,
			"byteLength":4920,
			"byteOffset":780348,
			"target":34962
		},
		{
			"buffer":0,
			"byteLength":3280,
			"byteOffset":785268,
			"target":34962
		},
		{
			"buffer":0,
			"byteLength":1560,
			"byteOffset":788548,
			"target":34963
		},
		{
			"buffer":0,
			"byteLength":5112,
			"byteOffset":790108,
			"target":34962
		},
		{
			"buffer":0,
			"byteLength":5112,
			"byteOffset":795220,
			"target":34962
		},
		{
			"buffer":0,
			"byteLength":3408,
			"byteOffset":800332,
			"target":34962
		},
		{
			"buffer":0,
			"byteLength":1560,
			"byteOffset":803740,
			"target":34963
		},
		{
			"buffer":0,
			"byteLength":5160,
			"byteOffset":805300,
			"target":34962
		},
		{
			"buffer":0,
			"byteLength":5160,
			"byteOffset":810460,
			"target":34962
		},
		{
			"buffer":0,
			"byteLength":3440,
			"byteOffset":815620,
			"target":34962
		},
		{
			"buffer":0,
			"byteLength":1560,
			"byteOffset":819060,
			"target":34963
		},
		{
			"buffer":0,
			"byteLength":5028,
			"byteOffset":820620,
			"target":34962
		},
		{
			"buffer":0,
			"byteLength":5028,
			"byteOffset":825648,
			"target":34962
		},
		{
			"buffer":0,
			"byteLength":3352,
			"byteOffset":830676,
			"target":34962
		},
		{
			"buffer":0,
			"byteLength":1668,
			"byteOffset":834028,
			"target":34963
		},
		{
			"buffer":0,
			"byteLength":5148,
			"byteOffset":835696,
			"target":34962
		},
		{
			"buffer":0,
			"byteLength":5148,
			"byteOffset":840844,
			"target":34962
		},
		{
			"buffer":0,
			"byteLength":3432,
			"byteOffset":845992,
			"target":34962
		},
		{
			"buffer":0,
			"byteLength":1524,
			"byteOffset":849424,
			"target":34963
		},
		{
			"buffer":0,
			"byteLength":4560,
			"byteOffset":850948,
			"target":34962
		},
		{
			"buffer":0,
			"byteLength":4560,
			"byteOffset":855508,
			"target":34962
		},
		{
			"buffer":0,
			"byteLength":3040,
			"byteOffset":860068,
			"target":34962
		},
		{
			"buffer":0,
			"byteLength":1320,
			"byteOffset":863108,
			"target":34963
		},
		{
			"buffer":0,
			"byteLength":4860,
			"byteOffset":864428,
			"target":34962
		},
		{
			"buffer":0,
			"byteLength":4860,
			"byteOffset":869288,
			"target":34962
		},
		{
			"buffer":0,
			"byteLength":3240,
			"byteOffset":874148,
			"target":34962
		},
		{
			"buffer":0,
			"byteLength":1440,
			"byteOffset":877388,
			"target":34963
		},
		{
			"buffer":0,
			"byteLength":5580,
			"byteOffset":878828,
			"target":34962
		},
		{
			"buffer":0,
			"byteLength":5580,
			"byteOffset":884408,
			"target":34962
		},
		{
			"buffer":0,
			"byteLength":3720,
			"byteOffset":889988,
			"target":34962
		},
		{
			"buffer":0,
			"byteLength":1788,
			"byteOffset":893708,
			"target":34963
		},
		{
			"buffer":0,
			"byteLength":5520,
			"byteOffset":895496,
			"target":34962
		},
		{
			"buffer":0,
			"byteLength":5520,
			"byteOffset":901016,
			"target":34962
		},
		{
			"buffer":0,
			"byteLength":3680,
			"byteOffset":906536,
			"target":34962
		},
		{
			"buffer":0,
			"byteLength":1716,
			"byteOffset":910216,
			"target":34963
		},
		{
			"buffer":0,
			"byteLength":12624,
			"byteOffset":911932,
			"target":34962
		},
		{
			"buffer":0,
			"byteLength":12624,
			"byteOffset":924556,
			"target":34962
		},
		{
			"buffer":0,
			"byteLength":8416,
			"byteOffset":937180,
			"target":34962
		},
		{
			"buffer":0,
			"byteLength":3144,
			"byteOffset":945596,
			"target":34963
		},
		{
			"buffer":0,
			"byteLength":1476,
			"byteOffset":948740,
			"target":34962
		},
		{
			"buffer":0,
			"byteLength":1476,
			"byteOffset":950216,
			"target":34962
		},
		{
			"buffer":0,
			"byteLength":984,
			"byteOffset":951692,
			"target":34962
		},
		{
			"buffer":0,
			"byteLength":420,
			"byteOffset":952676,
			"target":34963
		},
		{
			"buffer":0,
			"byteLength":1284,
			"byteOffset":953096,
			"target":34962
		},
		{
			"buffer":0,
			"byteLength":1284,
			"byteOffset":954380,
			"target":34962
		},
		{
			"buffer":0,
			"byteLength":856,
			"byteOffset":955664,
			"target":34962
		},
		{
			"buffer":0,
			"byteLength":348,
			"byteOffset":956520,
			"target":34963
		},
		{
			"buffer":0,
			"byteLength":1284,
			"byteOffset":956868,
			"target":34962
		},
		{
			"buffer":0,
			"byteLength":1284,
			"byteOffset":958152,
			"target":34962
		},
		{
			"buffer":0,
			"byteLength":856,
			"byteOffset":959436,
			"target":34962
		},
		{
			"buffer":0,
			"byteLength":348,
			"byteOffset":960292,
			"target":34963
		},
		{
			"buffer":0,
			"byteLength":3504,
			"byteOffset":960640,
			"target":34962
		},
		{
			"buffer":0,
			"byteLength":3504,
			"byteOffset":964144,
			"target":34962
		},
		{
			"buffer":0,
			"byteLength":2336,
			"byteOffset":967648,
			"target":34962
		},
		{
			"buffer":0,
			"byteLength":1248,
			"byteOffset":969984,
			"target":34963
		},
		{
			"buffer":0,
			"byteLength":3504,
			"byteOffset":971232,
			"target":34962
		},
		{
			"buffer":0,
			"byteLength":3504,
			"byteOffset":974736,
			"target":34962
		},
		{
			"buffer":0,
			"byteLength":2336,
			"byteOffset":978240,
			"target":34962
		},
		{
			"buffer":0,
			"byteLength":1248,
			"byteOffset":980576,
			"target":34963
		}
	],
	"buffers":[
		{
			"byteLength":981824,
			"uri":"Walls_Floors_Style_A.bin"
		}
	]
}
