{
	"asset":{
		"generator":"Khronos glTF Blender I/O v3.6.27",
		"version":"2.0"
	},
	"scene":0,
	"scenes":[
		{
			"name":"Scene",
			"nodes":[
				0,
				1,
				2,
				3,
				4,
				5,
				6,
				7,
				8,
				9,
				10,
				11,
				12,
				13,
				14,
				15,
				16,
				17,
				18,
				19,
				20,
				21,
				22,
				23,
				24,
				25,
				26,
				27,
				28,
				29,
				30,
				31,
				32,
				33,
				34,
				35,
				36,
				37,
				38,
				39,
				40,
				41,
				42,
				43,
				44,
				45,
				46,
				47,
				48,
				49,
				50,
				51,
				52,
				53,
				54,
				55
			]
		}
	],
	"nodes":[
		{
			"mesh":0,
			"name":"Wall_B_Light_Mid_End_XL",
			"translation":[
				-20,
				0,
				13
			]
		},
		{
			"mesh":1,
			"name":"Wall_B_Light_Mid_End_X",
			"translation":[
				-20,
				0,
				8
			]
		},
		{
			"mesh":2,
			"name":"Wall_B_Light_Mid",
			"translation":[
				-20,
				0,
				4
			]
		},
		{
			"mesh":3,
			"name":"Wall_B_Light_Corner_Mid",
			"translation":[
				-20,
				0,
				0
			]
		},
		{
			"mesh":4,
			"name":"Wall_B_Light_Corner_End_XL",
			"translation":[
				-10,
				0,
				6
			]
		},
		{
			"mesh":5,
			"name":"Wall_B_Light_Corner_End_X",
			"translation":[
				-16,
				0,
				6
			]
		},
		{
			"mesh":6,
			"name":"Wall_B_Dark_Mid_End_XL",
			"translation":[
				-7,
				0,
				0
			]
		},
		{
			"mesh":7,
			"name":"Wall_B_Dark_Mid_End_X",
			"translation":[
				-12,
				0,
				0
			]
		},
		{
			"mesh":8,
			"name":"Wall_B_Dark_Mid",
			"translation":[
				-16,
				0,
				0
			]
		},
		{
			"mesh":9,
			"name":"Wall_B_Dark_Corner_Mid",
			"translation":[
				-20,
				0,
				0
			]
		},
		{
			"mesh":10,
			"name":"Wall_B_Dark_Corner_End_XL",
			"translation":[
				-10,
				0,
				6
			]
		},
		{
			"mesh":11,
			"name":"Wall_B_Dark_Corner_End_X",
			"translation":[
				-16,
				0,
				6
			]
		},
		{
			"mesh":12,
			"name":"Wall_B_Enclosed_Corner_W",
			"translation":[
				-14,
				0,
				14
			]
		},
		{
			"mesh":13,
			"name":"Wall_B_Enclosed_Corner_S",
			"translation":[
				-14,
				0,
				14
			]
		},
		{
			"mesh":14,
			"name":"Wall_B_Enclosed_Corner_N",
			"translation":[
				-14,
				0,
				14
			]
		},
		{
			"mesh":15,
			"name":"Wall_B_Enclosed_Corner_E",
			"translation":[
				-14,
				0,
				14
			]
		},
		{
			"mesh":16,
			"name":"Flooring_B_Tiling"
		},
		{
			"mesh":17,
			"name":"Flooring_B_Entrance",
			"translation":[
				-1,
				0,
				2
			]
		},
		{
			"mesh":18,
			"name":"Wall_B_Window_Light_Table_End",
			"translation":[
				9,
				0,
				13
			]
		},
		{
			"mesh":19,
			"name":"Wall_B_Window_Light_Table",
			"translation":[
				9,
				0,
				8
			]
		},
		{
			"mesh":20,
			"name":"Wall_B_Window_Light_Mid_End_XL",
			"translation":[
				9,
				0,
				13
			]
		},
		{
			"mesh":21,
			"name":"Wall_B_Window_Light_Mid_End_X",
			"translation":[
				9,
				0,
				8
			]
		},
		{
			"mesh":22,
			"name":"Wall_B_Window_Light_Mid",
			"translation":[
				9,
				0,
				4
			]
		},
		{
			"mesh":23,
			"name":"Wall_B_Window_Light_Corner_Mid",
			"translation":[
				9,
				0,
				0
			]
		},
		{
			"mesh":24,
			"name":"Wall_B_Window_Light_Corner_End_XL",
			"translation":[
				19,
				0,
				6
			]
		},
		{
			"mesh":25,
			"name":"Wall_B_Window_Light_Corner_End_X",
			"translation":[
				13,
				0,
				6
			]
		},
		{
			"mesh":26,
			"name":"Wall_B_Window_Dark_Table_End",
			"translation":[
				22,
				0,
				0
			]
		},
		{
			"mesh":27,
			"name":"Wall_B_Window_Dark_Table",
			"translation":[
				17,
				0,
				0
			]
		},
		{
			"mesh":28,
			"name":"Wall_B_Window_Dark_Mid_End_XL",
			"translation":[
				22,
				0,
				0
			]
		},
		{
			"mesh":29,
			"name":"Wall_B_Window_Dark_Mid_End_X",
			"translation":[
				17,
				0,
				0
			]
		},
		{
			"mesh":30,
			"name":"Wall_B_Window_Dark_Mid",
			"translation":[
				13,
				0,
				0
			]
		},
		{
			"mesh":31,
			"name":"Wall_B_Window_Dark_Corner_Mid",
			"translation":[
				9,
				0,
				0
			]
		},
		{
			"mesh":32,
			"name":"Wall_B_Window_Dark_Corner_End_XL",
			"translation":[
				19,
				0,
				6
			]
		},
		{
			"mesh":33,
			"name":"Wall_B_Window_Dark_Corner_End_X",
			"translation":[
				13,
				0,
				6
			]
		},
		{
			"mesh":34,
			"name":"Wall_Door_B_Light_Mid_End_XL",
			"translation":[
				-20,
				0,
				37
			]
		},
		{
			"mesh":35,
			"name":"Wall_Door_B_Light_Mid_End_X",
			"translation":[
				-20,
				0,
				31
			]
		},
		{
			"mesh":36,
			"name":"Wall_Door_B_Light_Mid",
			"translation":[
				-20,
				0,
				27
			]
		},
		{
			"mesh":37,
			"name":"Wall_Door_B_Light_Corner_Mid",
			"translation":[
				-20,
				0,
				23
			]
		},
		{
			"mesh":38,
			"name":"Wall_Door_B_Light_Corner_End_XL",
			"translation":[
				-10,
				0,
				26
			]
		},
		{
			"mesh":39,
			"name":"Wall_Door_B_Light_Corner_End_X",
			"translation":[
				-16,
				0,
				26
			]
		},
		{
			"mesh":40,
			"name":"Wall_Door_B_Enclosed_Corner_W",
			"translation":[
				-14,
				0,
				37
			]
		},
		{
			"mesh":41,
			"name":"Wall_Door_B_Enclosed_Corner_S",
			"translation":[
				-14,
				0,
				37
			]
		},
		{
			"mesh":42,
			"name":"Wall_Door_B_Enclosed_Corner_N",
			"translation":[
				-14,
				0,
				37
			]
		},
		{
			"mesh":43,
			"name":"Wall_Door_B_Enclosed_Corner_E",
			"translation":[
				-14,
				0,
				37
			]
		},
		{
			"mesh":44,
			"name":"Wall_Door_B_Dark_Mid_End_XL",
			"translation":[
				-7,
				0,
				23
			]
		},
		{
			"mesh":45,
			"name":"Wall_Door_B_Dark_Mid_End_X",
			"translation":[
				-12,
				0,
				23
			]
		},
		{
			"mesh":46,
			"name":"Wall_Door_B_Dark_Mid",
			"translation":[
				-16,
				0,
				23
			]
		},
		{
			"mesh":47,
			"name":"Wall_Door_B_Dark_Corner_Mid",
			"translation":[
				-20,
				0,
				23
			]
		},
		{
			"mesh":48,
			"name":"Wall_Door_B_Dark_Corner_End_XL",
			"translation":[
				-10,
				0,
				26
			]
		},
		{
			"mesh":49,
			"name":"Wall_Door_B_Dark_Corner_End_X",
			"translation":[
				-16,
				0,
				26
			]
		},
		{
			"mesh":50,
			"name":"Door_Style_B_2",
			"translation":[
				-15,
				0,
				41
			]
		},
		{
			"mesh":51,
			"name":"Door_Style_B_1",
			"translation":[
				-13,
				0,
				41
			]
		},
		{
			"mesh":52,
			"name":"Wall_Pillar_B_Light",
			"translation":[
				-20,
				0,
				0
			]
		},
		{
			"mesh":53,
			"name":"Wall_Pillar_B_Dark",
			"translation":[
				-20,
				0,
				0
			]
		},
		{
			"mesh":54,
			"name":"Wall_Arc_B_Light_Mid",
			"translation":[
				-16,
				0,
				6
			]
		},
		{
			"mesh":55,
			"name":"Wall_Arc_B_Dark_Mid",
			"translation":[
				-10,
				0,
				6
			]
		}
	],
	"meshes":[
		{
			"name":"Wall_B_Light_Mid_End_XL",
			"primitives":[
				{
					"attributes":{
						"POSITION":0,
						"NORMAL":1,
						"TEXCOORD_0":2
					},
					"indices":3
				}
			]
		},
		{
			"name":"Wall_B_Light_Mid_End_X",
			"primitives":[
				{
					"attributes":{
						"POSITION":4,
						"NORMAL":5,
						"TEXCOORD_0":6
					},
					"indices":7
				}
			]
		},
		{
			"name":"Wall_B_Light_Mid",
			"primitives":[
				{
					"attributes":{
						"POSITION":8,
						"NORMAL":9,
						"TEXCOORD_0":10
					},
					"indices":11
				}
			]
		},
		{
			"name":"Wall_B_Light_Corner_Mid",
			"primitives":[
				{
					"attributes":{
						"POSITION":12,
						"NORMAL":13,
						"TEXCOORD_0":14
					},
					"indices":15
				}
			]
		},
		{
			"name":"Wall_B_Light_Corner_End_XL",
			"primitives":[
				{
					"attributes":{
						"POSITION":16,
						"NORMAL":17,
						"TEXCOORD_0":18
					},
					"indices":19
				}
			]
		},
		{
			"name":"Wall_B_Light_Corner_End_X",
			"primitives":[
				{
					"attributes":{
						"POSITION":20,
						"NORMAL":21,
						"TEXCOORD_0":22
					},
					"indices":23
				}
			]
		},
		{
			"name":"Wall_B_Dark_Mid_End_XL",
			"primitives":[
				{
					"attributes":{
						"POSITION":24,
						"NORMAL":25,
						"TEXCOORD_0":26
					},
					"indices":27
				}
			]
		},
		{
			"name":"Wall_B_Dark_Mid_End_X",
			"primitives":[
				{
					"attributes":{
						"POSITION":28,
						"NORMAL":29,
						"TEXCOORD_0":30
					},
					"indices":31
				}
			]
		},
		{
			"name":"Wall_B_Dark_Mid",
			"primitives":[
				{
					"attributes":{
						"POSITION":32,
						"NORMAL":33,
						"TEXCOORD_0":34
					},
					"indices":35
				}
			]
		},
		{
			"name":"Wall_B_Dark_Corner_Mid",
			"primitives":[
				{
					"attributes":{
						"POSITION":36,
						"NORMAL":37,
						"TEXCOORD_0":38
					},
					"indices":39
				}
			]
		},
		{
			"name":"Wall_B_Dark_Corner_End_XL",
			"primitives":[
				{
					"attributes":{
						"POSITION":40,
						"NORMAL":41,
						"TEXCOORD_0":42
					},
					"indices":43
				}
			]
		},
		{
			"name":"Wall_B_Dark_Corner_End_X",
			"primitives":[
				{
					"attributes":{
						"POSITION":44,
						"NORMAL":45,
						"TEXCOORD_0":46
					},
					"indices":47
				}
			]
		},
		{
			"name":"Wall_B_Enclosed_Corner_W",
			"primitives":[
				{
					"attributes":{
						"POSITION":48,
						"NORMAL":49,
						"TEXCOORD_0":50
					},
					"indices":51
				}
			]
		},
		{
			"name":"Wall_B_Enclosed_Corner_S",
			"primitives":[
				{
					"attributes":{
						"POSITION":52,
						"NORMAL":53,
						"TEXCOORD_0":54
					},
					"indices":55
				}
			]
		},
		{
			"name":"Wall_B_Enclosed_Corner_N",
			"primitives":[
				{
					"attributes":{
						"POSITION":56,
						"NORMAL":57,
						"TEXCOORD_0":58
					},
					"indices":59
				}
			]
		},
		{
			"name":"Wall_B_Enclosed_Corner_E",
			"primitives":[
				{
					"attributes":{
						"POSITION":60,
						"NORMAL":61,
						"TEXCOORD_0":62
					},
					"indices":63
				}
			]
		},
		{
			"name":"Flooring_B_Tiling",
			"primitives":[
				{
					"attributes":{
						"POSITION":64,
						"NORMAL":65,
						"TEXCOORD_0":66
					},
					"indices":67
				}
			]
		},
		{
			"name":"Flooring_B_Entrance",
			"primitives":[
				{
					"attributes":{
						"POSITION":68,
						"NORMAL":69,
						"TEXCOORD_0":70
					},
					"indices":71
				}
			]
		},
		{
			"name":"Wall_B_Window_Light_Table_End",
			"primitives":[
				{
					"attributes":{
						"POSITION":72,
						"NORMAL":73,
						"TEXCOORD_0":74
					},
					"indices":75
				}
			]
		},
		{
			"name":"Wall_B_Window_Light_Table",
			"primitives":[
				{
					"attributes":{
						"POSITION":76,
						"NORMAL":77,
						"TEXCOORD_0":78
					},
					"indices":79
				}
			]
		},
		{
			"name":"Wall_B_Window_Light_Mid_End_XL",
			"primitives":[
				{
					"attributes":{
						"POSITION":80,
						"NORMAL":81,
						"TEXCOORD_0":82
					},
					"indices":83
				},
				{
					"attributes":{
						"POSITION":84,
						"NORMAL":85,
						"TEXCOORD_0":86
					},
					"indices":87
				}
			]
		},
		{
			"name":"Wall_B_Window_Light_Mid_End_X",
			"primitives":[
				{
					"attributes":{
						"POSITION":88,
						"NORMAL":89,
						"TEXCOORD_0":90
					},
					"indices":91
				},
				{
					"attributes":{
						"POSITION":92,
						"NORMAL":93,
						"TEXCOORD_0":94
					},
					"indices":95
				}
			]
		},
		{
			"name":"Wall_B_Window_Light_Mid",
			"primitives":[
				{
					"attributes":{
						"POSITION":96,
						"NORMAL":97,
						"TEXCOORD_0":98
					},
					"indices":99
				},
				{
					"attributes":{
						"POSITION":100,
						"NORMAL":101,
						"TEXCOORD_0":102
					},
					"indices":95
				}
			]
		},
		{
			"name":"Wall_B_Window_Light_Corner_Mid",
			"primitives":[
				{
					"attributes":{
						"POSITION":103,
						"NORMAL":104,
						"TEXCOORD_0":105
					},
					"indices":106
				},
				{
					"attributes":{
						"POSITION":107,
						"NORMAL":108,
						"TEXCOORD_0":109
					},
					"indices":95
				}
			]
		},
		{
			"name":"Wall_B_Window_Light_Corner_End_XL",
			"primitives":[
				{
					"attributes":{
						"POSITION":110,
						"NORMAL":111,
						"TEXCOORD_0":112
					},
					"indices":113
				},
				{
					"attributes":{
						"POSITION":114,
						"NORMAL":115,
						"TEXCOORD_0":116
					},
					"indices":87
				}
			]
		},
		{
			"name":"Wall_B_Window_Light_Corner_End_X",
			"primitives":[
				{
					"attributes":{
						"POSITION":117,
						"NORMAL":118,
						"TEXCOORD_0":119
					},
					"indices":120
				},
				{
					"attributes":{
						"POSITION":121,
						"NORMAL":122,
						"TEXCOORD_0":123
					},
					"indices":95
				}
			]
		},
		{
			"name":"Wall_B_Window_Dark_Table_End",
			"primitives":[
				{
					"attributes":{
						"POSITION":124,
						"NORMAL":125,
						"TEXCOORD_0":126
					},
					"indices":127
				}
			]
		},
		{
			"name":"Wall_B_Window_Dark_Table",
			"primitives":[
				{
					"attributes":{
						"POSITION":128,
						"NORMAL":129,
						"TEXCOORD_0":130
					},
					"indices":131
				}
			]
		},
		{
			"name":"Wall_B_Window_Dark_Mid_End_XL",
			"primitives":[
				{
					"attributes":{
						"POSITION":132,
						"NORMAL":133,
						"TEXCOORD_0":134
					},
					"indices":135
				},
				{
					"attributes":{
						"POSITION":136,
						"NORMAL":137,
						"TEXCOORD_0":138
					},
					"indices":87
				}
			]
		},
		{
			"name":"Wall_B_Window_Dark_Mid_End_X",
			"primitives":[
				{
					"attributes":{
						"POSITION":139,
						"NORMAL":140,
						"TEXCOORD_0":141
					},
					"indices":142
				},
				{
					"attributes":{
						"POSITION":143,
						"NORMAL":144,
						"TEXCOORD_0":145
					},
					"indices":146
				}
			]
		},
		{
			"name":"Wall_B_Window_Dark_Mid",
			"primitives":[
				{
					"attributes":{
						"POSITION":147,
						"NORMAL":148,
						"TEXCOORD_0":149
					},
					"indices":150
				},
				{
					"attributes":{
						"POSITION":151,
						"NORMAL":152,
						"TEXCOORD_0":153
					},
					"indices":95
				}
			]
		},
		{
			"name":"Wall_B_Window_Dark_Corner_Mid",
			"primitives":[
				{
					"attributes":{
						"POSITION":154,
						"NORMAL":155,
						"TEXCOORD_0":156
					},
					"indices":157
				},
				{
					"attributes":{
						"POSITION":158,
						"NORMAL":159,
						"TEXCOORD_0":160
					},
					"indices":95
				}
			]
		},
		{
			"name":"Wall_B_Window_Dark_Corner_End_XL",
			"primitives":[
				{
					"attributes":{
						"POSITION":161,
						"NORMAL":162,
						"TEXCOORD_0":163
					},
					"indices":164
				},
				{
					"attributes":{
						"POSITION":165,
						"NORMAL":166,
						"TEXCOORD_0":167
					},
					"indices":87
				}
			]
		},
		{
			"name":"Wall_B_Window_Dark_Corner_End_X",
			"primitives":[
				{
					"attributes":{
						"POSITION":168,
						"NORMAL":169,
						"TEXCOORD_0":170
					},
					"indices":171
				},
				{
					"attributes":{
						"POSITION":172,
						"NORMAL":173,
						"TEXCOORD_0":174
					},
					"indices":95
				}
			]
		},
		{
			"name":"Wall_Door_B_Light_Mid_End_XL",
			"primitives":[
				{
					"attributes":{
						"POSITION":175,
						"NORMAL":176,
						"TEXCOORD_0":177
					},
					"indices":178
				}
			]
		},
		{
			"name":"Wall_Door_B_Light_Mid_End_X",
			"primitives":[
				{
					"attributes":{
						"POSITION":179,
						"NORMAL":180,
						"TEXCOORD_0":181
					},
					"indices":182
				}
			]
		},
		{
			"name":"Wall_Door_B_Light_Mid",
			"primitives":[
				{
					"attributes":{
						"POSITION":183,
						"NORMAL":184,
						"TEXCOORD_0":185
					},
					"indices":186
				}
			]
		},
		{
			"name":"Wall_Door_B_Light_Corner_Mid",
			"primitives":[
				{
					"attributes":{
						"POSITION":187,
						"NORMAL":188,
						"TEXCOORD_0":189
					},
					"indices":190
				}
			]
		},
		{
			"name":"Wall_Door_B_Light_Corner_End_XL",
			"primitives":[
				{
					"attributes":{
						"POSITION":191,
						"NORMAL":192,
						"TEXCOORD_0":193
					},
					"indices":194
				}
			]
		},
		{
			"name":"Wall_Door_B_Light_Corner_End_X",
			"primitives":[
				{
					"attributes":{
						"POSITION":195,
						"NORMAL":196,
						"TEXCOORD_0":197
					},
					"indices":198
				}
			]
		},
		{
			"name":"Wall_Door_B_Enclosed_Corner_W",
			"primitives":[
				{
					"attributes":{
						"POSITION":199,
						"NORMAL":200,
						"TEXCOORD_0":201
					},
					"indices":202
				}
			]
		},
		{
			"name":"Wall_Door_B_Enclosed_Corner_S",
			"primitives":[
				{
					"attributes":{
						"POSITION":203,
						"NORMAL":204,
						"TEXCOORD_0":205
					},
					"indices":206
				}
			]
		},
		{
			"name":"Wall_Door_B_Enclosed_Corner_N",
			"primitives":[
				{
					"attributes":{
						"POSITION":207,
						"NORMAL":208,
						"TEXCOORD_0":209
					},
					"indices":210
				}
			]
		},
		{
			"name":"Wall_Door_B_Enclosed_Corner_E",
			"primitives":[
				{
					"attributes":{
						"POSITION":211,
						"NORMAL":212,
						"TEXCOORD_0":213
					},
					"indices":214
				}
			]
		},
		{
			"name":"Wall_Door_B_Dark_Mid_End_XL",
			"primitives":[
				{
					"attributes":{
						"POSITION":215,
						"NORMAL":216,
						"TEXCOORD_0":217
					},
					"indices":218
				}
			]
		},
		{
			"name":"Wall_Door_B_Dark_Mid_End_X",
			"primitives":[
				{
					"attributes":{
						"POSITION":219,
						"NORMAL":220,
						"TEXCOORD_0":221
					},
					"indices":222
				}
			]
		},
		{
			"name":"Wall_Door_B_Dark_Mid",
			"primitives":[
				{
					"attributes":{
						"POSITION":223,
						"NORMAL":224,
						"TEXCOORD_0":225
					},
					"indices":226
				}
			]
		},
		{
			"name":"Wall_Door_B_Dark_Corner_Mid",
			"primitives":[
				{
					"attributes":{
						"POSITION":227,
						"NORMAL":228,
						"TEXCOORD_0":229
					},
					"indices":230
				}
			]
		},
		{
			"name":"Wall_Door_B_Dark_Corner_End_XL",
			"primitives":[
				{
					"attributes":{
						"POSITION":231,
						"NORMAL":232,
						"TEXCOORD_0":233
					},
					"indices":234
				}
			]
		},
		{
			"name":"Wall_Door_B_Dark_Corner_End_X",
			"primitives":[
				{
					"attributes":{
						"POSITION":235,
						"NORMAL":236,
						"TEXCOORD_0":237
					},
					"indices":238
				}
			]
		},
		{
			"name":"Door_Style_B_2",
			"primitives":[
				{
					"attributes":{
						"POSITION":239,
						"NORMAL":240,
						"TEXCOORD_0":241
					},
					"indices":242
				},
				{
					"attributes":{
						"POSITION":243,
						"NORMAL":244,
						"TEXCOORD_0":245
					},
					"indices":246
				}
			]
		},
		{
			"name":"Door_Style_B_1",
			"primitives":[
				{
					"attributes":{
						"POSITION":247,
						"NORMAL":248,
						"TEXCOORD_0":249
					},
					"indices":250
				},
				{
					"attributes":{
						"POSITION":251,
						"NORMAL":252,
						"TEXCOORD_0":253
					},
					"indices":246
				}
			]
		},
		{
			"name":"Wall_Pillar_B_Light",
			"primitives":[
				{
					"attributes":{
						"POSITION":254,
						"NORMAL":255,
						"TEXCOORD_0":256
					},
					"indices":257
				}
			]
		},
		{
			"name":"Wall_Pillar_B_Dark",
			"primitives":[
				{
					"attributes":{
						"POSITION":258,
						"NORMAL":259,
						"TEXCOORD_0":260
					},
					"indices":261
				}
			]
		},
		{
			"name":"Wall_Arc_B_Light_Mid",
			"primitives":[
				{
					"attributes":{
						"POSITION":262,
						"NORMAL":263,
						"TEXCOORD_0":264
					},
					"indices":265
				}
			]
		},
		{
			"name":"Wall_Arc_B_Dark_Mid",
			"primitives":[
				{
					"attributes":{
						"POSITION":266,
						"NORMAL":267,
						"TEXCOORD_0":268
					},
					"indices":269
				}
			]
		}
	],
	"accessors":[
		{
			"bufferView":0,
			"componentType":5126,
			"count":138,
			"max":[
				-1.9499998092651367,
				4,
				2.049997329711914
			],
			"min":[
				-2.250000476837158,
				1.3969838619232178e-07,
				-2.000000238418579
			],
			"type":"VEC3"
		},
		{
			"bufferView":1,
			"componentType":5126,
			"count":138,
			"type":"VEC3"
		},
		{
			"bufferView":2,
			"componentType":5126,
			"count":138,
			"type":"VEC2"
		},
		{
			"bufferView":3,
			"componentType":5123,
			"count":300,
			"type":"SCALAR"
		},
		{
			"bufferView":4,
			"componentType":5126,
			"count":129,
			"max":[
				-1.9499952793121338,
				4,
				2.0500001907348633
			],
			"min":[
				-2.2500007152557373,
				2.384185791015625e-07,
				-2
			],
			"type":"VEC3"
		},
		{
			"bufferView":5,
			"componentType":5126,
			"count":129,
			"type":"VEC3"
		},
		{
			"bufferView":6,
			"componentType":5126,
			"count":129,
			"type":"VEC2"
		},
		{
			"bufferView":7,
			"componentType":5123,
			"count":228,
			"type":"SCALAR"
		},
		{
			"bufferView":8,
			"componentType":5126,
			"count":72,
			"max":[
				-1.9499965906143188,
				4,
				2.000000238418579
			],
			"min":[
				-2.2500007152557373,
				-7.450580596923828e-09,
				-2.000000238418579
			],
			"type":"VEC3"
		},
		{
			"bufferView":9,
			"componentType":5126,
			"count":72,
			"type":"VEC3"
		},
		{
			"bufferView":10,
			"componentType":5126,
			"count":72,
			"type":"VEC2"
		},
		{
			"bufferView":11,
			"componentType":5123,
			"count":114,
			"type":"SCALAR"
		},
		{
			"bufferView":12,
			"componentType":5126,
			"count":94,
			"max":[
				-1.949995994567871,
				4,
				2
			],
			"min":[
				-2.2500007152557373,
				1.3969838619232178e-07,
				-2.212745189666748
			],
			"type":"VEC3"
		},
		{
			"bufferView":13,
			"componentType":5126,
			"count":94,
			"type":"VEC3"
		},
		{
			"bufferView":14,
			"componentType":5126,
			"count":94,
			"type":"VEC2"
		},
		{
			"bufferView":15,
			"componentType":5123,
			"count":162,
			"type":"SCALAR"
		},
		{
			"bufferView":16,
			"componentType":5126,
			"count":175,
			"max":[
				-1.9499998092651367,
				4,
				2.049997568130493
			],
			"min":[
				-2.250000238418579,
				1.3969838619232178e-07,
				-2.212745189666748
			],
			"type":"VEC3"
		},
		{
			"bufferView":17,
			"componentType":5126,
			"count":175,
			"type":"VEC3"
		},
		{
			"bufferView":18,
			"componentType":5126,
			"count":175,
			"type":"VEC2"
		},
		{
			"bufferView":19,
			"componentType":5123,
			"count":384,
			"type":"SCALAR"
		},
		{
			"bufferView":20,
			"componentType":5126,
			"count":150,
			"max":[
				-1.9499998092651367,
				4,
				2.049997329711914
			],
			"min":[
				-2.250000476837158,
				1.3969838619232178e-07,
				-2.212745428085327
			],
			"type":"VEC3"
		},
		{
			"bufferView":21,
			"componentType":5126,
			"count":150,
			"type":"VEC3"
		},
		{
			"bufferView":22,
			"componentType":5126,
			"count":150,
			"type":"VEC2"
		},
		{
			"bufferView":23,
			"componentType":5123,
			"count":312,
			"type":"SCALAR"
		},
		{
			"bufferView":24,
			"componentType":5126,
			"count":138,
			"max":[
				2.049997568130493,
				4,
				-1.9499999284744263
			],
			"min":[
				-2,
				1.3969838619232178e-07,
				-2.250000238418579
			],
			"type":"VEC3"
		},
		{
			"bufferView":25,
			"componentType":5126,
			"count":138,
			"type":"VEC3"
		},
		{
			"bufferView":26,
			"componentType":5126,
			"count":138,
			"type":"VEC2"
		},
		{
			"bufferView":27,
			"componentType":5123,
			"count":300,
			"type":"SCALAR"
		},
		{
			"bufferView":28,
			"componentType":5126,
			"count":127,
			"max":[
				2.049999952316284,
				4,
				-1.9499953985214233
			],
			"min":[
				-2.000000238418579,
				2.3841856489070778e-07,
				-2.2500009536743164
			],
			"type":"VEC3"
		},
		{
			"bufferView":29,
			"componentType":5126,
			"count":127,
			"type":"VEC3"
		},
		{
			"bufferView":30,
			"componentType":5126,
			"count":127,
			"type":"VEC2"
		},
		{
			"bufferView":31,
			"componentType":5123,
			"count":228,
			"type":"SCALAR"
		},
		{
			"bufferView":32,
			"componentType":5126,
			"count":72,
			"max":[
				2,
				4,
				-1.9499967098236084
			],
			"min":[
				-2.000000476837158,
				-7.450580596923828e-09,
				-2.2500009536743164
			],
			"type":"VEC3"
		},
		{
			"bufferView":33,
			"componentType":5126,
			"count":72,
			"type":"VEC3"
		},
		{
			"bufferView":34,
			"componentType":5126,
			"count":72,
			"type":"VEC2"
		},
		{
			"bufferView":35,
			"componentType":5123,
			"count":114,
			"type":"SCALAR"
		},
		{
			"bufferView":36,
			"componentType":5126,
			"count":94,
			"max":[
				1.9999998807907104,
				4,
				-1.9499961137771606
			],
			"min":[
				-2.212745428085327,
				1.3969838619232178e-07,
				-2.2500009536743164
			],
			"type":"VEC3"
		},
		{
			"bufferView":37,
			"componentType":5126,
			"count":94,
			"type":"VEC3"
		},
		{
			"bufferView":38,
			"componentType":5126,
			"count":94,
			"type":"VEC2"
		},
		{
			"bufferView":39,
			"componentType":5123,
			"count":162,
			"type":"SCALAR"
		},
		{
			"bufferView":40,
			"componentType":5126,
			"count":160,
			"max":[
				2.049997568130493,
				4,
				-1.9499999284744263
			],
			"min":[
				-2.212745189666748,
				1.3969838619232178e-07,
				-2.250000238418579
			],
			"type":"VEC3"
		},
		{
			"bufferView":41,
			"componentType":5126,
			"count":160,
			"type":"VEC3"
		},
		{
			"bufferView":42,
			"componentType":5126,
			"count":160,
			"type":"VEC2"
		},
		{
			"bufferView":43,
			"componentType":5123,
			"count":348,
			"type":"SCALAR"
		},
		{
			"bufferView":44,
			"componentType":5126,
			"count":150,
			"max":[
				2.049997329711914,
				4,
				-1.9499999284744263
			],
			"min":[
				-2.212745428085327,
				1.3969838619232178e-07,
				-2.250000476837158
			],
			"type":"VEC3"
		},
		{
			"bufferView":45,
			"componentType":5126,
			"count":150,
			"type":"VEC3"
		},
		{
			"bufferView":46,
			"componentType":5126,
			"count":150,
			"type":"VEC2"
		},
		{
			"bufferView":47,
			"componentType":5123,
			"count":312,
			"type":"SCALAR"
		},
		{
			"bufferView":48,
			"componentType":5126,
			"count":116,
			"max":[
				-1.950002670288086,
				4,
				2.212745189666748
			],
			"min":[
				-2.2500007152557373,
				1.3969838619232178e-07,
				-2.212745189666748
			],
			"type":"VEC3"
		},
		{
			"bufferView":49,
			"componentType":5126,
			"count":116,
			"type":"VEC3"
		},
		{
			"bufferView":50,
			"componentType":5126,
			"count":116,
			"type":"VEC2"
		},
		{
			"bufferView":51,
			"componentType":5123,
			"count":210,
			"type":"SCALAR"
		},
		{
			"bufferView":52,
			"componentType":5126,
			"count":112,
			"max":[
				2.212745428085327,
				4,
				2.250000476837158
			],
			"min":[
				-2.212745428085327,
				1.3969838619232178e-07,
				1.9500025510787964
			],
			"type":"VEC3"
		},
		{
			"bufferView":53,
			"componentType":5126,
			"count":112,
			"type":"VEC3"
		},
		{
			"bufferView":54,
			"componentType":5126,
			"count":112,
			"type":"VEC2"
		},
		{
			"bufferView":55,
			"componentType":5123,
			"count":210,
			"type":"SCALAR"
		},
		{
			"bufferView":56,
			"componentType":5126,
			"count":112,
			"max":[
				2.212745428085327,
				4,
				-1.9500025510787964
			],
			"min":[
				-2.212745428085327,
				1.3969838619232178e-07,
				-2.250000476837158
			],
			"type":"VEC3"
		},
		{
			"bufferView":57,
			"componentType":5126,
			"count":112,
			"type":"VEC3"
		},
		{
			"bufferView":58,
			"componentType":5126,
			"count":112,
			"type":"VEC2"
		},
		{
			"bufferView":59,
			"componentType":5123,
			"count":210,
			"type":"SCALAR"
		},
		{
			"bufferView":60,
			"componentType":5126,
			"count":116,
			"max":[
				2.2500007152557373,
				4,
				2.212745189666748
			],
			"min":[
				1.950002670288086,
				1.3969838619232178e-07,
				-2.212745189666748
			],
			"type":"VEC3"
		},
		{
			"bufferView":61,
			"componentType":5126,
			"count":116,
			"type":"VEC3"
		},
		{
			"bufferView":62,
			"componentType":5126,
			"count":116,
			"type":"VEC2"
		},
		{
			"bufferView":63,
			"componentType":5123,
			"count":210,
			"type":"SCALAR"
		},
		{
			"bufferView":64,
			"componentType":5126,
			"count":4167,
			"max":[
				2.000000476837158,
				0.26000261306762695,
				2
			],
			"min":[
				-2.000032424926758,
				0,
				-2
			],
			"type":"VEC3"
		},
		{
			"bufferView":65,
			"componentType":5126,
			"count":4167,
			"type":"VEC3"
		},
		{
			"bufferView":66,
			"componentType":5126,
			"count":4167,
			"type":"VEC2"
		},
		{
			"bufferView":67,
			"componentType":5123,
			"count":6159,
			"type":"SCALAR"
		},
		{
			"bufferView":68,
			"componentType":5126,
			"count":571,
			"max":[
				1.0000035762786865,
				0.26000261306762695,
				0.7000012397766113
			],
			"min":[
				-1.0000324249267578,
				0,
				-1.1920928955078125e-07
			],
			"type":"VEC3"
		},
		{
			"bufferView":69,
			"componentType":5126,
			"count":571,
			"type":"VEC3"
		},
		{
			"bufferView":70,
			"componentType":5126,
			"count":571,
			"type":"VEC2"
		},
		{
			"bufferView":71,
			"componentType":5123,
			"count":888,
			"type":"SCALAR"
		},
		{
			"bufferView":72,
			"componentType":5126,
			"count":86,
			"max":[
				-1.6543126106262207,
				1.1243127584457397,
				1.3218798637390137
			],
			"min":[
				-2.175765037536621,
				0.9328442811965942,
				-0.9218925833702087
			],
			"type":"VEC3"
		},
		{
			"bufferView":73,
			"componentType":5126,
			"count":86,
			"type":"VEC3"
		},
		{
			"bufferView":74,
			"componentType":5126,
			"count":86,
			"type":"VEC2"
		},
		{
			"bufferView":75,
			"componentType":5123,
			"count":204,
			"type":"SCALAR"
		},
		{
			"bufferView":76,
			"componentType":5126,
			"count":86,
			"max":[
				-1.6543169021606445,
				1.1243127584457397,
				1.165748119354248
			],
			"min":[
				-2.175764560699463,
				0.9328442811965942,
				-0.7657608389854431
			],
			"type":"VEC3"
		},
		{
			"bufferView":77,
			"componentType":5126,
			"count":86,
			"type":"VEC3"
		},
		{
			"bufferView":78,
			"componentType":5126,
			"count":86,
			"type":"VEC2"
		},
		{
			"bufferView":79,
			"componentType":5123,
			"count":204,
			"type":"SCALAR"
		},
		{
			"bufferView":80,
			"componentType":5126,
			"count":506,
			"max":[
				-1.948185682296753,
				4,
				2.049997329711914
			],
			"min":[
				-2.250000476837158,
				1.3969838619232178e-07,
				-2.000000238418579
			],
			"type":"VEC3"
		},
		{
			"bufferView":81,
			"componentType":5126,
			"count":506,
			"type":"VEC3"
		},
		{
			"bufferView":82,
			"componentType":5126,
			"count":506,
			"type":"VEC2"
		},
		{
			"bufferView":83,
			"componentType":5123,
			"count":1014,
			"type":"SCALAR"
		},
		{
			"bufferView":84,
			"componentType":5126,
			"count":20,
			"max":[
				-2.158729076385498,
				3.4739036560058594,
				1.3223531246185303
			],
			"min":[
				-2.183353900909424,
				0.4856443405151367,
				-0.9223532676696777
			],
			"type":"VEC3"
		},
		{
			"bufferView":85,
			"componentType":5126,
			"count":20,
			"type":"VEC3"
		},
		{
			"bufferView":86,
			"componentType":5126,
			"count":20,
			"type":"VEC2"
		},
		{
			"bufferView":87,
			"componentType":5123,
			"count":48,
			"type":"SCALAR"
		},
		{
			"bufferView":88,
			"componentType":5126,
			"count":339,
			"max":[
				-1.9481858015060425,
				4,
				2.0500001907348633
			],
			"min":[
				-2.2500007152557373,
				2.384185791015625e-07,
				-2
			],
			"type":"VEC3"
		},
		{
			"bufferView":89,
			"componentType":5126,
			"count":339,
			"type":"VEC3"
		},
		{
			"bufferView":90,
			"componentType":5126,
			"count":339,
			"type":"VEC2"
		},
		{
			"bufferView":91,
			"componentType":5123,
			"count":618,
			"type":"SCALAR"
		},
		{
			"bufferView":92,
			"componentType":5126,
			"count":8,
			"max":[
				-2.1633548736572266,
				3.710303544998169,
				1.1662211418151855
			],
			"min":[
				-2.1879796981811523,
				0.37799519300460815,
				-0.7662217617034912
			],
			"type":"VEC3"
		},
		{
			"bufferView":93,
			"componentType":5126,
			"count":8,
			"type":"VEC3"
		},
		{
			"bufferView":94,
			"componentType":5126,
			"count":8,
			"type":"VEC2"
		},
		{
			"bufferView":95,
			"componentType":5123,
			"count":12,
			"type":"SCALAR"
		},
		{
			"bufferView":96,
			"componentType":5126,
			"count":287,
			"max":[
				-1.9481858015060425,
				4,
				2.000000238418579
			],
			"min":[
				-2.2500007152557373,
				-7.450580596923828e-09,
				-2.000000238418579
			],
			"type":"VEC3"
		},
		{
			"bufferView":97,
			"componentType":5126,
			"count":287,
			"type":"VEC3"
		},
		{
			"bufferView":98,
			"componentType":5126,
			"count":287,
			"type":"VEC2"
		},
		{
			"bufferView":99,
			"componentType":5123,
			"count":504,
			"type":"SCALAR"
		},
		{
			"bufferView":100,
			"componentType":5126,
			"count":8,
			"max":[
				-2.1633548736572266,
				3.710303544998169,
				1.1662211418151855
			],
			"min":[
				-2.1879796981811523,
				0.37799519300460815,
				-0.7662217617034912
			],
			"type":"VEC3"
		},
		{
			"bufferView":101,
			"componentType":5126,
			"count":8,
			"type":"VEC3"
		},
		{
			"bufferView":102,
			"componentType":5126,
			"count":8,
			"type":"VEC2"
		},
		{
			"bufferView":103,
			"componentType":5126,
			"count":306,
			"max":[
				-1.9481858015060425,
				4,
				2
			],
			"min":[
				-2.2500007152557373,
				1.3969838619232178e-07,
				-2.212745189666748
			],
			"type":"VEC3"
		},
		{
			"bufferView":104,
			"componentType":5126,
			"count":306,
			"type":"VEC3"
		},
		{
			"bufferView":105,
			"componentType":5126,
			"count":306,
			"type":"VEC2"
		},
		{
			"bufferView":106,
			"componentType":5123,
			"count":552,
			"type":"SCALAR"
		},
		{
			"bufferView":107,
			"componentType":5126,
			"count":8,
			"max":[
				-2.1633548736572266,
				3.710303544998169,
				1.1662211418151855
			],
			"min":[
				-2.1879796981811523,
				0.37799519300460815,
				-0.7662217617034912
			],
			"type":"VEC3"
		},
		{
			"bufferView":108,
			"componentType":5126,
			"count":8,
			"type":"VEC3"
		},
		{
			"bufferView":109,
			"componentType":5126,
			"count":8,
			"type":"VEC2"
		},
		{
			"bufferView":110,
			"componentType":5126,
			"count":530,
			"max":[
				-1.948185682296753,
				4,
				2.049997568130493
			],
			"min":[
				-2.250000238418579,
				1.3969838619232178e-07,
				-2.212745189666748
			],
			"type":"VEC3"
		},
		{
			"bufferView":111,
			"componentType":5126,
			"count":530,
			"type":"VEC3"
		},
		{
			"bufferView":112,
			"componentType":5126,
			"count":530,
			"type":"VEC2"
		},
		{
			"bufferView":113,
			"componentType":5123,
			"count":1062,
			"type":"SCALAR"
		},
		{
			"bufferView":114,
			"componentType":5126,
			"count":20,
			"max":[
				-2.158729076385498,
				3.4739036560058594,
				1.3223531246185303
			],
			"min":[
				-2.183353900909424,
				0.4856443405151367,
				-0.9223532676696777
			],
			"type":"VEC3"
		},
		{
			"bufferView":115,
			"componentType":5126,
			"count":20,
			"type":"VEC3"
		},
		{
			"bufferView":116,
			"componentType":5126,
			"count":20,
			"type":"VEC2"
		},
		{
			"bufferView":117,
			"componentType":5126,
			"count":350,
			"max":[
				-1.9481858015060425,
				4,
				2.049997329711914
			],
			"min":[
				-2.250000476837158,
				1.3969838619232178e-07,
				-2.212745428085327
			],
			"type":"VEC3"
		},
		{
			"bufferView":118,
			"componentType":5126,
			"count":350,
			"type":"VEC3"
		},
		{
			"bufferView":119,
			"componentType":5126,
			"count":350,
			"type":"VEC2"
		},
		{
			"bufferView":120,
			"componentType":5123,
			"count":666,
			"type":"SCALAR"
		},
		{
			"bufferView":121,
			"componentType":5126,
			"count":8,
			"max":[
				-2.1534032821655273,
				3.710303544998169,
				1.1662213802337646
			],
			"min":[
				-2.178028106689453,
				0.37799519300460815,
				-0.7662215232849121
			],
			"type":"VEC3"
		},
		{
			"bufferView":122,
			"componentType":5126,
			"count":8,
			"type":"VEC3"
		},
		{
			"bufferView":123,
			"componentType":5126,
			"count":8,
			"type":"VEC2"
		},
		{
			"bufferView":124,
			"componentType":5126,
			"count":86,
			"max":[
				1.3218859434127808,
				1.1243127584457397,
				-1.6543246507644653
			],
			"min":[
				-0.9218863248825073,
				0.9328442811965942,
				-2.1757612228393555
			],
			"type":"VEC3"
		},
		{
			"bufferView":125,
			"componentType":5126,
			"count":86,
			"type":"VEC3"
		},
		{
			"bufferView":126,
			"componentType":5126,
			"count":86,
			"type":"VEC2"
		},
		{
			"bufferView":127,
			"componentType":5123,
			"count":204,
			"type":"SCALAR"
		},
		{
			"bufferView":128,
			"componentType":5126,
			"count":86,
			"max":[
				1.1657541990280151,
				1.1243127584457397,
				-1.6543246507644653
			],
			"min":[
				-0.7657545804977417,
				0.9328442811965942,
				-2.1757612228393555
			],
			"type":"VEC3"
		},
		{
			"bufferView":129,
			"componentType":5126,
			"count":86,
			"type":"VEC3"
		},
		{
			"bufferView":130,
			"componentType":5126,
			"count":86,
			"type":"VEC2"
		},
		{
			"bufferView":131,
			"componentType":5123,
			"count":204,
			"type":"SCALAR"
		},
		{
			"bufferView":132,
			"componentType":5126,
			"count":506,
			"max":[
				2.049997568130493,
				4,
				-1.9481858015060425
			],
			"min":[
				-2,
				1.3969838619232178e-07,
				-2.250000238418579
			],
			"type":"VEC3"
		},
		{
			"bufferView":133,
			"componentType":5126,
			"count":506,
			"type":"VEC3"
		},
		{
			"bufferView":134,
			"componentType":5126,
			"count":506,
			"type":"VEC2"
		},
		{
			"bufferView":135,
			"componentType":5123,
			"count":1014,
			"type":"SCALAR"
		},
		{
			"bufferView":136,
			"componentType":5126,
			"count":20,
			"max":[
				1.3223530054092407,
				3.4739036560058594,
				-2.158729076385498
			],
			"min":[
				-0.9223533868789673,
				0.4856443405151367,
				-2.183353900909424
			],
			"type":"VEC3"
		},
		{
			"bufferView":137,
			"componentType":5126,
			"count":20,
			"type":"VEC3"
		},
		{
			"bufferView":138,
			"componentType":5126,
			"count":20,
			"type":"VEC2"
		},
		{
			"bufferView":139,
			"componentType":5126,
			"count":339,
			"max":[
				2.049999952316284,
				4,
				-1.9481858015060425
			],
			"min":[
				-2.000000238418579,
				2.3841856489070778e-07,
				-2.2500009536743164
			],
			"type":"VEC3"
		},
		{
			"bufferView":140,
			"componentType":5126,
			"count":339,
			"type":"VEC3"
		},
		{
			"bufferView":141,
			"componentType":5126,
			"count":339,
			"type":"VEC2"
		},
		{
			"bufferView":142,
			"componentType":5123,
			"count":618,
			"type":"SCALAR"
		},
		{
			"bufferView":143,
			"componentType":5126,
			"count":8,
			"max":[
				1.166221261024475,
				3.710303544998169,
				-2.158729076385498
			],
			"min":[
				-0.7662216424942017,
				0.37799519300460815,
				-2.183353900909424
			],
			"type":"VEC3"
		},
		{
			"bufferView":144,
			"componentType":5126,
			"count":8,
			"type":"VEC3"
		},
		{
			"bufferView":145,
			"componentType":5126,
			"count":8,
			"type":"VEC2"
		},
		{
			"bufferView":146,
			"componentType":5123,
			"count":12,
			"type":"SCALAR"
		},
		{
			"bufferView":147,
			"componentType":5126,
			"count":284,
			"max":[
				2.000000476837158,
				4,
				-1.9481858015060425
			],
			"min":[
				-2,
				-7.450580596923828e-09,
				-2.2500009536743164
			],
			"type":"VEC3"
		},
		{
			"bufferView":148,
			"componentType":5126,
			"count":284,
			"type":"VEC3"
		},
		{
			"bufferView":149,
			"componentType":5126,
			"count":284,
			"type":"VEC2"
		},
		{
			"bufferView":150,
			"componentType":5123,
			"count":504,
			"type":"SCALAR"
		},
		{
			"bufferView":151,
			"componentType":5126,
			"count":8,
			"max":[
				1.166221261024475,
				3.710303544998169,
				-2.158729076385498
			],
			"min":[
				-0.7662216424942017,
				0.37799519300460815,
				-2.183353900909424
			],
			"type":"VEC3"
		},
		{
			"bufferView":152,
			"componentType":5126,
			"count":8,
			"type":"VEC3"
		},
		{
			"bufferView":153,
			"componentType":5126,
			"count":8,
			"type":"VEC2"
		},
		{
			"bufferView":154,
			"componentType":5126,
			"count":306,
			"max":[
				1.9999998807907104,
				4,
				-1.9481858015060425
			],
			"min":[
				-2.212745428085327,
				1.3969838619232178e-07,
				-2.2500009536743164
			],
			"type":"VEC3"
		},
		{
			"bufferView":155,
			"componentType":5126,
			"count":306,
			"type":"VEC3"
		},
		{
			"bufferView":156,
			"componentType":5126,
			"count":306,
			"type":"VEC2"
		},
		{
			"bufferView":157,
			"componentType":5123,
			"count":552,
			"type":"SCALAR"
		},
		{
			"bufferView":158,
			"componentType":5126,
			"count":8,
			"max":[
				1.166221261024475,
				3.710303544998169,
				-2.158729076385498
			],
			"min":[
				-0.7662216424942017,
				0.37799519300460815,
				-2.183353900909424
			],
			"type":"VEC3"
		},
		{
			"bufferView":159,
			"componentType":5126,
			"count":8,
			"type":"VEC3"
		},
		{
			"bufferView":160,
			"componentType":5126,
			"count":8,
			"type":"VEC2"
		},
		{
			"bufferView":161,
			"componentType":5126,
			"count":526,
			"max":[
				2.049997568130493,
				4,
				-1.9481858015060425
			],
			"min":[
				-2.212745189666748,
				1.3969838619232178e-07,
				-2.250000238418579
			],
			"type":"VEC3"
		},
		{
			"bufferView":162,
			"componentType":5126,
			"count":526,
			"type":"VEC3"
		},
		{
			"bufferView":163,
			"componentType":5126,
			"count":526,
			"type":"VEC2"
		},
		{
			"bufferView":164,
			"componentType":5123,
			"count":1062,
			"type":"SCALAR"
		},
		{
			"bufferView":165,
			"componentType":5126,
			"count":20,
			"max":[
				1.3223530054092407,
				3.4739036560058594,
				-2.158729076385498
			],
			"min":[
				-0.9223533868789673,
				0.4856443405151367,
				-2.183353900909424
			],
			"type":"VEC3"
		},
		{
			"bufferView":166,
			"componentType":5126,
			"count":20,
			"type":"VEC3"
		},
		{
			"bufferView":167,
			"componentType":5126,
			"count":20,
			"type":"VEC2"
		},
		{
			"bufferView":168,
			"componentType":5126,
			"count":350,
			"max":[
				2.049997091293335,
				4,
				-1.948185682296753
			],
			"min":[
				-2.2127456665039062,
				1.3969838619232178e-07,
				-2.2500007152557373
			],
			"type":"VEC3"
		},
		{
			"bufferView":169,
			"componentType":5126,
			"count":350,
			"type":"VEC3"
		},
		{
			"bufferView":170,
			"componentType":5126,
			"count":350,
			"type":"VEC2"
		},
		{
			"bufferView":171,
			"componentType":5123,
			"count":666,
			"type":"SCALAR"
		},
		{
			"bufferView":172,
			"componentType":5126,
			"count":8,
			"max":[
				1.166221261024475,
				3.710303544998169,
				-2.1678669452667236
			],
			"min":[
				-0.7662217020988464,
				0.37799519300460815,
				-2.1924917697906494
			],
			"type":"VEC3"
		},
		{
			"bufferView":173,
			"componentType":5126,
			"count":8,
			"type":"VEC3"
		},
		{
			"bufferView":174,
			"componentType":5126,
			"count":8,
			"type":"VEC2"
		},
		{
			"bufferView":175,
			"componentType":5126,
			"count":264,
			"max":[
				-1.946037769317627,
				4,
				2.049997329711914
			],
			"min":[
				-2.253966808319092,
				0,
				-2.000000238418579
			],
			"type":"VEC3"
		},
		{
			"bufferView":176,
			"componentType":5126,
			"count":264,
			"type":"VEC3"
		},
		{
			"bufferView":177,
			"componentType":5126,
			"count":264,
			"type":"VEC2"
		},
		{
			"bufferView":178,
			"componentType":5123,
			"count":528,
			"type":"SCALAR"
		},
		{
			"bufferView":179,
			"componentType":5126,
			"count":257,
			"max":[
				-1.946037769317627,
				4,
				2.0500001907348633
			],
			"min":[
				-2.253966808319092,
				0,
				-2
			],
			"type":"VEC3"
		},
		{
			"bufferView":180,
			"componentType":5126,
			"count":257,
			"type":"VEC3"
		},
		{
			"bufferView":181,
			"componentType":5126,
			"count":257,
			"type":"VEC2"
		},
		{
			"bufferView":182,
			"componentType":5123,
			"count":456,
			"type":"SCALAR"
		},
		{
			"bufferView":183,
			"componentType":5126,
			"count":204,
			"max":[
				-1.946037769317627,
				4,
				2.000000238418579
			],
			"min":[
				-2.253966808319092,
				-7.450580596923828e-09,
				-2.000000238418579
			],
			"type":"VEC3"
		},
		{
			"bufferView":184,
			"componentType":5126,
			"count":204,
			"type":"VEC3"
		},
		{
			"bufferView":185,
			"componentType":5126,
			"count":204,
			"type":"VEC2"
		},
		{
			"bufferView":186,
			"componentType":5123,
			"count":348,
			"type":"SCALAR"
		},
		{
			"bufferView":187,
			"componentType":5126,
			"count":226,
			"max":[
				-1.946037769317627,
				4,
				2
			],
			"min":[
				-2.253966808319092,
				0,
				-2.212745189666748
			],
			"type":"VEC3"
		},
		{
			"bufferView":188,
			"componentType":5126,
			"count":226,
			"type":"VEC3"
		},
		{
			"bufferView":189,
			"componentType":5126,
			"count":226,
			"type":"VEC2"
		},
		{
			"bufferView":190,
			"componentType":5123,
			"count":396,
			"type":"SCALAR"
		},
		{
			"bufferView":191,
			"componentType":5126,
			"count":349,
			"max":[
				-1.946037769317627,
				4,
				2.049997568130493
			],
			"min":[
				-2.253966808319092,
				0,
				-2.212745189666748
			],
			"type":"VEC3"
		},
		{
			"bufferView":192,
			"componentType":5126,
			"count":349,
			"type":"VEC3"
		},
		{
			"bufferView":193,
			"componentType":5126,
			"count":349,
			"type":"VEC2"
		},
		{
			"bufferView":194,
			"componentType":5123,
			"count":702,
			"type":"SCALAR"
		},
		{
			"bufferView":195,
			"componentType":5126,
			"count":326,
			"max":[
				-1.946037769317627,
				4,
				2.049997329711914
			],
			"min":[
				-2.253966808319092,
				0,
				-2.212745428085327
			],
			"type":"VEC3"
		},
		{
			"bufferView":196,
			"componentType":5126,
			"count":326,
			"type":"VEC3"
		},
		{
			"bufferView":197,
			"componentType":5126,
			"count":326,
			"type":"VEC2"
		},
		{
			"bufferView":198,
			"componentType":5123,
			"count":630,
			"type":"SCALAR"
		},
		{
			"bufferView":199,
			"componentType":5126,
			"count":244,
			"max":[
				-1.946037769317627,
				4,
				2.212745189666748
			],
			"min":[
				-2.253966808319092,
				0,
				-2.212745189666748
			],
			"type":"VEC3"
		},
		{
			"bufferView":200,
			"componentType":5126,
			"count":244,
			"type":"VEC3"
		},
		{
			"bufferView":201,
			"componentType":5126,
			"count":244,
			"type":"VEC2"
		},
		{
			"bufferView":202,
			"componentType":5123,
			"count":432,
			"type":"SCALAR"
		},
		{
			"bufferView":203,
			"componentType":5126,
			"count":240,
			"max":[
				2.212745428085327,
				4,
				2.253967046737671
			],
			"min":[
				-2.212745428085327,
				0,
				1.946037769317627
			],
			"type":"VEC3"
		},
		{
			"bufferView":204,
			"componentType":5126,
			"count":240,
			"type":"VEC3"
		},
		{
			"bufferView":205,
			"componentType":5126,
			"count":240,
			"type":"VEC2"
		},
		{
			"bufferView":206,
			"componentType":5123,
			"count":432,
			"type":"SCALAR"
		},
		{
			"bufferView":207,
			"componentType":5126,
			"count":240,
			"max":[
				2.212745428085327,
				4,
				-1.9460376501083374
			],
			"min":[
				-2.212745428085327,
				0,
				-2.253966808319092
			],
			"type":"VEC3"
		},
		{
			"bufferView":208,
			"componentType":5126,
			"count":240,
			"type":"VEC3"
		},
		{
			"bufferView":209,
			"componentType":5126,
			"count":240,
			"type":"VEC2"
		},
		{
			"bufferView":210,
			"componentType":5123,
			"count":432,
			"type":"SCALAR"
		},
		{
			"bufferView":211,
			"componentType":5126,
			"count":244,
			"max":[
				2.253966808319092,
				4,
				2.212745189666748
			],
			"min":[
				1.946037769317627,
				0,
				-2.212745189666748
			],
			"type":"VEC3"
		},
		{
			"bufferView":212,
			"componentType":5126,
			"count":244,
			"type":"VEC3"
		},
		{
			"bufferView":213,
			"componentType":5126,
			"count":244,
			"type":"VEC2"
		},
		{
			"bufferView":214,
			"componentType":5123,
			"count":432,
			"type":"SCALAR"
		},
		{
			"bufferView":215,
			"componentType":5126,
			"count":262,
			"max":[
				2.049997568130493,
				4,
				-1.9460376501083374
			],
			"min":[
				-2,
				0,
				-2.253966808319092
			],
			"type":"VEC3"
		},
		{
			"bufferView":216,
			"componentType":5126,
			"count":262,
			"type":"VEC3"
		},
		{
			"bufferView":217,
			"componentType":5126,
			"count":262,
			"type":"VEC2"
		},
		{
			"bufferView":218,
			"componentType":5123,
			"count":522,
			"type":"SCALAR"
		},
		{
			"bufferView":219,
			"componentType":5126,
			"count":255,
			"max":[
				2.049999952316284,
				4,
				-1.9460376501083374
			],
			"min":[
				-2.000000238418579,
				0,
				-2.253966808319092
			],
			"type":"VEC3"
		},
		{
			"bufferView":220,
			"componentType":5126,
			"count":255,
			"type":"VEC3"
		},
		{
			"bufferView":221,
			"componentType":5126,
			"count":255,
			"type":"VEC2"
		},
		{
			"bufferView":222,
			"componentType":5123,
			"count":450,
			"type":"SCALAR"
		},
		{
			"bufferView":223,
			"componentType":5126,
			"count":204,
			"max":[
				2,
				4,
				-1.9460376501083374
			],
			"min":[
				-2.000000476837158,
				-7.450580596923828e-09,
				-2.253966808319092
			],
			"type":"VEC3"
		},
		{
			"bufferView":224,
			"componentType":5126,
			"count":204,
			"type":"VEC3"
		},
		{
			"bufferView":225,
			"componentType":5126,
			"count":204,
			"type":"VEC2"
		},
		{
			"bufferView":226,
			"componentType":5123,
			"count":348,
			"type":"SCALAR"
		},
		{
			"bufferView":227,
			"componentType":5126,
			"count":226,
			"max":[
				1.9999998807907104,
				4,
				-1.9460376501083374
			],
			"min":[
				-2.212745428085327,
				0,
				-2.253966808319092
			],
			"type":"VEC3"
		},
		{
			"bufferView":228,
			"componentType":5126,
			"count":226,
			"type":"VEC3"
		},
		{
			"bufferView":229,
			"componentType":5126,
			"count":226,
			"type":"VEC2"
		},
		{
			"bufferView":230,
			"componentType":5123,
			"count":396,
			"type":"SCALAR"
		},
		{
			"bufferView":231,
			"componentType":5126,
			"count":337,
			"max":[
				2.049997568130493,
				4,
				-1.9460376501083374
			],
			"min":[
				-2.212745189666748,
				0,
				-2.253966808319092
			],
			"type":"VEC3"
		},
		{
			"bufferView":232,
			"componentType":5126,
			"count":337,
			"type":"VEC3"
		},
		{
			"bufferView":233,
			"componentType":5126,
			"count":337,
			"type":"VEC2"
		},
		{
			"bufferView":234,
			"componentType":5123,
			"count":666,
			"type":"SCALAR"
		},
		{
			"bufferView":235,
			"componentType":5126,
			"count":326,
			"max":[
				2.049997329711914,
				4,
				-1.9460376501083374
			],
			"min":[
				-2.212745428085327,
				0,
				-2.253966808319092
			],
			"type":"VEC3"
		},
		{
			"bufferView":236,
			"componentType":5126,
			"count":326,
			"type":"VEC3"
		},
		{
			"bufferView":237,
			"componentType":5126,
			"count":326,
			"type":"VEC2"
		},
		{
			"bufferView":238,
			"componentType":5123,
			"count":630,
			"type":"SCALAR"
		},
		{
			"bufferView":239,
			"componentType":5126,
			"count":722,
			"max":[
				0.7595205307006836,
				2.6202545166015625,
				0.16265997290611267
			],
			"min":[
				-0.7595199346542358,
				0.26000261306762695,
				-0.16266882419586182
			],
			"type":"VEC3"
		},
		{
			"bufferView":240,
			"componentType":5126,
			"count":722,
			"type":"VEC3"
		},
		{
			"bufferView":241,
			"componentType":5126,
			"count":722,
			"type":"VEC2"
		},
		{
			"bufferView":242,
			"componentType":5123,
			"count":1212,
			"type":"SCALAR"
		},
		{
			"bufferView":243,
			"componentType":5126,
			"count":8,
			"max":[
				0.5391178131103516,
				2.1667542457580566,
				0.04053666442632675
			],
			"min":[
				-0.5391172170639038,
				0.9158958196640015,
				-0.04053347557783127
			],
			"type":"VEC3"
		},
		{
			"bufferView":244,
			"componentType":5126,
			"count":8,
			"type":"VEC3"
		},
		{
			"bufferView":245,
			"componentType":5126,
			"count":8,
			"type":"VEC2"
		},
		{
			"bufferView":246,
			"componentType":5123,
			"count":12,
			"type":"SCALAR"
		},
		{
			"bufferView":247,
			"componentType":5126,
			"count":658,
			"max":[
				0.7595205307006836,
				2.6202545166015625,
				0.16265997290611267
			],
			"min":[
				-0.7595199346542358,
				0.26000261306762695,
				-0.16266882419586182
			],
			"type":"VEC3"
		},
		{
			"bufferView":248,
			"componentType":5126,
			"count":658,
			"type":"VEC3"
		},
		{
			"bufferView":249,
			"componentType":5126,
			"count":658,
			"type":"VEC2"
		},
		{
			"bufferView":250,
			"componentType":5123,
			"count":1068,
			"type":"SCALAR"
		},
		{
			"bufferView":251,
			"componentType":5126,
			"count":8,
			"max":[
				0.5391178131103516,
				2.4011237621307373,
				0.04053666442632675
			],
			"min":[
				-0.5391172170639038,
				0.967486560344696,
				-0.04053347557783127
			],
			"type":"VEC3"
		},
		{
			"bufferView":252,
			"componentType":5126,
			"count":8,
			"type":"VEC3"
		},
		{
			"bufferView":253,
			"componentType":5126,
			"count":8,
			"type":"VEC2"
		},
		{
			"bufferView":254,
			"componentType":5126,
			"count":107,
			"max":[
				-1.7808865308761597,
				4,
				0.14998739957809448
			],
			"min":[
				-2.0000014305114746,
				-7.450580596923828e-09,
				-0.15001608431339264
			],
			"type":"VEC3"
		},
		{
			"bufferView":255,
			"componentType":5126,
			"count":107,
			"type":"VEC3"
		},
		{
			"bufferView":256,
			"componentType":5126,
			"count":107,
			"type":"VEC2"
		},
		{
			"bufferView":257,
			"componentType":5123,
			"count":174,
			"type":"SCALAR"
		},
		{
			"bufferView":258,
			"componentType":5126,
			"count":107,
			"max":[
				0.1500028371810913,
				4,
				-1.7808871269226074
			],
			"min":[
				-0.15000128746032715,
				0,
				-2.000000238418579
			],
			"type":"VEC3"
		},
		{
			"bufferView":259,
			"componentType":5126,
			"count":107,
			"type":"VEC3"
		},
		{
			"bufferView":260,
			"componentType":5126,
			"count":107,
			"type":"VEC2"
		},
		{
			"bufferView":261,
			"componentType":5123,
			"count":174,
			"type":"SCALAR"
		},
		{
			"bufferView":262,
			"componentType":5126,
			"count":291,
			"max":[
				2.0000007152557373,
				4,
				0.15000279247760773
			],
			"min":[
				-2.000000238418579,
				-7.450580596923828e-09,
				-0.1500018984079361
			],
			"type":"VEC3"
		},
		{
			"bufferView":263,
			"componentType":5126,
			"count":291,
			"type":"VEC3"
		},
		{
			"bufferView":264,
			"componentType":5126,
			"count":291,
			"type":"VEC2"
		},
		{
			"bufferView":265,
			"componentType":5123,
			"count":624,
			"type":"SCALAR"
		},
		{
			"bufferView":266,
			"componentType":5126,
			"count":292,
			"max":[
				0.1500028371810913,
				4,
				2.0000007152557373
			],
			"min":[
				-0.15000128746032715,
				-7.450580596923828e-09,
				-2.000000238418579
			],
			"type":"VEC3"
		},
		{
			"bufferView":267,
			"componentType":5126,
			"count":292,
			"type":"VEC3"
		},
		{
			"bufferView":268,
			"componentType":5126,
			"count":292,
			"type":"VEC2"
		},
		{
			"bufferView":269,
			"componentType":5123,
			"count":624,
			"type":"SCALAR"
		}
	],
	"bufferViews":[
		{
			"buffer":0,
			"byteLength":1656,
			"byteOffset":0,
			"target":34962
		},
		{
			"buffer":0,
			"byteLength":1656,
			"byteOffset":1656,
			"target":34962
		},
		{
			"buffer":0,
			"byteLength":1104,
			"byteOffset":3312,
			"target":34962
		},
		{
			"buffer":0,
			"byteLength":600,
			"byteOffset":4416,
			"target":34963
		},
		{
			"buffer":0,
			"byteLength":1548,
			"byteOffset":5016,
			"target":34962
		},
		{
			"buffer":0,
			"byteLength":1548,
			"byteOffset":6564,
			"target":34962
		},
		{
			"buffer":0,
			"byteLength":1032,
			"byteOffset":8112,
			"target":34962
		},
		{
			"buffer":0,
			"byteLength":456,
			"byteOffset":9144,
			"target":34963
		},
		{
			"buffer":0,
			"byteLength":864,
			"byteOffset":9600,
			"target":34962
		},
		{
			"buffer":0,
			"byteLength":864,
			"byteOffset":10464,
			"target":34962
		},
		{
			"buffer":0,
			"byteLength":576,
			"byteOffset":11328,
			"target":34962
		},
		{
			"buffer":0,
			"byteLength":228,
			"byteOffset":11904,
			"target":34963
		},
		{
			"buffer":0,
			"byteLength":1128,
			"byteOffset":12132,
			"target":34962
		},
		{
			"buffer":0,
			"byteLength":1128,
			"byteOffset":13260,
			"target":34962
		},
		{
			"buffer":0,
			"byteLength":752,
			"byteOffset":14388,
			"target":34962
		},
		{
			"buffer":0,
			"byteLength":324,
			"byteOffset":15140,
			"target":34963
		},
		{
			"buffer":0,
			"byteLength":2100,
			"byteOffset":15464,
			"target":34962
		},
		{
			"buffer":0,
			"byteLength":2100,
			"byteOffset":17564,
			"target":34962
		},
		{
			"buffer":0,
			"byteLength":1400,
			"byteOffset":19664,
			"target":34962
		},
		{
			"buffer":0,
			"byteLength":768,
			"byteOffset":21064,
			"target":34963
		},
		{
			"buffer":0,
			"byteLength":1800,
			"byteOffset":21832,
			"target":34962
		},
		{
			"buffer":0,
			"byteLength":1800,
			"byteOffset":23632,
			"target":34962
		},
		{
			"buffer":0,
			"byteLength":1200,
			"byteOffset":25432,
			"target":34962
		},
		{
			"buffer":0,
			"byteLength":624,
			"byteOffset":26632,
			"target":34963
		},
		{
			"buffer":0,
			"byteLength":1656,
			"byteOffset":27256,
			"target":34962
		},
		{
			"buffer":0,
			"byteLength":1656,
			"byteOffset":28912,
			"target":34962
		},
		{
			"buffer":0,
			"byteLength":1104,
			"byteOffset":30568,
			"target":34962
		},
		{
			"buffer":0,
			"byteLength":600,
			"byteOffset":31672,
			"target":34963
		},
		{
			"buffer":0,
			"byteLength":1524,
			"byteOffset":32272,
			"target":34962
		},
		{
			"buffer":0,
			"byteLength":1524,
			"byteOffset":33796,
			"target":34962
		},
		{
			"buffer":0,
			"byteLength":1016,
			"byteOffset":35320,
			"target":34962
		},
		{
			"buffer":0,
			"byteLength":456,
			"byteOffset":36336,
			"target":34963
		},
		{
			"buffer":0,
			"byteLength":864,
			"byteOffset":36792,
			"target":34962
		},
		{
			"buffer":0,
			"byteLength":864,
			"byteOffset":37656,
			"target":34962
		},
		{
			"buffer":0,
			"byteLength":576,
			"byteOffset":38520,
			"target":34962
		},
		{
			"buffer":0,
			"byteLength":228,
			"byteOffset":39096,
			"target":34963
		},
		{
			"buffer":0,
			"byteLength":1128,
			"byteOffset":39324,
			"target":34962
		},
		{
			"buffer":0,
			"byteLength":1128,
			"byteOffset":40452,
			"target":34962
		},
		{
			"buffer":0,
			"byteLength":752,
			"byteOffset":41580,
			"target":34962
		},
		{
			"buffer":0,
			"byteLength":324,
			"byteOffset":42332,
			"target":34963
		},
		{
			"buffer":0,
			"byteLength":1920,
			"byteOffset":42656,
			"target":34962
		},
		{
			"buffer":0,
			"byteLength":1920,
			"byteOffset":44576,
			"target":34962
		},
		{
			"buffer":0,
			"byteLength":1280,
			"byteOffset":46496,
			"target":34962
		},
		{
			"buffer":0,
			"byteLength":696,
			"byteOffset":47776,
			"target":34963
		},
		{
			"buffer":0,
			"byteLength":1800,
			"byteOffset":48472,
			"target":34962
		},
		{
			"buffer":0,
			"byteLength":1800,
			"byteOffset":50272,
			"target":34962
		},
		{
			"buffer":0,
			"byteLength":1200,
			"byteOffset":52072,
			"target":34962
		},
		{
			"buffer":0,
			"byteLength":624,
			"byteOffset":53272,
			"target":34963
		},
		{
			"buffer":0,
			"byteLength":1392,
			"byteOffset":53896,
			"target":34962
		},
		{
			"buffer":0,
			"byteLength":1392,
			"byteOffset":55288,
			"target":34962
		},
		{
			"buffer":0,
			"byteLength":928,
			"byteOffset":56680,
			"target":34962
		},
		{
			"buffer":0,
			"byteLength":420,
			"byteOffset":57608,
			"target":34963
		},
		{
			"buffer":0,
			"byteLength":1344,
			"byteOffset":58028,
			"target":34962
		},
		{
			"buffer":0,
			"byteLength":1344,
			"byteOffset":59372,
			"target":34962
		},
		{
			"buffer":0,
			"byteLength":896,
			"byteOffset":60716,
			"target":34962
		},
		{
			"buffer":0,
			"byteLength":420,
			"byteOffset":61612,
			"target":34963
		},
		{
			"buffer":0,
			"byteLength":1344,
			"byteOffset":62032,
			"target":34962
		},
		{
			"buffer":0,
			"byteLength":1344,
			"byteOffset":63376,
			"target":34962
		},
		{
			"buffer":0,
			"byteLength":896,
			"byteOffset":64720,
			"target":34962
		},
		{
			"buffer":0,
			"byteLength":420,
			"byteOffset":65616,
			"target":34963
		},
		{
			"buffer":0,
			"byteLength":1392,
			"byteOffset":66036,
			"target":34962
		},
		{
			"buffer":0,
			"byteLength":1392,
			"byteOffset":67428,
			"target":34962
		},
		{
			"buffer":0,
			"byteLength":928,
			"byteOffset":68820,
			"target":34962
		},
		{
			"buffer":0,
			"byteLength":420,
			"byteOffset":69748,
			"target":34963
		},
		{
			"buffer":0,
			"byteLength":50004,
			"byteOffset":70168,
			"target":34962
		},
		{
			"buffer":0,
			"byteLength":50004,
			"byteOffset":120172,
			"target":34962
		},
		{
			"buffer":0,
			"byteLength":33336,
			"byteOffset":170176,
			"target":34962
		},
		{
			"buffer":0,
			"byteLength":12318,
			"byteOffset":203512,
			"target":34963
		},
		{
			"buffer":0,
			"byteLength":6852,
			"byteOffset":215832,
			"target":34962
		},
		{
			"buffer":0,
			"byteLength":6852,
			"byteOffset":222684,
			"target":34962
		},
		{
			"buffer":0,
			"byteLength":4568,
			"byteOffset":229536,
			"target":34962
		},
		{
			"buffer":0,
			"byteLength":1776,
			"byteOffset":234104,
			"target":34963
		},
		{
			"buffer":0,
			"byteLength":1032,
			"byteOffset":235880,
			"target":34962
		},
		{
			"buffer":0,
			"byteLength":1032,
			"byteOffset":236912,
			"target":34962
		},
		{
			"buffer":0,
			"byteLength":688,
			"byteOffset":237944,
			"target":34962
		},
		{
			"buffer":0,
			"byteLength":408,
			"byteOffset":238632,
			"target":34963
		},
		{
			"buffer":0,
			"byteLength":1032,
			"byteOffset":239040,
			"target":34962
		},
		{
			"buffer":0,
			"byteLength":1032,
			"byteOffset":240072,
			"target":34962
		},
		{
			"buffer":0,
			"byteLength":688,
			"byteOffset":241104,
			"target":34962
		},
		{
			"buffer":0,
			"byteLength":408,
			"byteOffset":241792,
			"target":34963
		},
		{
			"buffer":0,
			"byteLength":6072,
			"byteOffset":242200,
			"target":34962
		},
		{
			"buffer":0,
			"byteLength":6072,
			"byteOffset":248272,
			"target":34962
		},
		{
			"buffer":0,
			"byteLength":4048,
			"byteOffset":254344,
			"target":34962
		},
		{
			"buffer":0,
			"byteLength":2028,
			"byteOffset":258392,
			"target":34963
		},
		{
			"buffer":0,
			"byteLength":240,
			"byteOffset":260420,
			"target":34962
		},
		{
			"buffer":0,
			"byteLength":240,
			"byteOffset":260660,
			"target":34962
		},
		{
			"buffer":0,
			"byteLength":160,
			"byteOffset":260900,
			"target":34962
		},
		{
			"buffer":0,
			"byteLength":96,
			"byteOffset":261060,
			"target":34963
		},
		{
			"buffer":0,
			"byteLength":4068,
			"byteOffset":261156,
			"target":34962
		},
		{
			"buffer":0,
			"byteLength":4068,
			"byteOffset":265224,
			"target":34962
		},
		{
			"buffer":0,
			"byteLength":2712,
			"byteOffset":269292,
			"target":34962
		},
		{
			"buffer":0,
			"byteLength":1236,
			"byteOffset":272004,
			"target":34963
		},
		{
			"buffer":0,
			"byteLength":96,
			"byteOffset":273240,
			"target":34962
		},
		{
			"buffer":0,
			"byteLength":96,
			"byteOffset":273336,
			"target":34962
		},
		{
			"buffer":0,
			"byteLength":64,
			"byteOffset":273432,
			"target":34962
		},
		{
			"buffer":0,
			"byteLength":24,
			"byteOffset":273496,
			"target":34963
		},
		{
			"buffer":0,
			"byteLength":3444,
			"byteOffset":273520,
			"target":34962
		},
		{
			"buffer":0,
			"byteLength":3444,
			"byteOffset":276964,
			"target":34962
		},
		{
			"buffer":0,
			"byteLength":2296,
			"byteOffset":280408,
			"target":34962
		},
		{
			"buffer":0,
			"byteLength":1008,
			"byteOffset":282704,
			"target":34963
		},
		{
			"buffer":0,
			"byteLength":96,
			"byteOffset":283712,
			"target":34962
		},
		{
			"buffer":0,
			"byteLength":96,
			"byteOffset":283808,
			"target":34962
		},
		{
			"buffer":0,
			"byteLength":64,
			"byteOffset":283904,
			"target":34962
		},
		{
			"buffer":0,
			"byteLength":3672,
			"byteOffset":283968,
			"target":34962
		},
		{
			"buffer":0,
			"byteLength":3672,
			"byteOffset":287640,
			"target":34962
		},
		{
			"buffer":0,
			"byteLength":2448,
			"byteOffset":291312,
			"target":34962
		},
		{
			"buffer":0,
			"byteLength":1104,
			"byteOffset":293760,
			"target":34963
		},
		{
			"buffer":0,
			"byteLength":96,
			"byteOffset":294864,
			"target":34962
		},
		{
			"buffer":0,
			"byteLength":96,
			"byteOffset":294960,
			"target":34962
		},
		{
			"buffer":0,
			"byteLength":64,
			"byteOffset":295056,
			"target":34962
		},
		{
			"buffer":0,
			"byteLength":6360,
			"byteOffset":295120,
			"target":34962
		},
		{
			"buffer":0,
			"byteLength":6360,
			"byteOffset":301480,
			"target":34962
		},
		{
			"buffer":0,
			"byteLength":4240,
			"byteOffset":307840,
			"target":34962
		},
		{
			"buffer":0,
			"byteLength":2124,
			"byteOffset":312080,
			"target":34963
		},
		{
			"buffer":0,
			"byteLength":240,
			"byteOffset":314204,
			"target":34962
		},
		{
			"buffer":0,
			"byteLength":240,
			"byteOffset":314444,
			"target":34962
		},
		{
			"buffer":0,
			"byteLength":160,
			"byteOffset":314684,
			"target":34962
		},
		{
			"buffer":0,
			"byteLength":4200,
			"byteOffset":314844,
			"target":34962
		},
		{
			"buffer":0,
			"byteLength":4200,
			"byteOffset":319044,
			"target":34962
		},
		{
			"buffer":0,
			"byteLength":2800,
			"byteOffset":323244,
			"target":34962
		},
		{
			"buffer":0,
			"byteLength":1332,
			"byteOffset":326044,
			"target":34963
		},
		{
			"buffer":0,
			"byteLength":96,
			"byteOffset":327376,
			"target":34962
		},
		{
			"buffer":0,
			"byteLength":96,
			"byteOffset":327472,
			"target":34962
		},
		{
			"buffer":0,
			"byteLength":64,
			"byteOffset":327568,
			"target":34962
		},
		{
			"buffer":0,
			"byteLength":1032,
			"byteOffset":327632,
			"target":34962
		},
		{
			"buffer":0,
			"byteLength":1032,
			"byteOffset":328664,
			"target":34962
		},
		{
			"buffer":0,
			"byteLength":688,
			"byteOffset":329696,
			"target":34962
		},
		{
			"buffer":0,
			"byteLength":408,
			"byteOffset":330384,
			"target":34963
		},
		{
			"buffer":0,
			"byteLength":1032,
			"byteOffset":330792,
			"target":34962
		},
		{
			"buffer":0,
			"byteLength":1032,
			"byteOffset":331824,
			"target":34962
		},
		{
			"buffer":0,
			"byteLength":688,
			"byteOffset":332856,
			"target":34962
		},
		{
			"buffer":0,
			"byteLength":408,
			"byteOffset":333544,
			"target":34963
		},
		{
			"buffer":0,
			"byteLength":6072,
			"byteOffset":333952,
			"target":34962
		},
		{
			"buffer":0,
			"byteLength":6072,
			"byteOffset":340024,
			"target":34962
		},
		{
			"buffer":0,
			"byteLength":4048,
			"byteOffset":346096,
			"target":34962
		},
		{
			"buffer":0,
			"byteLength":2028,
			"byteOffset":350144,
			"target":34963
		},
		{
			"buffer":0,
			"byteLength":240,
			"byteOffset":352172,
			"target":34962
		},
		{
			"buffer":0,
			"byteLength":240,
			"byteOffset":352412,
			"target":34962
		},
		{
			"buffer":0,
			"byteLength":160,
			"byteOffset":352652,
			"target":34962
		},
		{
			"buffer":0,
			"byteLength":4068,
			"byteOffset":352812,
			"target":34962
		},
		{
			"buffer":0,
			"byteLength":4068,
			"byteOffset":356880,
			"target":34962
		},
		{
			"buffer":0,
			"byteLength":2712,
			"byteOffset":360948,
			"target":34962
		},
		{
			"buffer":0,
			"byteLength":1236,
			"byteOffset":363660,
			"target":34963
		},
		{
			"buffer":0,
			"byteLength":96,
			"byteOffset":364896,
			"target":34962
		},
		{
			"buffer":0,
			"byteLength":96,
			"byteOffset":364992,
			"target":34962
		},
		{
			"buffer":0,
			"byteLength":64,
			"byteOffset":365088,
			"target":34962
		},
		{
			"buffer":0,
			"byteLength":24,
			"byteOffset":365152,
			"target":34963
		},
		{
			"buffer":0,
			"byteLength":3408,
			"byteOffset":365176,
			"target":34962
		},
		{
			"buffer":0,
			"byteLength":3408,
			"byteOffset":368584,
			"target":34962
		},
		{
			"buffer":0,
			"byteLength":2272,
			"byteOffset":371992,
			"target":34962
		},
		{
			"buffer":0,
			"byteLength":1008,
			"byteOffset":374264,
			"target":34963
		},
		{
			"buffer":0,
			"byteLength":96,
			"byteOffset":375272,
			"target":34962
		},
		{
			"buffer":0,
			"byteLength":96,
			"byteOffset":375368,
			"target":34962
		},
		{
			"buffer":0,
			"byteLength":64,
			"byteOffset":375464,
			"target":34962
		},
		{
			"buffer":0,
			"byteLength":3672,
			"byteOffset":375528,
			"target":34962
		},
		{
			"buffer":0,
			"byteLength":3672,
			"byteOffset":379200,
			"target":34962
		},
		{
			"buffer":0,
			"byteLength":2448,
			"byteOffset":382872,
			"target":34962
		},
		{
			"buffer":0,
			"byteLength":1104,
			"byteOffset":385320,
			"target":34963
		},
		{
			"buffer":0,
			"byteLength":96,
			"byteOffset":386424,
			"target":34962
		},
		{
			"buffer":0,
			"byteLength":96,
			"byteOffset":386520,
			"target":34962
		},
		{
			"buffer":0,
			"byteLength":64,
			"byteOffset":386616,
			"target":34962
		},
		{
			"buffer":0,
			"byteLength":6312,
			"byteOffset":386680,
			"target":34962
		},
		{
			"buffer":0,
			"byteLength":6312,
			"byteOffset":392992,
			"target":34962
		},
		{
			"buffer":0,
			"byteLength":4208,
			"byteOffset":399304,
			"target":34962
		},
		{
			"buffer":0,
			"byteLength":2124,
			"byteOffset":403512,
			"target":34963
		},
		{
			"buffer":0,
			"byteLength":240,
			"byteOffset":405636,
			"target":34962
		},
		{
			"buffer":0,
			"byteLength":240,
			"byteOffset":405876,
			"target":34962
		},
		{
			"buffer":0,
			"byteLength":160,
			"byteOffset":406116,
			"target":34962
		},
		{
			"buffer":0,
			"byteLength":4200,
			"byteOffset":406276,
			"target":34962
		},
		{
			"buffer":0,
			"byteLength":4200,
			"byteOffset":410476,
			"target":34962
		},
		{
			"buffer":0,
			"byteLength":2800,
			"byteOffset":414676,
			"target":34962
		},
		{
			"buffer":0,
			"byteLength":1332,
			"byteOffset":417476,
			"target":34963
		},
		{
			"buffer":0,
			"byteLength":96,
			"byteOffset":418808,
			"target":34962
		},
		{
			"buffer":0,
			"byteLength":96,
			"byteOffset":418904,
			"target":34962
		},
		{
			"buffer":0,
			"byteLength":64,
			"byteOffset":419000,
			"target":34962
		},
		{
			"buffer":0,
			"byteLength":3168,
			"byteOffset":419064,
			"target":34962
		},
		{
			"buffer":0,
			"byteLength":3168,
			"byteOffset":422232,
			"target":34962
		},
		{
			"buffer":0,
			"byteLength":2112,
			"byteOffset":425400,
			"target":34962
		},
		{
			"buffer":0,
			"byteLength":1056,
			"byteOffset":427512,
			"target":34963
		},
		{
			"buffer":0,
			"byteLength":3084,
			"byteOffset":428568,
			"target":34962
		},
		{
			"buffer":0,
			"byteLength":3084,
			"byteOffset":431652,
			"target":34962
		},
		{
			"buffer":0,
			"byteLength":2056,
			"byteOffset":434736,
			"target":34962
		},
		{
			"buffer":0,
			"byteLength":912,
			"byteOffset":436792,
			"target":34963
		},
		{
			"buffer":0,
			"byteLength":2448,
			"byteOffset":437704,
			"target":34962
		},
		{
			"buffer":0,
			"byteLength":2448,
			"byteOffset":440152,
			"target":34962
		},
		{
			"buffer":0,
			"byteLength":1632,
			"byteOffset":442600,
			"target":34962
		},
		{
			"buffer":0,
			"byteLength":696,
			"byteOffset":444232,
			"target":34963
		},
		{
			"buffer":0,
			"byteLength":2712,
			"byteOffset":444928,
			"target":34962
		},
		{
			"buffer":0,
			"byteLength":2712,
			"byteOffset":447640,
			"target":34962
		},
		{
			"buffer":0,
			"byteLength":1808,
			"byteOffset":450352,
			"target":34962
		},
		{
			"buffer":0,
			"byteLength":792,
			"byteOffset":452160,
			"target":34963
		},
		{
			"buffer":0,
			"byteLength":4188,
			"byteOffset":452952,
			"target":34962
		},
		{
			"buffer":0,
			"byteLength":4188,
			"byteOffset":457140,
			"target":34962
		},
		{
			"buffer":0,
			"byteLength":2792,
			"byteOffset":461328,
			"target":34962
		},
		{
			"buffer":0,
			"byteLength":1404,
			"byteOffset":464120,
			"target":34963
		},
		{
			"buffer":0,
			"byteLength":3912,
			"byteOffset":465524,
			"target":34962
		},
		{
			"buffer":0,
			"byteLength":3912,
			"byteOffset":469436,
			"target":34962
		},
		{
			"buffer":0,
			"byteLength":2608,
			"byteOffset":473348,
			"target":34962
		},
		{
			"buffer":0,
			"byteLength":1260,
			"byteOffset":475956,
			"target":34963
		},
		{
			"buffer":0,
			"byteLength":2928,
			"byteOffset":477216,
			"target":34962
		},
		{
			"buffer":0,
			"byteLength":2928,
			"byteOffset":480144,
			"target":34962
		},
		{
			"buffer":0,
			"byteLength":1952,
			"byteOffset":483072,
			"target":34962
		},
		{
			"buffer":0,
			"byteLength":864,
			"byteOffset":485024,
			"target":34963
		},
		{
			"buffer":0,
			"byteLength":2880,
			"byteOffset":485888,
			"target":34962
		},
		{
			"buffer":0,
			"byteLength":2880,
			"byteOffset":488768,
			"target":34962
		},
		{
			"buffer":0,
			"byteLength":1920,
			"byteOffset":491648,
			"target":34962
		},
		{
			"buffer":0,
			"byteLength":864,
			"byteOffset":493568,
			"target":34963
		},
		{
			"buffer":0,
			"byteLength":2880,
			"byteOffset":494432,
			"target":34962
		},
		{
			"buffer":0,
			"byteLength":2880,
			"byteOffset":497312,
			"target":34962
		},
		{
			"buffer":0,
			"byteLength":1920,
			"byteOffset":500192,
			"target":34962
		},
		{
			"buffer":0,
			"byteLength":864,
			"byteOffset":502112,
			"target":34963
		},
		{
			"buffer":0,
			"byteLength":2928,
			"byteOffset":502976,
			"target":34962
		},
		{
			"buffer":0,
			"byteLength":2928,
			"byteOffset":505904,
			"target":34962
		},
		{
			"buffer":0,
			"byteLength":1952,
			"byteOffset":508832,
			"target":34962
		},
		{
			"buffer":0,
			"byteLength":864,
			"byteOffset":510784,
			"target":34963
		},
		{
			"buffer":0,
			"byteLength":3144,
			"byteOffset":511648,
			"target":34962
		},
		{
			"buffer":0,
			"byteLength":3144,
			"byteOffset":514792,
			"target":34962
		},
		{
			"buffer":0,
			"byteLength":2096,
			"byteOffset":517936,
			"target":34962
		},
		{
			"buffer":0,
			"byteLength":1044,
			"byteOffset":520032,
			"target":34963
		},
		{
			"buffer":0,
			"byteLength":3060,
			"byteOffset":521076,
			"target":34962
		},
		{
			"buffer":0,
			"byteLength":3060,
			"byteOffset":524136,
			"target":34962
		},
		{
			"buffer":0,
			"byteLength":2040,
			"byteOffset":527196,
			"target":34962
		},
		{
			"buffer":0,
			"byteLength":900,
			"byteOffset":529236,
			"target":34963
		},
		{
			"buffer":0,
			"byteLength":2448,
			"byteOffset":530136,
			"target":34962
		},
		{
			"buffer":0,
			"byteLength":2448,
			"byteOffset":532584,
			"target":34962
		},
		{
			"buffer":0,
			"byteLength":1632,
			"byteOffset":535032,
			"target":34962
		},
		{
			"buffer":0,
			"byteLength":696,
			"byteOffset":536664,
			"target":34963
		},
		{
			"buffer":0,
			"byteLength":2712,
			"byteOffset":537360,
			"target":34962
		},
		{
			"buffer":0,
			"byteLength":2712,
			"byteOffset":540072,
			"target":34962
		},
		{
			"buffer":0,
			"byteLength":1808,
			"byteOffset":542784,
			"target":34962
		},
		{
			"buffer":0,
			"byteLength":792,
			"byteOffset":544592,
			"target":34963
		},
		{
			"buffer":0,
			"byteLength":4044,
			"byteOffset":545384,
			"target":34962
		},
		{
			"buffer":0,
			"byteLength":4044,
			"byteOffset":549428,
			"target":34962
		},
		{
			"buffer":0,
			"byteLength":2696,
			"byteOffset":553472,
			"target":34962
		},
		{
			"buffer":0,
			"byteLength":1332,
			"byteOffset":556168,
			"target":34963
		},
		{
			"buffer":0,
			"byteLength":3912,
			"byteOffset":557500,
			"target":34962
		},
		{
			"buffer":0,
			"byteLength":3912,
			"byteOffset":561412,
			"target":34962
		},
		{
			"buffer":0,
			"byteLength":2608,
			"byteOffset":565324,
			"target":34962
		},
		{
			"buffer":0,
			"byteLength":1260,
			"byteOffset":567932,
			"target":34963
		},
		{
			"buffer":0,
			"byteLength":8664,
			"byteOffset":569192,
			"target":34962
		},
		{
			"buffer":0,
			"byteLength":8664,
			"byteOffset":577856,
			"target":34962
		},
		{
			"buffer":0,
			"byteLength":5776,
			"byteOffset":586520,
			"target":34962
		},
		{
			"buffer":0,
			"byteLength":2424,
			"byteOffset":592296,
			"target":34963
		},
		{
			"buffer":0,
			"byteLength":96,
			"byteOffset":594720,
			"target":34962
		},
		{
			"buffer":0,
			"byteLength":96,
			"byteOffset":594816,
			"target":34962
		},
		{
			"buffer":0,
			"byteLength":64,
			"byteOffset":594912,
			"target":34962
		},
		{
			"buffer":0,
			"byteLength":24,
			"byteOffset":594976,
			"target":34963
		},
		{
			"buffer":0,
			"byteLength":7896,
			"byteOffset":595000,
			"target":34962
		},
		{
			"buffer":0,
			"byteLength":7896,
			"byteOffset":602896,
			"target":34962
		},
		{
			"buffer":0,
			"byteLength":5264,
			"byteOffset":610792,
			"target":34962
		},
		{
			"buffer":0,
			"byteLength":2136,
			"byteOffset":616056,
			"target":34963
		},
		{
			"buffer":0,
			"byteLength":96,
			"byteOffset":618192,
			"target":34962
		},
		{
			"buffer":0,
			"byteLength":96,
			"byteOffset":618288,
			"target":34962
		},
		{
			"buffer":0,
			"byteLength":64,
			"byteOffset":618384,
			"target":34962
		},
		{
			"buffer":0,
			"byteLength":1284,
			"byteOffset":618448,
			"target":34962
		},
		{
			"buffer":0,
			"byteLength":1284,
			"byteOffset":619732,
			"target":34962
		},
		{
			"buffer":0,
			"byteLength":856,
			"byteOffset":621016,
			"target":34962
		},
		{
			"buffer":0,
			"byteLength":348,
			"byteOffset":621872,
			"target":34963
		},
		{
			"buffer":0,
			"byteLength":1284,
			"byteOffset":622220,
			"target":34962
		},
		{
			"buffer":0,
			"byteLength":1284,
			"byteOffset":623504,
			"target":34962
		},
		{
			"buffer":0,
			"byteLength":856,
			"byteOffset":624788,
			"target":34962
		},
		{
			"buffer":0,
			"byteLength":348,
			"byteOffset":625644,
			"target":34963
		},
		{
			"buffer":0,
			"byteLength":3492,
			"byteOffset":625992,
			"target":34962
		},
		{
			"buffer":0,
			"byteLength":3492,
			"byteOffset":629484,
			"target":34962
		},
		{
			"buffer":0,
			"byteLength":2328,
			"byteOffset":632976,
			"target":34962
		},
		{
			"buffer":0,
			"byteLength":1248,
			"byteOffset":635304,
			"target":34963
		},
		{
			"buffer":0,
			"byteLength":3504,
			"byteOffset":636552,
			"target":34962
		},
		{
			"buffer":0,
			"byteLength":3504,
			"byteOffset":640056,
			"target":34962
		},
		{
			"buffer":0,
			"byteLength":2336,
			"byteOffset":643560,
			"target":34962
		},
		{
			"buffer":0,
			"byteLength":1248,
			"byteOffset":645896,
			"target":34963
		}
	],
	"buffers":[
		{
			"byteLength":647144,
			"uri":"Walls_Floors_Style_B.bin"
		}
	]
}
