{
	"asset":{
		"generator":"Khronos glTF Blender I/O v3.6.27",
		"version":"2.0"
	},
	"scene":0,
	"scenes":[
		{
			"name":"Scene",
			"nodes":[
				0,
				1,
				2,
				3,
				4,
				5,
				6,
				7,
				8,
				9,
				10,
				11,
				12,
				13,
				14,
				15,
				16,
				17,
				18,
				19,
				20,
				21,
				22,
				23,
				24,
				25,
				26,
				27,
				28,
				29,
				30,
				31,
				32,
				33,
				34,
				35,
				36,
				37,
				38,
				39,
				40,
				41,
				42,
				43,
				44,
				45,
				46,
				47,
				48,
				49,
				50
			]
		}
	],
	"nodes":[
		{
			"mesh":0,
			"name":"Wall_C_Light_Mid_End_XL",
			"translation":[
				-20,
				0,
				13
			]
		},
		{
			"mesh":1,
			"name":"Wall_C_Light_Mid_End_X",
			"translation":[
				-20,
				0,
				8
			]
		},
		{
			"mesh":2,
			"name":"Wall_C_Light_Mid",
			"translation":[
				-20,
				0,
				4
			]
		},
		{
			"mesh":3,
			"name":"Wall_C_Light_Corner_Mid",
			"translation":[
				-20,
				0,
				0
			]
		},
		{
			"mesh":4,
			"name":"Wall_C_Light_Corner_End_XL",
			"translation":[
				-10,
				0,
				6
			]
		},
		{
			"mesh":5,
			"name":"Wall_C_Light_Corner_End_X",
			"translation":[
				-16,
				0,
				6
			]
		},
		{
			"mesh":6,
			"name":"Wall_C_Enclosed_Corner_W",
			"translation":[
				-14,
				0,
				14
			]
		},
		{
			"mesh":7,
			"name":"Wall_C_Enclosed_Corner_S",
			"translation":[
				-14,
				0,
				14
			]
		},
		{
			"mesh":8,
			"name":"Wall_C_Enclosed_Corner_N",
			"translation":[
				-14,
				0,
				14
			]
		},
		{
			"mesh":9,
			"name":"Wall_C_Enclosed_Corner_E",
			"translation":[
				-14,
				0,
				14
			]
		},
		{
			"mesh":10,
			"name":"Wall_C_Dark_Mid_End_XL",
			"translation":[
				-7,
				0,
				0
			]
		},
		{
			"mesh":11,
			"name":"Wall_C_Dark_Mid_End_X",
			"translation":[
				-12,
				0,
				0
			]
		},
		{
			"mesh":12,
			"name":"Wall_C_Dark_Mid",
			"translation":[
				-16,
				0,
				0
			]
		},
		{
			"mesh":13,
			"name":"Wall_C_Dark_Corner_Mid",
			"translation":[
				-20,
				0,
				0
			]
		},
		{
			"mesh":14,
			"name":"Wall_C_Dark_Corner_End_XL",
			"translation":[
				-10,
				0,
				6
			]
		},
		{
			"mesh":15,
			"name":"Wall_C_Dark_Corner_End_X",
			"translation":[
				-16,
				0,
				6
			]
		},
		{
			"mesh":16,
			"name":"Flooring_C_Tiling"
		},
		{
			"mesh":17,
			"name":"Flooring_C_Entrance",
			"translation":[
				-1,
				0,
				2
			]
		},
		{
			"mesh":18,
			"name":"Wall_C_Window_Light_Mid_End_XL",
			"translation":[
				9,
				0,
				13
			]
		},
		{
			"mesh":19,
			"name":"Wall_C_Window_Light_Mid_End_X",
			"translation":[
				9,
				0,
				8
			]
		},
		{
			"mesh":20,
			"name":"Wall_C_Window_Light_Mid",
			"translation":[
				9,
				0,
				4
			]
		},
		{
			"mesh":21,
			"name":"Wall_C_Window_Light_Corner_Mid",
			"translation":[
				9,
				0,
				0
			]
		},
		{
			"mesh":22,
			"name":"Wall_C_Window_Light_Corner_End_XL",
			"translation":[
				19,
				0,
				6
			]
		},
		{
			"mesh":23,
			"name":"Wall_C_Window_Light_Corner_End_X",
			"translation":[
				13,
				0,
				6
			]
		},
		{
			"mesh":24,
			"name":"Wall_C_Window_Dark_Mid_End_XL",
			"translation":[
				22,
				0,
				0
			]
		},
		{
			"mesh":25,
			"name":"Wall_C_Window_Dark_Mid_End_X",
			"translation":[
				17,
				0,
				0
			]
		},
		{
			"mesh":26,
			"name":"Wall_C_Window_Dark_Mid",
			"translation":[
				13,
				0,
				0
			]
		},
		{
			"mesh":27,
			"name":"Wall_C_Window_Dark_Corner_Mid",
			"translation":[
				9,
				0,
				0
			]
		},
		{
			"mesh":28,
			"name":"Wall_C_Window_Dark_Corner_End_XL",
			"translation":[
				19,
				0,
				6
			]
		},
		{
			"mesh":29,
			"name":"Wall_C_Window_Dark_Corner_End_X",
			"translation":[
				13,
				0,
				6
			]
		},
		{
			"mesh":30,
			"name":"Wall_DoorC_Enclosed_Corner_W",
			"translation":[
				-14,
				0,
				37
			]
		},
		{
			"mesh":31,
			"name":"Wall_DoorC_Enclosed_Corner_S",
			"translation":[
				-14,
				0,
				37
			]
		},
		{
			"mesh":32,
			"name":"Wall_DoorC_Enclosed_Corner_N",
			"translation":[
				-14,
				0,
				37
			]
		},
		{
			"mesh":33,
			"name":"Wall_DoorC_Enclosed_Corner_E",
			"translation":[
				-14,
				0,
				37
			]
		},
		{
			"mesh":34,
			"name":"Wall_Door_C_Light_Mid_End_XL",
			"translation":[
				-20,
				0,
				36
			]
		},
		{
			"mesh":35,
			"name":"Wall_Door_C_Light_Mid_End_X",
			"translation":[
				-20,
				0,
				31
			]
		},
		{
			"mesh":36,
			"name":"Wall_Door_C_Light_Mid",
			"translation":[
				-20,
				0,
				27
			]
		},
		{
			"mesh":37,
			"name":"Wall_Door_C_Light_Corner_Mid",
			"translation":[
				-20,
				0,
				23
			]
		},
		{
			"mesh":38,
			"name":"Wall_Door_C_Light_Corner_End_XL",
			"translation":[
				-10,
				0,
				26
			]
		},
		{
			"mesh":39,
			"name":"Wall_Door_C_Light_Corner_End_X",
			"translation":[
				-16,
				0,
				26
			]
		},
		{
			"mesh":40,
			"name":"Wall_Door_C_Dark_Mid_End_XL",
			"translation":[
				-7,
				0,
				23
			]
		},
		{
			"mesh":41,
			"name":"Wall_Door_C_Dark_Mid_End_X",
			"translation":[
				-12,
				0,
				23
			]
		},
		{
			"mesh":42,
			"name":"Wall_Door_C_Dark_Mid",
			"translation":[
				-16,
				0,
				23
			]
		},
		{
			"mesh":43,
			"name":"Wall_Door_C_Dark_Corner_Mid",
			"translation":[
				-20,
				0,
				23
			]
		},
		{
			"mesh":44,
			"name":"Wall_Door_C_Dark_Corner_End_XL",
			"translation":[
				-10,
				0,
				26
			]
		},
		{
			"mesh":45,
			"name":"Wall_Door_C_Dark_Corner_End_X",
			"translation":[
				-16,
				0,
				26
			]
		},
		{
			"mesh":46,
			"name":"Door_Style_C",
			"translation":[
				-15,
				0,
				41
			]
		},
		{
			"mesh":47,
			"name":"Wall_Pillar_C_Light",
			"translation":[
				-20,
				0,
				1
			]
		},
		{
			"mesh":48,
			"name":"Wall_Pillar_C_Dark",
			"translation":[
				-19,
				0,
				0
			]
		},
		{
			"mesh":49,
			"name":"Wall_Arc_C_Light_Mid",
			"translation":[
				-16,
				0,
				6
			]
		},
		{
			"mesh":50,
			"name":"Wall_Arc_C_Dark_Mid",
			"translation":[
				-10,
				0,
				6
			]
		}
	],
	"meshes":[
		{
			"name":"Wall_C_Light_Mid_End_XL",
			"primitives":[
				{
					"attributes":{
						"POSITION":0,
						"NORMAL":1,
						"TEXCOORD_0":2
					},
					"indices":3
				}
			]
		},
		{
			"name":"Wall_C_Light_Mid_End_X",
			"primitives":[
				{
					"attributes":{
						"POSITION":4,
						"NORMAL":5,
						"TEXCOORD_0":6
					},
					"indices":7
				}
			]
		},
		{
			"name":"Wall_C_Light_Mid",
			"primitives":[
				{
					"attributes":{
						"POSITION":8,
						"NORMAL":9,
						"TEXCOORD_0":10
					},
					"indices":11
				}
			]
		},
		{
			"name":"Wall_C_Light_Corner_Mid",
			"primitives":[
				{
					"attributes":{
						"POSITION":12,
						"NORMAL":13,
						"TEXCOORD_0":14
					},
					"indices":15
				}
			]
		},
		{
			"name":"Wall_C_Light_Corner_End_XL",
			"primitives":[
				{
					"attributes":{
						"POSITION":16,
						"NORMAL":17,
						"TEXCOORD_0":18
					},
					"indices":19
				}
			]
		},
		{
			"name":"Wall_C_Light_Corner_End_X",
			"primitives":[
				{
					"attributes":{
						"POSITION":20,
						"NORMAL":21,
						"TEXCOORD_0":22
					},
					"indices":23
				}
			]
		},
		{
			"name":"Wall_C_Enclosed_Corner_W",
			"primitives":[
				{
					"attributes":{
						"POSITION":24,
						"NORMAL":25,
						"TEXCOORD_0":26
					},
					"indices":27
				}
			]
		},
		{
			"name":"Wall_C_Enclosed_Corner_S",
			"primitives":[
				{
					"attributes":{
						"POSITION":28,
						"NORMAL":29,
						"TEXCOORD_0":30
					},
					"indices":31
				}
			]
		},
		{
			"name":"Wall_C_Enclosed_Corner_N",
			"primitives":[
				{
					"attributes":{
						"POSITION":32,
						"NORMAL":33,
						"TEXCOORD_0":34
					},
					"indices":35
				}
			]
		},
		{
			"name":"Wall_C_Enclosed_Corner_E",
			"primitives":[
				{
					"attributes":{
						"POSITION":36,
						"NORMAL":37,
						"TEXCOORD_0":38
					},
					"indices":39
				}
			]
		},
		{
			"name":"Wall_C_Dark_Mid_End_XL",
			"primitives":[
				{
					"attributes":{
						"POSITION":40,
						"NORMAL":41,
						"TEXCOORD_0":42
					},
					"indices":43
				}
			]
		},
		{
			"name":"Wall_C_Dark_Mid_End_X",
			"primitives":[
				{
					"attributes":{
						"POSITION":44,
						"NORMAL":45,
						"TEXCOORD_0":46
					},
					"indices":47
				}
			]
		},
		{
			"name":"Wall_C_Dark_Mid",
			"primitives":[
				{
					"attributes":{
						"POSITION":48,
						"NORMAL":49,
						"TEXCOORD_0":50
					},
					"indices":51
				}
			]
		},
		{
			"name":"Wall_C_Dark_Corner_Mid",
			"primitives":[
				{
					"attributes":{
						"POSITION":52,
						"NORMAL":53,
						"TEXCOORD_0":54
					},
					"indices":55
				}
			]
		},
		{
			"name":"Wall_C_Dark_Corner_End_XL",
			"primitives":[
				{
					"attributes":{
						"POSITION":56,
						"NORMAL":57,
						"TEXCOORD_0":58
					},
					"indices":59
				}
			]
		},
		{
			"name":"Wall_C_Dark_Corner_End_X",
			"primitives":[
				{
					"attributes":{
						"POSITION":60,
						"NORMAL":61,
						"TEXCOORD_0":62
					},
					"indices":63
				}
			]
		},
		{
			"name":"Flooring_C_Tiling",
			"primitives":[
				{
					"attributes":{
						"POSITION":64,
						"NORMAL":65,
						"TEXCOORD_0":66
					},
					"indices":67
				}
			]
		},
		{
			"name":"Flooring_C_Entrance",
			"primitives":[
				{
					"attributes":{
						"POSITION":68,
						"NORMAL":69,
						"TEXCOORD_0":70
					},
					"indices":71
				}
			]
		},
		{
			"name":"Wall_C_Window_Light_Mid_End_XL",
			"primitives":[
				{
					"attributes":{
						"POSITION":72,
						"NORMAL":73,
						"TEXCOORD_0":74
					},
					"indices":75
				},
				{
					"attributes":{
						"POSITION":76,
						"NORMAL":77,
						"TEXCOORD_0":78
					},
					"indices":79
				}
			]
		},
		{
			"name":"Wall_C_Window_Light_Mid_End_X",
			"primitives":[
				{
					"attributes":{
						"POSITION":80,
						"NORMAL":81,
						"TEXCOORD_0":82
					},
					"indices":83
				},
				{
					"attributes":{
						"POSITION":84,
						"NORMAL":85,
						"TEXCOORD_0":86
					},
					"indices":87
				}
			]
		},
		{
			"name":"Wall_C_Window_Light_Mid",
			"primitives":[
				{
					"attributes":{
						"POSITION":88,
						"NORMAL":89,
						"TEXCOORD_0":90
					},
					"indices":91
				},
				{
					"attributes":{
						"POSITION":92,
						"NORMAL":93,
						"TEXCOORD_0":94
					},
					"indices":87
				}
			]
		},
		{
			"name":"Wall_C_Window_Light_Corner_Mid",
			"primitives":[
				{
					"attributes":{
						"POSITION":95,
						"NORMAL":96,
						"TEXCOORD_0":97
					},
					"indices":98
				},
				{
					"attributes":{
						"POSITION":99,
						"NORMAL":100,
						"TEXCOORD_0":101
					},
					"indices":87
				}
			]
		},
		{
			"name":"Wall_C_Window_Light_Corner_End_XL",
			"primitives":[
				{
					"attributes":{
						"POSITION":102,
						"NORMAL":103,
						"TEXCOORD_0":104
					},
					"indices":105
				},
				{
					"attributes":{
						"POSITION":106,
						"NORMAL":107,
						"TEXCOORD_0":108
					},
					"indices":87
				}
			]
		},
		{
			"name":"Wall_C_Window_Light_Corner_End_X",
			"primitives":[
				{
					"attributes":{
						"POSITION":109,
						"NORMAL":110,
						"TEXCOORD_0":111
					},
					"indices":112
				},
				{
					"attributes":{
						"POSITION":113,
						"NORMAL":114,
						"TEXCOORD_0":115
					},
					"indices":87
				}
			]
		},
		{
			"name":"Wall_C_Window_Dark_Mid_End_XL",
			"primitives":[
				{
					"attributes":{
						"POSITION":116,
						"NORMAL":117,
						"TEXCOORD_0":118
					},
					"indices":119
				},
				{
					"attributes":{
						"POSITION":120,
						"NORMAL":121,
						"TEXCOORD_0":122
					},
					"indices":123
				}
			]
		},
		{
			"name":"Wall_C_Window_Dark_Mid_End_X",
			"primitives":[
				{
					"attributes":{
						"POSITION":124,
						"NORMAL":125,
						"TEXCOORD_0":126
					},
					"indices":127
				},
				{
					"attributes":{
						"POSITION":128,
						"NORMAL":129,
						"TEXCOORD_0":130
					},
					"indices":131
				}
			]
		},
		{
			"name":"Wall_C_Window_Dark_Mid",
			"primitives":[
				{
					"attributes":{
						"POSITION":132,
						"NORMAL":133,
						"TEXCOORD_0":134
					},
					"indices":135
				},
				{
					"attributes":{
						"POSITION":136,
						"NORMAL":137,
						"TEXCOORD_0":138
					},
					"indices":131
				}
			]
		},
		{
			"name":"Wall_C_Window_Dark_Corner_Mid",
			"primitives":[
				{
					"attributes":{
						"POSITION":139,
						"NORMAL":140,
						"TEXCOORD_0":141
					},
					"indices":142
				},
				{
					"attributes":{
						"POSITION":143,
						"NORMAL":144,
						"TEXCOORD_0":145
					},
					"indices":131
				}
			]
		},
		{
			"name":"Wall_C_Window_Dark_Corner_End_XL",
			"primitives":[
				{
					"attributes":{
						"POSITION":146,
						"NORMAL":147,
						"TEXCOORD_0":148
					},
					"indices":149
				},
				{
					"attributes":{
						"POSITION":150,
						"NORMAL":151,
						"TEXCOORD_0":152
					},
					"indices":123
				}
			]
		},
		{
			"name":"Wall_C_Window_Dark_Corner_End_X",
			"primitives":[
				{
					"attributes":{
						"POSITION":153,
						"NORMAL":154,
						"TEXCOORD_0":155
					},
					"indices":156
				},
				{
					"attributes":{
						"POSITION":157,
						"NORMAL":158,
						"TEXCOORD_0":159
					},
					"indices":123
				}
			]
		},
		{
			"name":"Wall_DoorC_Enclosed_Corner_W",
			"primitives":[
				{
					"attributes":{
						"POSITION":160,
						"NORMAL":161,
						"TEXCOORD_0":162
					},
					"indices":163
				}
			]
		},
		{
			"name":"Wall_DoorC_Enclosed_Corner_S",
			"primitives":[
				{
					"attributes":{
						"POSITION":164,
						"NORMAL":165,
						"TEXCOORD_0":166
					},
					"indices":167
				}
			]
		},
		{
			"name":"Wall_DoorC_Enclosed_Corner_N",
			"primitives":[
				{
					"attributes":{
						"POSITION":168,
						"NORMAL":169,
						"TEXCOORD_0":170
					},
					"indices":171
				}
			]
		},
		{
			"name":"Wall_DoorC_Enclosed_Corner_E",
			"primitives":[
				{
					"attributes":{
						"POSITION":172,
						"NORMAL":173,
						"TEXCOORD_0":174
					},
					"indices":175
				}
			]
		},
		{
			"name":"Wall_Door_C_Light_Mid_End_XL",
			"primitives":[
				{
					"attributes":{
						"POSITION":176,
						"NORMAL":177,
						"TEXCOORD_0":178
					},
					"indices":179
				}
			]
		},
		{
			"name":"Wall_Door_C_Light_Mid_End_X",
			"primitives":[
				{
					"attributes":{
						"POSITION":180,
						"NORMAL":181,
						"TEXCOORD_0":182
					},
					"indices":183
				}
			]
		},
		{
			"name":"Wall_Door_C_Light_Mid",
			"primitives":[
				{
					"attributes":{
						"POSITION":184,
						"NORMAL":185,
						"TEXCOORD_0":186
					},
					"indices":187
				}
			]
		},
		{
			"name":"Wall_Door_C_Light_Corner_Mid",
			"primitives":[
				{
					"attributes":{
						"POSITION":188,
						"NORMAL":189,
						"TEXCOORD_0":190
					},
					"indices":191
				}
			]
		},
		{
			"name":"Wall_Door_C_Light_Corner_End_XL",
			"primitives":[
				{
					"attributes":{
						"POSITION":192,
						"NORMAL":193,
						"TEXCOORD_0":194
					},
					"indices":195
				}
			]
		},
		{
			"name":"Wall_Door_C_Light_Corner_End_X",
			"primitives":[
				{
					"attributes":{
						"POSITION":196,
						"NORMAL":197,
						"TEXCOORD_0":198
					},
					"indices":199
				}
			]
		},
		{
			"name":"Wall_Door_C_Dark_Mid_End_XL",
			"primitives":[
				{
					"attributes":{
						"POSITION":200,
						"NORMAL":201,
						"TEXCOORD_0":202
					},
					"indices":203
				}
			]
		},
		{
			"name":"Wall_Door_C_Dark_Mid_End_X",
			"primitives":[
				{
					"attributes":{
						"POSITION":204,
						"NORMAL":205,
						"TEXCOORD_0":206
					},
					"indices":207
				}
			]
		},
		{
			"name":"Wall_Door_C_Dark_Mid",
			"primitives":[
				{
					"attributes":{
						"POSITION":208,
						"NORMAL":209,
						"TEXCOORD_0":210
					},
					"indices":211
				}
			]
		},
		{
			"name":"Wall_Door_C_Dark_Corner_Mid",
			"primitives":[
				{
					"attributes":{
						"POSITION":212,
						"NORMAL":213,
						"TEXCOORD_0":214
					},
					"indices":215
				}
			]
		},
		{
			"name":"Wall_Door_C_Dark_Corner_End_XL",
			"primitives":[
				{
					"attributes":{
						"POSITION":216,
						"NORMAL":217,
						"TEXCOORD_0":218
					},
					"indices":219
				}
			]
		},
		{
			"name":"Wall_Door_C_Dark_Corner_End_X",
			"primitives":[
				{
					"attributes":{
						"POSITION":220,
						"NORMAL":221,
						"TEXCOORD_0":222
					},
					"indices":223
				}
			]
		},
		{
			"name":"Door_Style_C",
			"primitives":[
				{
					"attributes":{
						"POSITION":224,
						"NORMAL":225,
						"TEXCOORD_0":226
					},
					"indices":227
				},
				{
					"attributes":{
						"POSITION":228,
						"NORMAL":229,
						"TEXCOORD_0":230
					},
					"indices":231
				}
			]
		},
		{
			"name":"Cube.261",
			"primitives":[
				{
					"attributes":{
						"POSITION":232,
						"NORMAL":233,
						"TEXCOORD_0":234
					},
					"indices":235
				}
			]
		},
		{
			"name":"Cube.243",
			"primitives":[
				{
					"attributes":{
						"POSITION":236,
						"NORMAL":237,
						"TEXCOORD_0":238
					},
					"indices":239
				}
			]
		},
		{
			"name":"Cube.236",
			"primitives":[
				{
					"attributes":{
						"POSITION":240,
						"NORMAL":241,
						"TEXCOORD_0":242
					},
					"indices":243
				}
			]
		},
		{
			"name":"Cube.223",
			"primitives":[
				{
					"attributes":{
						"POSITION":244,
						"NORMAL":245,
						"TEXCOORD_0":246
					},
					"indices":247
				}
			]
		}
	],
	"accessors":[
		{
			"bufferView":0,
			"componentType":5126,
			"count":318,
			"max":[
				-1.9499998092651367,
				4,
				2.049997329711914
			],
			"min":[
				-2.250000476837158,
				1.3969838619232178e-07,
				-2.000000238418579
			],
			"type":"VEC3"
		},
		{
			"bufferView":1,
			"componentType":5126,
			"count":318,
			"type":"VEC3"
		},
		{
			"bufferView":2,
			"componentType":5126,
			"count":318,
			"type":"VEC2"
		},
		{
			"bufferView":3,
			"componentType":5123,
			"count":570,
			"type":"SCALAR"
		},
		{
			"bufferView":4,
			"componentType":5126,
			"count":309,
			"max":[
				-1.9499952793121338,
				4,
				2.0500001907348633
			],
			"min":[
				-2.2500007152557373,
				2.384185791015625e-07,
				-2
			],
			"type":"VEC3"
		},
		{
			"bufferView":5,
			"componentType":5126,
			"count":309,
			"type":"VEC3"
		},
		{
			"bufferView":6,
			"componentType":5126,
			"count":309,
			"type":"VEC2"
		},
		{
			"bufferView":7,
			"componentType":5123,
			"count":498,
			"type":"SCALAR"
		},
		{
			"bufferView":8,
			"componentType":5126,
			"count":240,
			"max":[
				-1.9499965906143188,
				4,
				2.000000238418579
			],
			"min":[
				-2.2500007152557373,
				-7.450580596923828e-09,
				-2.000000238418579
			],
			"type":"VEC3"
		},
		{
			"bufferView":9,
			"componentType":5126,
			"count":240,
			"type":"VEC3"
		},
		{
			"bufferView":10,
			"componentType":5126,
			"count":240,
			"type":"VEC2"
		},
		{
			"bufferView":11,
			"componentType":5123,
			"count":366,
			"type":"SCALAR"
		},
		{
			"bufferView":12,
			"componentType":5126,
			"count":262,
			"max":[
				-1.949995994567871,
				4,
				2
			],
			"min":[
				-2.2500007152557373,
				1.3969838619232178e-07,
				-2.212745189666748
			],
			"type":"VEC3"
		},
		{
			"bufferView":13,
			"componentType":5126,
			"count":262,
			"type":"VEC3"
		},
		{
			"bufferView":14,
			"componentType":5126,
			"count":262,
			"type":"VEC2"
		},
		{
			"bufferView":15,
			"componentType":5123,
			"count":414,
			"type":"SCALAR"
		},
		{
			"bufferView":16,
			"componentType":5126,
			"count":355,
			"max":[
				-1.9499998092651367,
				4,
				2.049997568130493
			],
			"min":[
				-2.250000238418579,
				1.3969838619232178e-07,
				-2.212745189666748
			],
			"type":"VEC3"
		},
		{
			"bufferView":17,
			"componentType":5126,
			"count":355,
			"type":"VEC3"
		},
		{
			"bufferView":18,
			"componentType":5126,
			"count":355,
			"type":"VEC2"
		},
		{
			"bufferView":19,
			"componentType":5123,
			"count":654,
			"type":"SCALAR"
		},
		{
			"bufferView":20,
			"componentType":5126,
			"count":330,
			"max":[
				-1.9499998092651367,
				4,
				2.049997329711914
			],
			"min":[
				-2.250000476837158,
				1.3969838619232178e-07,
				-2.212745428085327
			],
			"type":"VEC3"
		},
		{
			"bufferView":21,
			"componentType":5126,
			"count":330,
			"type":"VEC3"
		},
		{
			"bufferView":22,
			"componentType":5126,
			"count":330,
			"type":"VEC2"
		},
		{
			"bufferView":23,
			"componentType":5123,
			"count":582,
			"type":"SCALAR"
		},
		{
			"bufferView":24,
			"componentType":5126,
			"count":284,
			"max":[
				-1.9499993324279785,
				4,
				2.2127437591552734
			],
			"min":[
				-2.2500007152557373,
				1.1920928244535389e-07,
				-2.212745189666748
			],
			"type":"VEC3"
		},
		{
			"bufferView":25,
			"componentType":5126,
			"count":284,
			"type":"VEC3"
		},
		{
			"bufferView":26,
			"componentType":5126,
			"count":284,
			"type":"VEC2"
		},
		{
			"bufferView":27,
			"componentType":5123,
			"count":462,
			"type":"SCALAR"
		},
		{
			"bufferView":28,
			"componentType":5126,
			"count":284,
			"max":[
				2.2127456665039062,
				4,
				2.2500011920928955
			],
			"min":[
				-2.2127442359924316,
				1.1920928955078125e-07,
				1.9499995708465576
			],
			"type":"VEC3"
		},
		{
			"bufferView":29,
			"componentType":5126,
			"count":284,
			"type":"VEC3"
		},
		{
			"bufferView":30,
			"componentType":5126,
			"count":284,
			"type":"VEC2"
		},
		{
			"bufferView":31,
			"componentType":5123,
			"count":462,
			"type":"SCALAR"
		},
		{
			"bufferView":32,
			"componentType":5126,
			"count":284,
			"max":[
				2.2127444744110107,
				4,
				-1.9499993324279785
			],
			"min":[
				-2.212745428085327,
				1.1920928244535389e-07,
				-2.2500009536743164
			],
			"type":"VEC3"
		},
		{
			"bufferView":33,
			"componentType":5126,
			"count":284,
			"type":"VEC3"
		},
		{
			"bufferView":34,
			"componentType":5126,
			"count":284,
			"type":"VEC2"
		},
		{
			"bufferView":35,
			"componentType":5123,
			"count":462,
			"type":"SCALAR"
		},
		{
			"bufferView":36,
			"componentType":5126,
			"count":284,
			"max":[
				2.2500009536743164,
				4,
				2.2127435207366943
			],
			"min":[
				1.9499995708465576,
				1.1920928955078125e-07,
				-2.212745428085327
			],
			"type":"VEC3"
		},
		{
			"bufferView":37,
			"componentType":5126,
			"count":284,
			"type":"VEC3"
		},
		{
			"bufferView":38,
			"componentType":5126,
			"count":284,
			"type":"VEC2"
		},
		{
			"bufferView":39,
			"componentType":5123,
			"count":462,
			"type":"SCALAR"
		},
		{
			"bufferView":40,
			"componentType":5126,
			"count":318,
			"max":[
				2.049997568130493,
				4,
				-1.9499999284744263
			],
			"min":[
				-2,
				1.3969838619232178e-07,
				-2.250000238418579
			],
			"type":"VEC3"
		},
		{
			"bufferView":41,
			"componentType":5126,
			"count":318,
			"type":"VEC3"
		},
		{
			"bufferView":42,
			"componentType":5126,
			"count":318,
			"type":"VEC2"
		},
		{
			"bufferView":43,
			"componentType":5123,
			"count":570,
			"type":"SCALAR"
		},
		{
			"bufferView":44,
			"componentType":5126,
			"count":307,
			"max":[
				2.049999952316284,
				4,
				-1.9499953985214233
			],
			"min":[
				-2.000000238418579,
				2.3841856489070778e-07,
				-2.2500009536743164
			],
			"type":"VEC3"
		},
		{
			"bufferView":45,
			"componentType":5126,
			"count":307,
			"type":"VEC3"
		},
		{
			"bufferView":46,
			"componentType":5126,
			"count":307,
			"type":"VEC2"
		},
		{
			"bufferView":47,
			"componentType":5123,
			"count":498,
			"type":"SCALAR"
		},
		{
			"bufferView":48,
			"componentType":5126,
			"count":240,
			"max":[
				2,
				4,
				-1.9499967098236084
			],
			"min":[
				-2.000000476837158,
				-7.450580596923828e-09,
				-2.2500009536743164
			],
			"type":"VEC3"
		},
		{
			"bufferView":49,
			"componentType":5126,
			"count":240,
			"type":"VEC3"
		},
		{
			"bufferView":50,
			"componentType":5126,
			"count":240,
			"type":"VEC2"
		},
		{
			"bufferView":51,
			"componentType":5123,
			"count":366,
			"type":"SCALAR"
		},
		{
			"bufferView":52,
			"componentType":5126,
			"count":262,
			"max":[
				2,
				4,
				-1.9499961137771606
			],
			"min":[
				-2.212745428085327,
				1.3969838619232178e-07,
				-2.2500009536743164
			],
			"type":"VEC3"
		},
		{
			"bufferView":53,
			"componentType":5126,
			"count":262,
			"type":"VEC3"
		},
		{
			"bufferView":54,
			"componentType":5126,
			"count":262,
			"type":"VEC2"
		},
		{
			"bufferView":55,
			"componentType":5123,
			"count":414,
			"type":"SCALAR"
		},
		{
			"bufferView":56,
			"componentType":5126,
			"count":340,
			"max":[
				2.049997568130493,
				4,
				-1.9499999284744263
			],
			"min":[
				-2.212745189666748,
				1.3969838619232178e-07,
				-2.250000238418579
			],
			"type":"VEC3"
		},
		{
			"bufferView":57,
			"componentType":5126,
			"count":340,
			"type":"VEC3"
		},
		{
			"bufferView":58,
			"componentType":5126,
			"count":340,
			"type":"VEC2"
		},
		{
			"bufferView":59,
			"componentType":5123,
			"count":618,
			"type":"SCALAR"
		},
		{
			"bufferView":60,
			"componentType":5126,
			"count":330,
			"max":[
				2.049997329711914,
				4,
				-1.9499999284744263
			],
			"min":[
				-2.212745428085327,
				1.3969838619232178e-07,
				-2.250000476837158
			],
			"type":"VEC3"
		},
		{
			"bufferView":61,
			"componentType":5126,
			"count":330,
			"type":"VEC3"
		},
		{
			"bufferView":62,
			"componentType":5126,
			"count":330,
			"type":"VEC2"
		},
		{
			"bufferView":63,
			"componentType":5123,
			"count":582,
			"type":"SCALAR"
		},
		{
			"bufferView":64,
			"componentType":5126,
			"count":1851,
			"max":[
				2,
				0.26000261306762695,
				2
			],
			"min":[
				-2,
				0,
				-2
			],
			"type":"VEC3"
		},
		{
			"bufferView":65,
			"componentType":5126,
			"count":1851,
			"type":"VEC3"
		},
		{
			"bufferView":66,
			"componentType":5126,
			"count":1851,
			"type":"VEC2"
		},
		{
			"bufferView":67,
			"componentType":5123,
			"count":2505,
			"type":"SCALAR"
		},
		{
			"bufferView":68,
			"componentType":5126,
			"count":289,
			"max":[
				1,
				0.26000261306762695,
				0.7000000476837158
			],
			"min":[
				-1,
				0,
				0
			],
			"type":"VEC3"
		},
		{
			"bufferView":69,
			"componentType":5126,
			"count":289,
			"type":"VEC3"
		},
		{
			"bufferView":70,
			"componentType":5126,
			"count":289,
			"type":"VEC2"
		},
		{
			"bufferView":71,
			"componentType":5123,
			"count":468,
			"type":"SCALAR"
		},
		{
			"bufferView":72,
			"componentType":5126,
			"count":614,
			"max":[
				-1.9499998092651367,
				4,
				2.049997568130493
			],
			"min":[
				-2.250000238418579,
				1.3969838619232178e-07,
				-2
			],
			"type":"VEC3"
		},
		{
			"bufferView":73,
			"componentType":5126,
			"count":614,
			"type":"VEC3"
		},
		{
			"bufferView":74,
			"componentType":5126,
			"count":614,
			"type":"VEC2"
		},
		{
			"bufferView":75,
			"componentType":5123,
			"count":1092,
			"type":"SCALAR"
		},
		{
			"bufferView":76,
			"componentType":5126,
			"count":8,
			"max":[
				-2.1299891471862793,
				3.3851687908172607,
				0.818335771560669
			],
			"min":[
				-2.138800621032715,
				0.9403886795043945,
				-0.818329393863678
			],
			"type":"VEC3"
		},
		{
			"bufferView":77,
			"componentType":5126,
			"count":8,
			"type":"VEC3"
		},
		{
			"bufferView":78,
			"componentType":5126,
			"count":8,
			"type":"VEC2"
		},
		{
			"bufferView":79,
			"componentType":5123,
			"count":12,
			"type":"SCALAR"
		},
		{
			"bufferView":80,
			"componentType":5126,
			"count":606,
			"max":[
				-1.9499950408935547,
				4,
				2.0500004291534424
			],
			"min":[
				-2.2500009536743164,
				2.384185791015625e-07,
				-1.999999761581421
			],
			"type":"VEC3"
		},
		{
			"bufferView":81,
			"componentType":5126,
			"count":606,
			"type":"VEC3"
		},
		{
			"bufferView":82,
			"componentType":5126,
			"count":606,
			"type":"VEC2"
		},
		{
			"bufferView":83,
			"componentType":5123,
			"count":1023,
			"type":"SCALAR"
		},
		{
			"bufferView":84,
			"componentType":5126,
			"count":8,
			"max":[
				-2.1299891471862793,
				3.3851687908172607,
				0.818335771560669
			],
			"min":[
				-2.138800621032715,
				0.9403886795043945,
				-0.818329393863678
			],
			"type":"VEC3"
		},
		{
			"bufferView":85,
			"componentType":5126,
			"count":8,
			"type":"VEC3"
		},
		{
			"bufferView":86,
			"componentType":5126,
			"count":8,
			"type":"VEC2"
		},
		{
			"bufferView":87,
			"componentType":5123,
			"count":12,
			"type":"SCALAR"
		},
		{
			"bufferView":88,
			"componentType":5126,
			"count":537,
			"max":[
				-1.9499963521957397,
				4,
				2.000000476837158
			],
			"min":[
				-2.2500009536743164,
				-7.450580596923828e-09,
				-2
			],
			"type":"VEC3"
		},
		{
			"bufferView":89,
			"componentType":5126,
			"count":537,
			"type":"VEC3"
		},
		{
			"bufferView":90,
			"componentType":5126,
			"count":537,
			"type":"VEC2"
		},
		{
			"bufferView":91,
			"componentType":5123,
			"count":891,
			"type":"SCALAR"
		},
		{
			"bufferView":92,
			"componentType":5126,
			"count":8,
			"max":[
				-2.1299891471862793,
				3.3851687908172607,
				0.818335771560669
			],
			"min":[
				-2.138800621032715,
				0.9403886795043945,
				-0.818329393863678
			],
			"type":"VEC3"
		},
		{
			"bufferView":93,
			"componentType":5126,
			"count":8,
			"type":"VEC3"
		},
		{
			"bufferView":94,
			"componentType":5126,
			"count":8,
			"type":"VEC2"
		},
		{
			"bufferView":95,
			"componentType":5126,
			"count":558,
			"max":[
				-1.949995756149292,
				4,
				2.000000238418579
			],
			"min":[
				-2.2500009536743164,
				1.3969838619232178e-07,
				-2.212744951248169
			],
			"type":"VEC3"
		},
		{
			"bufferView":96,
			"componentType":5126,
			"count":558,
			"type":"VEC3"
		},
		{
			"bufferView":97,
			"componentType":5126,
			"count":558,
			"type":"VEC2"
		},
		{
			"bufferView":98,
			"componentType":5123,
			"count":936,
			"type":"SCALAR"
		},
		{
			"bufferView":99,
			"componentType":5126,
			"count":8,
			"max":[
				-2.1299891471862793,
				3.3851687908172607,
				0.818335771560669
			],
			"min":[
				-2.138800621032715,
				0.9403886795043945,
				-0.818329393863678
			],
			"type":"VEC3"
		},
		{
			"bufferView":100,
			"componentType":5126,
			"count":8,
			"type":"VEC3"
		},
		{
			"bufferView":101,
			"componentType":5126,
			"count":8,
			"type":"VEC2"
		},
		{
			"bufferView":102,
			"componentType":5126,
			"count":656,
			"max":[
				-1.9499998092651367,
				4,
				2.049997568130493
			],
			"min":[
				-2.250000238418579,
				1.3969838619232178e-07,
				-2.212745189666748
			],
			"type":"VEC3"
		},
		{
			"bufferView":103,
			"componentType":5126,
			"count":656,
			"type":"VEC3"
		},
		{
			"bufferView":104,
			"componentType":5126,
			"count":656,
			"type":"VEC2"
		},
		{
			"bufferView":105,
			"componentType":5123,
			"count":1191,
			"type":"SCALAR"
		},
		{
			"bufferView":106,
			"componentType":5126,
			"count":8,
			"max":[
				-2.1299891471862793,
				3.3851687908172607,
				0.818335235118866
			],
			"min":[
				-2.138800621032715,
				0.9403886795043945,
				-0.818329930305481
			],
			"type":"VEC3"
		},
		{
			"bufferView":107,
			"componentType":5126,
			"count":8,
			"type":"VEC3"
		},
		{
			"bufferView":108,
			"componentType":5126,
			"count":8,
			"type":"VEC2"
		},
		{
			"bufferView":109,
			"componentType":5126,
			"count":630,
			"max":[
				-1.9499998092651367,
				4,
				2.049997329711914
			],
			"min":[
				-2.250000476837158,
				1.3969838619232178e-07,
				-2.212745428085327
			],
			"type":"VEC3"
		},
		{
			"bufferView":110,
			"componentType":5126,
			"count":630,
			"type":"VEC3"
		},
		{
			"bufferView":111,
			"componentType":5126,
			"count":630,
			"type":"VEC2"
		},
		{
			"bufferView":112,
			"componentType":5123,
			"count":1116,
			"type":"SCALAR"
		},
		{
			"bufferView":113,
			"componentType":5126,
			"count":8,
			"max":[
				-2.1299891471862793,
				3.3851687908172607,
				0.818335235118866
			],
			"min":[
				-2.138800621032715,
				0.9403886795043945,
				-0.818329930305481
			],
			"type":"VEC3"
		},
		{
			"bufferView":114,
			"componentType":5126,
			"count":8,
			"type":"VEC3"
		},
		{
			"bufferView":115,
			"componentType":5126,
			"count":8,
			"type":"VEC2"
		},
		{
			"bufferView":116,
			"componentType":5126,
			"count":626,
			"max":[
				2.049997568130493,
				4,
				-1.9499999284744263
			],
			"min":[
				-2,
				1.3969838619232178e-07,
				-2.250000238418579
			],
			"type":"VEC3"
		},
		{
			"bufferView":117,
			"componentType":5126,
			"count":626,
			"type":"VEC3"
		},
		{
			"bufferView":118,
			"componentType":5126,
			"count":626,
			"type":"VEC2"
		},
		{
			"bufferView":119,
			"componentType":5123,
			"count":1128,
			"type":"SCALAR"
		},
		{
			"bufferView":120,
			"componentType":5126,
			"count":8,
			"max":[
				0.8183353543281555,
				3.3851687908172607,
				-2.1299891471862793
			],
			"min":[
				-0.8183298110961914,
				0.9403886795043945,
				-2.138800621032715
			],
			"type":"VEC3"
		},
		{
			"bufferView":121,
			"componentType":5126,
			"count":8,
			"type":"VEC3"
		},
		{
			"bufferView":122,
			"componentType":5126,
			"count":8,
			"type":"VEC2"
		},
		{
			"bufferView":123,
			"componentType":5123,
			"count":12,
			"type":"SCALAR"
		},
		{
			"bufferView":124,
			"componentType":5126,
			"count":603,
			"max":[
				2.049999952316284,
				4,
				-1.9499953985214233
			],
			"min":[
				-2.000000238418579,
				2.3841856489070778e-07,
				-2.2500009536743164
			],
			"type":"VEC3"
		},
		{
			"bufferView":125,
			"componentType":5126,
			"count":603,
			"type":"VEC3"
		},
		{
			"bufferView":126,
			"componentType":5126,
			"count":603,
			"type":"VEC2"
		},
		{
			"bufferView":127,
			"componentType":5123,
			"count":1020,
			"type":"SCALAR"
		},
		{
			"bufferView":128,
			"componentType":5126,
			"count":8,
			"max":[
				0.8183353543281555,
				3.3851687908172607,
				-2.1299891471862793
			],
			"min":[
				-0.8183298110961914,
				0.9403886795043945,
				-2.138800621032715
			],
			"type":"VEC3"
		},
		{
			"bufferView":129,
			"componentType":5126,
			"count":8,
			"type":"VEC3"
		},
		{
			"bufferView":130,
			"componentType":5126,
			"count":8,
			"type":"VEC2"
		},
		{
			"bufferView":131,
			"componentType":5123,
			"count":12,
			"type":"SCALAR"
		},
		{
			"bufferView":132,
			"componentType":5126,
			"count":536,
			"max":[
				2,
				4,
				-1.9499967098236084
			],
			"min":[
				-2.000000476837158,
				-7.450580596923828e-09,
				-2.2500009536743164
			],
			"type":"VEC3"
		},
		{
			"bufferView":133,
			"componentType":5126,
			"count":536,
			"type":"VEC3"
		},
		{
			"bufferView":134,
			"componentType":5126,
			"count":536,
			"type":"VEC2"
		},
		{
			"bufferView":135,
			"componentType":5123,
			"count":888,
			"type":"SCALAR"
		},
		{
			"bufferView":136,
			"componentType":5126,
			"count":8,
			"max":[
				0.8183353543281555,
				3.3851687908172607,
				-2.1299891471862793
			],
			"min":[
				-0.8183298110961914,
				0.9403886795043945,
				-2.138800621032715
			],
			"type":"VEC3"
		},
		{
			"bufferView":137,
			"componentType":5126,
			"count":8,
			"type":"VEC3"
		},
		{
			"bufferView":138,
			"componentType":5126,
			"count":8,
			"type":"VEC2"
		},
		{
			"bufferView":139,
			"componentType":5126,
			"count":558,
			"max":[
				2,
				4,
				-1.9499961137771606
			],
			"min":[
				-2.212745428085327,
				1.3969838619232178e-07,
				-2.2500009536743164
			],
			"type":"VEC3"
		},
		{
			"bufferView":140,
			"componentType":5126,
			"count":558,
			"type":"VEC3"
		},
		{
			"bufferView":141,
			"componentType":5126,
			"count":558,
			"type":"VEC2"
		},
		{
			"bufferView":142,
			"componentType":5123,
			"count":936,
			"type":"SCALAR"
		},
		{
			"bufferView":143,
			"componentType":5126,
			"count":8,
			"max":[
				0.8183353543281555,
				3.3851687908172607,
				-2.1299891471862793
			],
			"min":[
				-0.8183298110961914,
				0.9403886795043945,
				-2.138800621032715
			],
			"type":"VEC3"
		},
		{
			"bufferView":144,
			"componentType":5126,
			"count":8,
			"type":"VEC3"
		},
		{
			"bufferView":145,
			"componentType":5126,
			"count":8,
			"type":"VEC2"
		},
		{
			"bufferView":146,
			"componentType":5126,
			"count":636,
			"max":[
				2.049997568130493,
				4,
				-1.9499999284744263
			],
			"min":[
				-2.212745189666748,
				1.3969838619232178e-07,
				-2.250000238418579
			],
			"type":"VEC3"
		},
		{
			"bufferView":147,
			"componentType":5126,
			"count":636,
			"type":"VEC3"
		},
		{
			"bufferView":148,
			"componentType":5126,
			"count":636,
			"type":"VEC2"
		},
		{
			"bufferView":149,
			"componentType":5123,
			"count":1140,
			"type":"SCALAR"
		},
		{
			"bufferView":150,
			"componentType":5126,
			"count":8,
			"max":[
				0.8183353543281555,
				3.3851687908172607,
				-2.1299891471862793
			],
			"min":[
				-0.8183298110961914,
				0.9403886795043945,
				-2.138800621032715
			],
			"type":"VEC3"
		},
		{
			"bufferView":151,
			"componentType":5126,
			"count":8,
			"type":"VEC3"
		},
		{
			"bufferView":152,
			"componentType":5126,
			"count":8,
			"type":"VEC2"
		},
		{
			"bufferView":153,
			"componentType":5126,
			"count":631,
			"max":[
				2.049997329711914,
				4,
				-1.9499999284744263
			],
			"min":[
				-2.212745428085327,
				1.3969838619232178e-07,
				-2.250000476837158
			],
			"type":"VEC3"
		},
		{
			"bufferView":154,
			"componentType":5126,
			"count":631,
			"type":"VEC3"
		},
		{
			"bufferView":155,
			"componentType":5126,
			"count":631,
			"type":"VEC2"
		},
		{
			"bufferView":156,
			"componentType":5123,
			"count":1119,
			"type":"SCALAR"
		},
		{
			"bufferView":157,
			"componentType":5126,
			"count":8,
			"max":[
				0.8183353543281555,
				3.3851687908172607,
				-2.1299891471862793
			],
			"min":[
				-0.8183298110961914,
				0.9403886795043945,
				-2.138800621032715
			],
			"type":"VEC3"
		},
		{
			"bufferView":158,
			"componentType":5126,
			"count":8,
			"type":"VEC3"
		},
		{
			"bufferView":159,
			"componentType":5126,
			"count":8,
			"type":"VEC2"
		},
		{
			"bufferView":160,
			"componentType":5126,
			"count":346,
			"max":[
				-1.946037769317627,
				4,
				2.2127437591552734
			],
			"min":[
				-2.253966808319092,
				0,
				-2.212745189666748
			],
			"type":"VEC3"
		},
		{
			"bufferView":161,
			"componentType":5126,
			"count":346,
			"type":"VEC3"
		},
		{
			"bufferView":162,
			"componentType":5126,
			"count":346,
			"type":"VEC2"
		},
		{
			"bufferView":163,
			"componentType":5123,
			"count":576,
			"type":"SCALAR"
		},
		{
			"bufferView":164,
			"componentType":5126,
			"count":348,
			"max":[
				2.212745189666748,
				4,
				2.253981113433838
			],
			"min":[
				-2.21274471282959,
				0,
				1.9460389614105225
			],
			"type":"VEC3"
		},
		{
			"bufferView":165,
			"componentType":5126,
			"count":348,
			"type":"VEC3"
		},
		{
			"bufferView":166,
			"componentType":5126,
			"count":348,
			"type":"VEC2"
		},
		{
			"bufferView":167,
			"componentType":5123,
			"count":582,
			"type":"SCALAR"
		},
		{
			"bufferView":168,
			"componentType":5126,
			"count":348,
			"max":[
				2.2127442359924316,
				4,
				-1.9460389614105225
			],
			"min":[
				-2.2127456665039062,
				0,
				-2.2539803981781006
			],
			"type":"VEC3"
		},
		{
			"bufferView":169,
			"componentType":5126,
			"count":348,
			"type":"VEC3"
		},
		{
			"bufferView":170,
			"componentType":5126,
			"count":348,
			"type":"VEC2"
		},
		{
			"bufferView":171,
			"componentType":5123,
			"count":582,
			"type":"SCALAR"
		},
		{
			"bufferView":172,
			"componentType":5126,
			"count":340,
			"max":[
				2.253966808319092,
				4,
				2.2127435207366943
			],
			"min":[
				1.9460375308990479,
				0,
				-2.212745428085327
			],
			"type":"VEC3"
		},
		{
			"bufferView":173,
			"componentType":5126,
			"count":340,
			"type":"VEC3"
		},
		{
			"bufferView":174,
			"componentType":5126,
			"count":340,
			"type":"VEC2"
		},
		{
			"bufferView":175,
			"componentType":5123,
			"count":570,
			"type":"SCALAR"
		},
		{
			"bufferView":176,
			"componentType":5126,
			"count":386,
			"max":[
				-1.946035623550415,
				4,
				2.049997329711914
			],
			"min":[
				-2.25396466255188,
				0,
				-2.000000238418579
			],
			"type":"VEC3"
		},
		{
			"bufferView":177,
			"componentType":5126,
			"count":386,
			"type":"VEC3"
		},
		{
			"bufferView":178,
			"componentType":5126,
			"count":386,
			"type":"VEC2"
		},
		{
			"bufferView":179,
			"componentType":5123,
			"count":714,
			"type":"SCALAR"
		},
		{
			"bufferView":180,
			"componentType":5126,
			"count":381,
			"max":[
				-1.946037769317627,
				4,
				2.0500001907348633
			],
			"min":[
				-2.253966808319092,
				0,
				-2
			],
			"type":"VEC3"
		},
		{
			"bufferView":181,
			"componentType":5126,
			"count":381,
			"type":"VEC3"
		},
		{
			"bufferView":182,
			"componentType":5126,
			"count":381,
			"type":"VEC2"
		},
		{
			"bufferView":183,
			"componentType":5123,
			"count":642,
			"type":"SCALAR"
		},
		{
			"bufferView":184,
			"componentType":5126,
			"count":312,
			"max":[
				-1.946037769317627,
				4,
				2.000000238418579
			],
			"min":[
				-2.253966808319092,
				-7.450580596923828e-09,
				-2.000000238418579
			],
			"type":"VEC3"
		},
		{
			"bufferView":185,
			"componentType":5126,
			"count":312,
			"type":"VEC3"
		},
		{
			"bufferView":186,
			"componentType":5126,
			"count":312,
			"type":"VEC2"
		},
		{
			"bufferView":187,
			"componentType":5123,
			"count":522,
			"type":"SCALAR"
		},
		{
			"bufferView":188,
			"componentType":5126,
			"count":337,
			"max":[
				-1.946037769317627,
				4,
				2
			],
			"min":[
				-2.253966808319092,
				0,
				-2.212745189666748
			],
			"type":"VEC3"
		},
		{
			"bufferView":189,
			"componentType":5126,
			"count":337,
			"type":"VEC3"
		},
		{
			"bufferView":190,
			"componentType":5126,
			"count":337,
			"type":"VEC2"
		},
		{
			"bufferView":191,
			"componentType":5123,
			"count":582,
			"type":"SCALAR"
		},
		{
			"bufferView":192,
			"componentType":5126,
			"count":414,
			"max":[
				-1.946037769317627,
				4,
				2.049997568130493
			],
			"min":[
				-2.253966808319092,
				0,
				-2.212745189666748
			],
			"type":"VEC3"
		},
		{
			"bufferView":193,
			"componentType":5126,
			"count":414,
			"type":"VEC3"
		},
		{
			"bufferView":194,
			"componentType":5126,
			"count":414,
			"type":"VEC2"
		},
		{
			"bufferView":195,
			"componentType":5123,
			"count":774,
			"type":"SCALAR"
		},
		{
			"bufferView":196,
			"componentType":5126,
			"count":402,
			"max":[
				-1.946037769317627,
				4,
				2.049997329711914
			],
			"min":[
				-2.253966808319092,
				0,
				-2.212745428085327
			],
			"type":"VEC3"
		},
		{
			"bufferView":197,
			"componentType":5126,
			"count":402,
			"type":"VEC3"
		},
		{
			"bufferView":198,
			"componentType":5126,
			"count":402,
			"type":"VEC2"
		},
		{
			"bufferView":199,
			"componentType":5123,
			"count":738,
			"type":"SCALAR"
		},
		{
			"bufferView":200,
			"componentType":5126,
			"count":386,
			"max":[
				2.049997568130493,
				4,
				-1.9460241794586182
			],
			"min":[
				-2,
				0,
				-2.2539656162261963
			],
			"type":"VEC3"
		},
		{
			"bufferView":201,
			"componentType":5126,
			"count":386,
			"type":"VEC3"
		},
		{
			"bufferView":202,
			"componentType":5126,
			"count":386,
			"type":"VEC2"
		},
		{
			"bufferView":203,
			"componentType":5123,
			"count":714,
			"type":"SCALAR"
		},
		{
			"bufferView":204,
			"componentType":5126,
			"count":379,
			"max":[
				2.049999952316284,
				4,
				-1.9460241794586182
			],
			"min":[
				-2.000000238418579,
				0,
				-2.2539656162261963
			],
			"type":"VEC3"
		},
		{
			"bufferView":205,
			"componentType":5126,
			"count":379,
			"type":"VEC3"
		},
		{
			"bufferView":206,
			"componentType":5126,
			"count":379,
			"type":"VEC2"
		},
		{
			"bufferView":207,
			"componentType":5123,
			"count":642,
			"type":"SCALAR"
		},
		{
			"bufferView":208,
			"componentType":5126,
			"count":312,
			"max":[
				2,
				4,
				-1.9460241794586182
			],
			"min":[
				-2.000000476837158,
				-7.450580596923828e-09,
				-2.2539656162261963
			],
			"type":"VEC3"
		},
		{
			"bufferView":209,
			"componentType":5126,
			"count":312,
			"type":"VEC3"
		},
		{
			"bufferView":210,
			"componentType":5126,
			"count":312,
			"type":"VEC2"
		},
		{
			"bufferView":211,
			"componentType":5123,
			"count":522,
			"type":"SCALAR"
		},
		{
			"bufferView":212,
			"componentType":5126,
			"count":337,
			"max":[
				2,
				4,
				-1.9460241794586182
			],
			"min":[
				-2.212745428085327,
				0,
				-2.2539656162261963
			],
			"type":"VEC3"
		},
		{
			"bufferView":213,
			"componentType":5126,
			"count":337,
			"type":"VEC3"
		},
		{
			"bufferView":214,
			"componentType":5126,
			"count":337,
			"type":"VEC2"
		},
		{
			"bufferView":215,
			"componentType":5123,
			"count":582,
			"type":"SCALAR"
		},
		{
			"bufferView":216,
			"componentType":5126,
			"count":411,
			"max":[
				2.049997568130493,
				4,
				-1.9460241794586182
			],
			"min":[
				-2.212745189666748,
				0,
				-2.2539656162261963
			],
			"type":"VEC3"
		},
		{
			"bufferView":217,
			"componentType":5126,
			"count":411,
			"type":"VEC3"
		},
		{
			"bufferView":218,
			"componentType":5126,
			"count":411,
			"type":"VEC2"
		},
		{
			"bufferView":219,
			"componentType":5123,
			"count":774,
			"type":"SCALAR"
		},
		{
			"bufferView":220,
			"componentType":5126,
			"count":402,
			"max":[
				2.049997329711914,
				4,
				-1.9460241794586182
			],
			"min":[
				-2.212745428085327,
				0,
				-2.2539656162261963
			],
			"type":"VEC3"
		},
		{
			"bufferView":221,
			"componentType":5126,
			"count":402,
			"type":"VEC3"
		},
		{
			"bufferView":222,
			"componentType":5126,
			"count":402,
			"type":"VEC2"
		},
		{
			"bufferView":223,
			"componentType":5123,
			"count":738,
			"type":"SCALAR"
		},
		{
			"bufferView":224,
			"componentType":5126,
			"count":289,
			"max":[
				0.759520411491394,
				2.6132142543792725,
				0.22311706840991974
			],
			"min":[
				-0.7595197558403015,
				0.2622649669647217,
				-0.06755684316158295
			],
			"type":"VEC3"
		},
		{
			"bufferView":225,
			"componentType":5126,
			"count":289,
			"type":"VEC3"
		},
		{
			"bufferView":226,
			"componentType":5126,
			"count":289,
			"type":"VEC2"
		},
		{
			"bufferView":227,
			"componentType":5123,
			"count":792,
			"type":"SCALAR"
		},
		{
			"bufferView":228,
			"componentType":5126,
			"count":8,
			"max":[
				0.5686368942260742,
				2.3940834999084473,
				0.04053666815161705
			],
			"min":[
				-0.5686372518539429,
				0.5188555717468262,
				-0.04053347557783127
			],
			"type":"VEC3"
		},
		{
			"bufferView":229,
			"componentType":5126,
			"count":8,
			"type":"VEC3"
		},
		{
			"bufferView":230,
			"componentType":5126,
			"count":8,
			"type":"VEC2"
		},
		{
			"bufferView":231,
			"componentType":5123,
			"count":12,
			"type":"SCALAR"
		},
		{
			"bufferView":232,
			"componentType":5126,
			"count":109,
			"max":[
				-1.7808865308761597,
				4,
				0.14998739957809448
			],
			"min":[
				-2.0000014305114746,
				-7.450580596923828e-09,
				-0.15001608431339264
			],
			"type":"VEC3"
		},
		{
			"bufferView":233,
			"componentType":5126,
			"count":109,
			"type":"VEC3"
		},
		{
			"bufferView":234,
			"componentType":5126,
			"count":109,
			"type":"VEC2"
		},
		{
			"bufferView":235,
			"componentType":5123,
			"count":174,
			"type":"SCALAR"
		},
		{
			"bufferView":236,
			"componentType":5126,
			"count":110,
			"max":[
				0.1500028371810913,
				4,
				-1.7808871269226074
			],
			"min":[
				-0.15000128746032715,
				0,
				-2.000000238418579
			],
			"type":"VEC3"
		},
		{
			"bufferView":237,
			"componentType":5126,
			"count":110,
			"type":"VEC3"
		},
		{
			"bufferView":238,
			"componentType":5126,
			"count":110,
			"type":"VEC2"
		},
		{
			"bufferView":239,
			"componentType":5123,
			"count":174,
			"type":"SCALAR"
		},
		{
			"bufferView":240,
			"componentType":5126,
			"count":295,
			"max":[
				2.0000007152557373,
				4,
				0.15000255405902863
			],
			"min":[
				-2.000000238418579,
				-7.450580152834618e-09,
				-0.15000168979167938
			],
			"type":"VEC3"
		},
		{
			"bufferView":241,
			"componentType":5126,
			"count":295,
			"type":"VEC3"
		},
		{
			"bufferView":242,
			"componentType":5126,
			"count":295,
			"type":"VEC2"
		},
		{
			"bufferView":243,
			"componentType":5123,
			"count":624,
			"type":"SCALAR"
		},
		{
			"bufferView":244,
			"componentType":5126,
			"count":296,
			"max":[
				0.1500028371810913,
				4,
				2.0000007152557373
			],
			"min":[
				-0.15000128746032715,
				-7.450580596923828e-09,
				-2.000000238418579
			],
			"type":"VEC3"
		},
		{
			"bufferView":245,
			"componentType":5126,
			"count":296,
			"type":"VEC3"
		},
		{
			"bufferView":246,
			"componentType":5126,
			"count":296,
			"type":"VEC2"
		},
		{
			"bufferView":247,
			"componentType":5123,
			"count":624,
			"type":"SCALAR"
		}
	],
	"bufferViews":[
		{
			"buffer":0,
			"byteLength":3816,
			"byteOffset":0,
			"target":34962
		},
		{
			"buffer":0,
			"byteLength":3816,
			"byteOffset":3816,
			"target":34962
		},
		{
			"buffer":0,
			"byteLength":2544,
			"byteOffset":7632,
			"target":34962
		},
		{
			"buffer":0,
			"byteLength":1140,
			"byteOffset":10176,
			"target":34963
		},
		{
			"buffer":0,
			"byteLength":3708,
			"byteOffset":11316,
			"target":34962
		},
		{
			"buffer":0,
			"byteLength":3708,
			"byteOffset":15024,
			"target":34962
		},
		{
			"buffer":0,
			"byteLength":2472,
			"byteOffset":18732,
			"target":34962
		},
		{
			"buffer":0,
			"byteLength":996,
			"byteOffset":21204,
			"target":34963
		},
		{
			"buffer":0,
			"byteLength":2880,
			"byteOffset":22200,
			"target":34962
		},
		{
			"buffer":0,
			"byteLength":2880,
			"byteOffset":25080,
			"target":34962
		},
		{
			"buffer":0,
			"byteLength":1920,
			"byteOffset":27960,
			"target":34962
		},
		{
			"buffer":0,
			"byteLength":732,
			"byteOffset":29880,
			"target":34963
		},
		{
			"buffer":0,
			"byteLength":3144,
			"byteOffset":30612,
			"target":34962
		},
		{
			"buffer":0,
			"byteLength":3144,
			"byteOffset":33756,
			"target":34962
		},
		{
			"buffer":0,
			"byteLength":2096,
			"byteOffset":36900,
			"target":34962
		},
		{
			"buffer":0,
			"byteLength":828,
			"byteOffset":38996,
			"target":34963
		},
		{
			"buffer":0,
			"byteLength":4260,
			"byteOffset":39824,
			"target":34962
		},
		{
			"buffer":0,
			"byteLength":4260,
			"byteOffset":44084,
			"target":34962
		},
		{
			"buffer":0,
			"byteLength":2840,
			"byteOffset":48344,
			"target":34962
		},
		{
			"buffer":0,
			"byteLength":1308,
			"byteOffset":51184,
			"target":34963
		},
		{
			"buffer":0,
			"byteLength":3960,
			"byteOffset":52492,
			"target":34962
		},
		{
			"buffer":0,
			"byteLength":3960,
			"byteOffset":56452,
			"target":34962
		},
		{
			"buffer":0,
			"byteLength":2640,
			"byteOffset":60412,
			"target":34962
		},
		{
			"buffer":0,
			"byteLength":1164,
			"byteOffset":63052,
			"target":34963
		},
		{
			"buffer":0,
			"byteLength":3408,
			"byteOffset":64216,
			"target":34962
		},
		{
			"buffer":0,
			"byteLength":3408,
			"byteOffset":67624,
			"target":34962
		},
		{
			"buffer":0,
			"byteLength":2272,
			"byteOffset":71032,
			"target":34962
		},
		{
			"buffer":0,
			"byteLength":924,
			"byteOffset":73304,
			"target":34963
		},
		{
			"buffer":0,
			"byteLength":3408,
			"byteOffset":74228,
			"target":34962
		},
		{
			"buffer":0,
			"byteLength":3408,
			"byteOffset":77636,
			"target":34962
		},
		{
			"buffer":0,
			"byteLength":2272,
			"byteOffset":81044,
			"target":34962
		},
		{
			"buffer":0,
			"byteLength":924,
			"byteOffset":83316,
			"target":34963
		},
		{
			"buffer":0,
			"byteLength":3408,
			"byteOffset":84240,
			"target":34962
		},
		{
			"buffer":0,
			"byteLength":3408,
			"byteOffset":87648,
			"target":34962
		},
		{
			"buffer":0,
			"byteLength":2272,
			"byteOffset":91056,
			"target":34962
		},
		{
			"buffer":0,
			"byteLength":924,
			"byteOffset":93328,
			"target":34963
		},
		{
			"buffer":0,
			"byteLength":3408,
			"byteOffset":94252,
			"target":34962
		},
		{
			"buffer":0,
			"byteLength":3408,
			"byteOffset":97660,
			"target":34962
		},
		{
			"buffer":0,
			"byteLength":2272,
			"byteOffset":101068,
			"target":34962
		},
		{
			"buffer":0,
			"byteLength":924,
			"byteOffset":103340,
			"target":34963
		},
		{
			"buffer":0,
			"byteLength":3816,
			"byteOffset":104264,
			"target":34962
		},
		{
			"buffer":0,
			"byteLength":3816,
			"byteOffset":108080,
			"target":34962
		},
		{
			"buffer":0,
			"byteLength":2544,
			"byteOffset":111896,
			"target":34962
		},
		{
			"buffer":0,
			"byteLength":1140,
			"byteOffset":114440,
			"target":34963
		},
		{
			"buffer":0,
			"byteLength":3684,
			"byteOffset":115580,
			"target":34962
		},
		{
			"buffer":0,
			"byteLength":3684,
			"byteOffset":119264,
			"target":34962
		},
		{
			"buffer":0,
			"byteLength":2456,
			"byteOffset":122948,
			"target":34962
		},
		{
			"buffer":0,
			"byteLength":996,
			"byteOffset":125404,
			"target":34963
		},
		{
			"buffer":0,
			"byteLength":2880,
			"byteOffset":126400,
			"target":34962
		},
		{
			"buffer":0,
			"byteLength":2880,
			"byteOffset":129280,
			"target":34962
		},
		{
			"buffer":0,
			"byteLength":1920,
			"byteOffset":132160,
			"target":34962
		},
		{
			"buffer":0,
			"byteLength":732,
			"byteOffset":134080,
			"target":34963
		},
		{
			"buffer":0,
			"byteLength":3144,
			"byteOffset":134812,
			"target":34962
		},
		{
			"buffer":0,
			"byteLength":3144,
			"byteOffset":137956,
			"target":34962
		},
		{
			"buffer":0,
			"byteLength":2096,
			"byteOffset":141100,
			"target":34962
		},
		{
			"buffer":0,
			"byteLength":828,
			"byteOffset":143196,
			"target":34963
		},
		{
			"buffer":0,
			"byteLength":4080,
			"byteOffset":144024,
			"target":34962
		},
		{
			"buffer":0,
			"byteLength":4080,
			"byteOffset":148104,
			"target":34962
		},
		{
			"buffer":0,
			"byteLength":2720,
			"byteOffset":152184,
			"target":34962
		},
		{
			"buffer":0,
			"byteLength":1236,
			"byteOffset":154904,
			"target":34963
		},
		{
			"buffer":0,
			"byteLength":3960,
			"byteOffset":156140,
			"target":34962
		},
		{
			"buffer":0,
			"byteLength":3960,
			"byteOffset":160100,
			"target":34962
		},
		{
			"buffer":0,
			"byteLength":2640,
			"byteOffset":164060,
			"target":34962
		},
		{
			"buffer":0,
			"byteLength":1164,
			"byteOffset":166700,
			"target":34963
		},
		{
			"buffer":0,
			"byteLength":22212,
			"byteOffset":167864,
			"target":34962
		},
		{
			"buffer":0,
			"byteLength":22212,
			"byteOffset":190076,
			"target":34962
		},
		{
			"buffer":0,
			"byteLength":14808,
			"byteOffset":212288,
			"target":34962
		},
		{
			"buffer":0,
			"byteLength":5010,
			"byteOffset":227096,
			"target":34963
		},
		{
			"buffer":0,
			"byteLength":3468,
			"byteOffset":232108,
			"target":34962
		},
		{
			"buffer":0,
			"byteLength":3468,
			"byteOffset":235576,
			"target":34962
		},
		{
			"buffer":0,
			"byteLength":2312,
			"byteOffset":239044,
			"target":34962
		},
		{
			"buffer":0,
			"byteLength":936,
			"byteOffset":241356,
			"target":34963
		},
		{
			"buffer":0,
			"byteLength":7368,
			"byteOffset":242292,
			"target":34962
		},
		{
			"buffer":0,
			"byteLength":7368,
			"byteOffset":249660,
			"target":34962
		},
		{
			"buffer":0,
			"byteLength":4912,
			"byteOffset":257028,
			"target":34962
		},
		{
			"buffer":0,
			"byteLength":2184,
			"byteOffset":261940,
			"target":34963
		},
		{
			"buffer":0,
			"byteLength":96,
			"byteOffset":264124,
			"target":34962
		},
		{
			"buffer":0,
			"byteLength":96,
			"byteOffset":264220,
			"target":34962
		},
		{
			"buffer":0,
			"byteLength":64,
			"byteOffset":264316,
			"target":34962
		},
		{
			"buffer":0,
			"byteLength":24,
			"byteOffset":264380,
			"target":34963
		},
		{
			"buffer":0,
			"byteLength":7272,
			"byteOffset":264404,
			"target":34962
		},
		{
			"buffer":0,
			"byteLength":7272,
			"byteOffset":271676,
			"target":34962
		},
		{
			"buffer":0,
			"byteLength":4848,
			"byteOffset":278948,
			"target":34962
		},
		{
			"buffer":0,
			"byteLength":2046,
			"byteOffset":283796,
			"target":34963
		},
		{
			"buffer":0,
			"byteLength":96,
			"byteOffset":285844,
			"target":34962
		},
		{
			"buffer":0,
			"byteLength":96,
			"byteOffset":285940,
			"target":34962
		},
		{
			"buffer":0,
			"byteLength":64,
			"byteOffset":286036,
			"target":34962
		},
		{
			"buffer":0,
			"byteLength":24,
			"byteOffset":286100,
			"target":34963
		},
		{
			"buffer":0,
			"byteLength":6444,
			"byteOffset":286124,
			"target":34962
		},
		{
			"buffer":0,
			"byteLength":6444,
			"byteOffset":292568,
			"target":34962
		},
		{
			"buffer":0,
			"byteLength":4296,
			"byteOffset":299012,
			"target":34962
		},
		{
			"buffer":0,
			"byteLength":1782,
			"byteOffset":303308,
			"target":34963
		},
		{
			"buffer":0,
			"byteLength":96,
			"byteOffset":305092,
			"target":34962
		},
		{
			"buffer":0,
			"byteLength":96,
			"byteOffset":305188,
			"target":34962
		},
		{
			"buffer":0,
			"byteLength":64,
			"byteOffset":305284,
			"target":34962
		},
		{
			"buffer":0,
			"byteLength":6696,
			"byteOffset":305348,
			"target":34962
		},
		{
			"buffer":0,
			"byteLength":6696,
			"byteOffset":312044,
			"target":34962
		},
		{
			"buffer":0,
			"byteLength":4464,
			"byteOffset":318740,
			"target":34962
		},
		{
			"buffer":0,
			"byteLength":1872,
			"byteOffset":323204,
			"target":34963
		},
		{
			"buffer":0,
			"byteLength":96,
			"byteOffset":325076,
			"target":34962
		},
		{
			"buffer":0,
			"byteLength":96,
			"byteOffset":325172,
			"target":34962
		},
		{
			"buffer":0,
			"byteLength":64,
			"byteOffset":325268,
			"target":34962
		},
		{
			"buffer":0,
			"byteLength":7872,
			"byteOffset":325332,
			"target":34962
		},
		{
			"buffer":0,
			"byteLength":7872,
			"byteOffset":333204,
			"target":34962
		},
		{
			"buffer":0,
			"byteLength":5248,
			"byteOffset":341076,
			"target":34962
		},
		{
			"buffer":0,
			"byteLength":2382,
			"byteOffset":346324,
			"target":34963
		},
		{
			"buffer":0,
			"byteLength":96,
			"byteOffset":348708,
			"target":34962
		},
		{
			"buffer":0,
			"byteLength":96,
			"byteOffset":348804,
			"target":34962
		},
		{
			"buffer":0,
			"byteLength":64,
			"byteOffset":348900,
			"target":34962
		},
		{
			"buffer":0,
			"byteLength":7560,
			"byteOffset":348964,
			"target":34962
		},
		{
			"buffer":0,
			"byteLength":7560,
			"byteOffset":356524,
			"target":34962
		},
		{
			"buffer":0,
			"byteLength":5040,
			"byteOffset":364084,
			"target":34962
		},
		{
			"buffer":0,
			"byteLength":2232,
			"byteOffset":369124,
			"target":34963
		},
		{
			"buffer":0,
			"byteLength":96,
			"byteOffset":371356,
			"target":34962
		},
		{
			"buffer":0,
			"byteLength":96,
			"byteOffset":371452,
			"target":34962
		},
		{
			"buffer":0,
			"byteLength":64,
			"byteOffset":371548,
			"target":34962
		},
		{
			"buffer":0,
			"byteLength":7512,
			"byteOffset":371612,
			"target":34962
		},
		{
			"buffer":0,
			"byteLength":7512,
			"byteOffset":379124,
			"target":34962
		},
		{
			"buffer":0,
			"byteLength":5008,
			"byteOffset":386636,
			"target":34962
		},
		{
			"buffer":0,
			"byteLength":2256,
			"byteOffset":391644,
			"target":34963
		},
		{
			"buffer":0,
			"byteLength":96,
			"byteOffset":393900,
			"target":34962
		},
		{
			"buffer":0,
			"byteLength":96,
			"byteOffset":393996,
			"target":34962
		},
		{
			"buffer":0,
			"byteLength":64,
			"byteOffset":394092,
			"target":34962
		},
		{
			"buffer":0,
			"byteLength":24,
			"byteOffset":394156,
			"target":34963
		},
		{
			"buffer":0,
			"byteLength":7236,
			"byteOffset":394180,
			"target":34962
		},
		{
			"buffer":0,
			"byteLength":7236,
			"byteOffset":401416,
			"target":34962
		},
		{
			"buffer":0,
			"byteLength":4824,
			"byteOffset":408652,
			"target":34962
		},
		{
			"buffer":0,
			"byteLength":2040,
			"byteOffset":413476,
			"target":34963
		},
		{
			"buffer":0,
			"byteLength":96,
			"byteOffset":415516,
			"target":34962
		},
		{
			"buffer":0,
			"byteLength":96,
			"byteOffset":415612,
			"target":34962
		},
		{
			"buffer":0,
			"byteLength":64,
			"byteOffset":415708,
			"target":34962
		},
		{
			"buffer":0,
			"byteLength":24,
			"byteOffset":415772,
			"target":34963
		},
		{
			"buffer":0,
			"byteLength":6432,
			"byteOffset":415796,
			"target":34962
		},
		{
			"buffer":0,
			"byteLength":6432,
			"byteOffset":422228,
			"target":34962
		},
		{
			"buffer":0,
			"byteLength":4288,
			"byteOffset":428660,
			"target":34962
		},
		{
			"buffer":0,
			"byteLength":1776,
			"byteOffset":432948,
			"target":34963
		},
		{
			"buffer":0,
			"byteLength":96,
			"byteOffset":434724,
			"target":34962
		},
		{
			"buffer":0,
			"byteLength":96,
			"byteOffset":434820,
			"target":34962
		},
		{
			"buffer":0,
			"byteLength":64,
			"byteOffset":434916,
			"target":34962
		},
		{
			"buffer":0,
			"byteLength":6696,
			"byteOffset":434980,
			"target":34962
		},
		{
			"buffer":0,
			"byteLength":6696,
			"byteOffset":441676,
			"target":34962
		},
		{
			"buffer":0,
			"byteLength":4464,
			"byteOffset":448372,
			"target":34962
		},
		{
			"buffer":0,
			"byteLength":1872,
			"byteOffset":452836,
			"target":34963
		},
		{
			"buffer":0,
			"byteLength":96,
			"byteOffset":454708,
			"target":34962
		},
		{
			"buffer":0,
			"byteLength":96,
			"byteOffset":454804,
			"target":34962
		},
		{
			"buffer":0,
			"byteLength":64,
			"byteOffset":454900,
			"target":34962
		},
		{
			"buffer":0,
			"byteLength":7632,
			"byteOffset":454964,
			"target":34962
		},
		{
			"buffer":0,
			"byteLength":7632,
			"byteOffset":462596,
			"target":34962
		},
		{
			"buffer":0,
			"byteLength":5088,
			"byteOffset":470228,
			"target":34962
		},
		{
			"buffer":0,
			"byteLength":2280,
			"byteOffset":475316,
			"target":34963
		},
		{
			"buffer":0,
			"byteLength":96,
			"byteOffset":477596,
			"target":34962
		},
		{
			"buffer":0,
			"byteLength":96,
			"byteOffset":477692,
			"target":34962
		},
		{
			"buffer":0,
			"byteLength":64,
			"byteOffset":477788,
			"target":34962
		},
		{
			"buffer":0,
			"byteLength":7572,
			"byteOffset":477852,
			"target":34962
		},
		{
			"buffer":0,
			"byteLength":7572,
			"byteOffset":485424,
			"target":34962
		},
		{
			"buffer":0,
			"byteLength":5048,
			"byteOffset":492996,
			"target":34962
		},
		{
			"buffer":0,
			"byteLength":2238,
			"byteOffset":498044,
			"target":34963
		},
		{
			"buffer":0,
			"byteLength":96,
			"byteOffset":500284,
			"target":34962
		},
		{
			"buffer":0,
			"byteLength":96,
			"byteOffset":500380,
			"target":34962
		},
		{
			"buffer":0,
			"byteLength":64,
			"byteOffset":500476,
			"target":34962
		},
		{
			"buffer":0,
			"byteLength":4152,
			"byteOffset":500540,
			"target":34962
		},
		{
			"buffer":0,
			"byteLength":4152,
			"byteOffset":504692,
			"target":34962
		},
		{
			"buffer":0,
			"byteLength":2768,
			"byteOffset":508844,
			"target":34962
		},
		{
			"buffer":0,
			"byteLength":1152,
			"byteOffset":511612,
			"target":34963
		},
		{
			"buffer":0,
			"byteLength":4176,
			"byteOffset":512764,
			"target":34962
		},
		{
			"buffer":0,
			"byteLength":4176,
			"byteOffset":516940,
			"target":34962
		},
		{
			"buffer":0,
			"byteLength":2784,
			"byteOffset":521116,
			"target":34962
		},
		{
			"buffer":0,
			"byteLength":1164,
			"byteOffset":523900,
			"target":34963
		},
		{
			"buffer":0,
			"byteLength":4176,
			"byteOffset":525064,
			"target":34962
		},
		{
			"buffer":0,
			"byteLength":4176,
			"byteOffset":529240,
			"target":34962
		},
		{
			"buffer":0,
			"byteLength":2784,
			"byteOffset":533416,
			"target":34962
		},
		{
			"buffer":0,
			"byteLength":1164,
			"byteOffset":536200,
			"target":34963
		},
		{
			"buffer":0,
			"byteLength":4080,
			"byteOffset":537364,
			"target":34962
		},
		{
			"buffer":0,
			"byteLength":4080,
			"byteOffset":541444,
			"target":34962
		},
		{
			"buffer":0,
			"byteLength":2720,
			"byteOffset":545524,
			"target":34962
		},
		{
			"buffer":0,
			"byteLength":1140,
			"byteOffset":548244,
			"target":34963
		},
		{
			"buffer":0,
			"byteLength":4632,
			"byteOffset":549384,
			"target":34962
		},
		{
			"buffer":0,
			"byteLength":4632,
			"byteOffset":554016,
			"target":34962
		},
		{
			"buffer":0,
			"byteLength":3088,
			"byteOffset":558648,
			"target":34962
		},
		{
			"buffer":0,
			"byteLength":1428,
			"byteOffset":561736,
			"target":34963
		},
		{
			"buffer":0,
			"byteLength":4572,
			"byteOffset":563164,
			"target":34962
		},
		{
			"buffer":0,
			"byteLength":4572,
			"byteOffset":567736,
			"target":34962
		},
		{
			"buffer":0,
			"byteLength":3048,
			"byteOffset":572308,
			"target":34962
		},
		{
			"buffer":0,
			"byteLength":1284,
			"byteOffset":575356,
			"target":34963
		},
		{
			"buffer":0,
			"byteLength":3744,
			"byteOffset":576640,
			"target":34962
		},
		{
			"buffer":0,
			"byteLength":3744,
			"byteOffset":580384,
			"target":34962
		},
		{
			"buffer":0,
			"byteLength":2496,
			"byteOffset":584128,
			"target":34962
		},
		{
			"buffer":0,
			"byteLength":1044,
			"byteOffset":586624,
			"target":34963
		},
		{
			"buffer":0,
			"byteLength":4044,
			"byteOffset":587668,
			"target":34962
		},
		{
			"buffer":0,
			"byteLength":4044,
			"byteOffset":591712,
			"target":34962
		},
		{
			"buffer":0,
			"byteLength":2696,
			"byteOffset":595756,
			"target":34962
		},
		{
			"buffer":0,
			"byteLength":1164,
			"byteOffset":598452,
			"target":34963
		},
		{
			"buffer":0,
			"byteLength":4968,
			"byteOffset":599616,
			"target":34962
		},
		{
			"buffer":0,
			"byteLength":4968,
			"byteOffset":604584,
			"target":34962
		},
		{
			"buffer":0,
			"byteLength":3312,
			"byteOffset":609552,
			"target":34962
		},
		{
			"buffer":0,
			"byteLength":1548,
			"byteOffset":612864,
			"target":34963
		},
		{
			"buffer":0,
			"byteLength":4824,
			"byteOffset":614412,
			"target":34962
		},
		{
			"buffer":0,
			"byteLength":4824,
			"byteOffset":619236,
			"target":34962
		},
		{
			"buffer":0,
			"byteLength":3216,
			"byteOffset":624060,
			"target":34962
		},
		{
			"buffer":0,
			"byteLength":1476,
			"byteOffset":627276,
			"target":34963
		},
		{
			"buffer":0,
			"byteLength":4632,
			"byteOffset":628752,
			"target":34962
		},
		{
			"buffer":0,
			"byteLength":4632,
			"byteOffset":633384,
			"target":34962
		},
		{
			"buffer":0,
			"byteLength":3088,
			"byteOffset":638016,
			"target":34962
		},
		{
			"buffer":0,
			"byteLength":1428,
			"byteOffset":641104,
			"target":34963
		},
		{
			"buffer":0,
			"byteLength":4548,
			"byteOffset":642532,
			"target":34962
		},
		{
			"buffer":0,
			"byteLength":4548,
			"byteOffset":647080,
			"target":34962
		},
		{
			"buffer":0,
			"byteLength":3032,
			"byteOffset":651628,
			"target":34962
		},
		{
			"buffer":0,
			"byteLength":1284,
			"byteOffset":654660,
			"target":34963
		},
		{
			"buffer":0,
			"byteLength":3744,
			"byteOffset":655944,
			"target":34962
		},
		{
			"buffer":0,
			"byteLength":3744,
			"byteOffset":659688,
			"target":34962
		},
		{
			"buffer":0,
			"byteLength":2496,
			"byteOffset":663432,
			"target":34962
		},
		{
			"buffer":0,
			"byteLength":1044,
			"byteOffset":665928,
			"target":34963
		},
		{
			"buffer":0,
			"byteLength":4044,
			"byteOffset":666972,
			"target":34962
		},
		{
			"buffer":0,
			"byteLength":4044,
			"byteOffset":671016,
			"target":34962
		},
		{
			"buffer":0,
			"byteLength":2696,
			"byteOffset":675060,
			"target":34962
		},
		{
			"buffer":0,
			"byteLength":1164,
			"byteOffset":677756,
			"target":34963
		},
		{
			"buffer":0,
			"byteLength":4932,
			"byteOffset":678920,
			"target":34962
		},
		{
			"buffer":0,
			"byteLength":4932,
			"byteOffset":683852,
			"target":34962
		},
		{
			"buffer":0,
			"byteLength":3288,
			"byteOffset":688784,
			"target":34962
		},
		{
			"buffer":0,
			"byteLength":1548,
			"byteOffset":692072,
			"target":34963
		},
		{
			"buffer":0,
			"byteLength":4824,
			"byteOffset":693620,
			"target":34962
		},
		{
			"buffer":0,
			"byteLength":4824,
			"byteOffset":698444,
			"target":34962
		},
		{
			"buffer":0,
			"byteLength":3216,
			"byteOffset":703268,
			"target":34962
		},
		{
			"buffer":0,
			"byteLength":1476,
			"byteOffset":706484,
			"target":34963
		},
		{
			"buffer":0,
			"byteLength":3468,
			"byteOffset":707960,
			"target":34962
		},
		{
			"buffer":0,
			"byteLength":3468,
			"byteOffset":711428,
			"target":34962
		},
		{
			"buffer":0,
			"byteLength":2312,
			"byteOffset":714896,
			"target":34962
		},
		{
			"buffer":0,
			"byteLength":1584,
			"byteOffset":717208,
			"target":34963
		},
		{
			"buffer":0,
			"byteLength":96,
			"byteOffset":718792,
			"target":34962
		},
		{
			"buffer":0,
			"byteLength":96,
			"byteOffset":718888,
			"target":34962
		},
		{
			"buffer":0,
			"byteLength":64,
			"byteOffset":718984,
			"target":34962
		},
		{
			"buffer":0,
			"byteLength":24,
			"byteOffset":719048,
			"target":34963
		},
		{
			"buffer":0,
			"byteLength":1308,
			"byteOffset":719072,
			"target":34962
		},
		{
			"buffer":0,
			"byteLength":1308,
			"byteOffset":720380,
			"target":34962
		},
		{
			"buffer":0,
			"byteLength":872,
			"byteOffset":721688,
			"target":34962
		},
		{
			"buffer":0,
			"byteLength":348,
			"byteOffset":722560,
			"target":34963
		},
		{
			"buffer":0,
			"byteLength":1320,
			"byteOffset":722908,
			"target":34962
		},
		{
			"buffer":0,
			"byteLength":1320,
			"byteOffset":724228,
			"target":34962
		},
		{
			"buffer":0,
			"byteLength":880,
			"byteOffset":725548,
			"target":34962
		},
		{
			"buffer":0,
			"byteLength":348,
			"byteOffset":726428,
			"target":34963
		},
		{
			"buffer":0,
			"byteLength":3540,
			"byteOffset":726776,
			"target":34962
		},
		{
			"buffer":0,
			"byteLength":3540,
			"byteOffset":730316,
			"target":34962
		},
		{
			"buffer":0,
			"byteLength":2360,
			"byteOffset":733856,
			"target":34962
		},
		{
			"buffer":0,
			"byteLength":1248,
			"byteOffset":736216,
			"target":34963
		},
		{
			"buffer":0,
			"byteLength":3552,
			"byteOffset":737464,
			"target":34962
		},
		{
			"buffer":0,
			"byteLength":3552,
			"byteOffset":741016,
			"target":34962
		},
		{
			"buffer":0,
			"byteLength":2368,
			"byteOffset":744568,
			"target":34962
		},
		{
			"buffer":0,
			"byteLength":1248,
			"byteOffset":746936,
			"target":34963
		}
	],
	"buffers":[
		{
			"byteLength":748184,
			"uri":"Walls_Floors_Style_C.bin"
		}
	]
}
